G04 #@! TF.GenerationSoftware,KiCad,Pcbnew,5.1.9*
G04 #@! TF.CreationDate,2021-04-16T07:13:37-05:00*
G04 #@! TF.ProjectId,artboard,61727462-6f61-4726-942e-6b696361645f,2.0*
G04 #@! TF.SameCoordinates,Original*
G04 #@! TF.FileFunction,Profile,NP*
%FSLAX46Y46*%
G04 Gerber Fmt 4.6, Leading zero omitted, Abs format (unit mm)*
G04 Created by KiCad (PCBNEW 5.1.9) date 2021-04-16 07:13:37*
%MOMM*%
%LPD*%
G01*
G04 APERTURE LIST*
G04 #@! TA.AperFunction,Profile*
%ADD10C,0.200000*%
G04 #@! TD*
G04 APERTURE END LIST*
D10*
X50583768Y-36929478D02*
X32518900Y-36916778D01*
X107086012Y-34181200D02*
X107086012Y-32680062D01*
X125584814Y-34679040D02*
X107583851Y-34679040D01*
X31907185Y-37417157D02*
X31890300Y-73822700D01*
X87583911Y-29929244D02*
X70583708Y-29929244D01*
X88084291Y-31679303D02*
X88084291Y-30429624D01*
X95785563Y-32179682D02*
X88584670Y-32179682D01*
X126085193Y-35179419D02*
X126085193Y-36429098D01*
X125752454Y-34709520D02*
X125584814Y-34679040D01*
X125884533Y-34780640D02*
X125752454Y-34709520D01*
X125983593Y-34879700D02*
X125884533Y-34780640D01*
X126054713Y-35009239D02*
X125983593Y-34879700D01*
X126085193Y-35179419D02*
X126054713Y-35009239D01*
X51084147Y-32680062D02*
X51084147Y-36429098D01*
X57886261Y-32179682D02*
X51584527Y-32179682D01*
X70085868Y-30429624D02*
X70083328Y-31679303D01*
X126085193Y-36429098D02*
X126086200Y-73835400D01*
X32224684Y-74328382D02*
X32423700Y-74368800D01*
X32095145Y-74259802D02*
X32224684Y-74328382D01*
X31993545Y-74158202D02*
X32095145Y-74259802D01*
X31922425Y-74028662D02*
X31993545Y-74158202D01*
X31890300Y-73822700D02*
X31922425Y-74028662D01*
X31935125Y-37249517D02*
X31907185Y-37417157D01*
X32006245Y-37119977D02*
X31935125Y-37249517D01*
X32105305Y-37018377D02*
X32006245Y-37119977D01*
X32234844Y-36947258D02*
X32105305Y-37018377D01*
X32518900Y-36916778D02*
X32234844Y-36947258D01*
X31907185Y-37417157D02*
X31907185Y-37417157D01*
X51056207Y-36599278D02*
X51084147Y-36431638D01*
X50985087Y-36728818D02*
X51056207Y-36599278D01*
X50886027Y-36830418D02*
X50985087Y-36728818D01*
X50756488Y-36901538D02*
X50886027Y-36830418D01*
X50583768Y-36929478D02*
X50756488Y-36901538D01*
X51084147Y-36431638D02*
X51084147Y-36429098D01*
X51114627Y-32512422D02*
X51084147Y-32680062D01*
X51183207Y-32382882D02*
X51114627Y-32512422D01*
X51284807Y-32281282D02*
X51183207Y-32382882D01*
X51414347Y-32210162D02*
X51284807Y-32281282D01*
X51584527Y-32179682D02*
X51414347Y-32210162D01*
X70055389Y-31849483D02*
X70085868Y-31679303D01*
X69986809Y-31979022D02*
X70055389Y-31849483D01*
X69885209Y-32080622D02*
X69986809Y-31979022D01*
X69755669Y-32151742D02*
X69885209Y-32080622D01*
X69585489Y-32179682D02*
X69755669Y-32151742D01*
X70085868Y-31679303D02*
X70085868Y-31679303D01*
X70113808Y-30261984D02*
X70085868Y-30429624D01*
X70184928Y-30132444D02*
X70113808Y-30261984D01*
X70283988Y-30030844D02*
X70184928Y-30132444D01*
X70413528Y-29959724D02*
X70283988Y-30030844D01*
X70583708Y-29929244D02*
X70413528Y-29959724D01*
X70085868Y-30429624D02*
X70085868Y-30429624D01*
X87754091Y-29959724D02*
X87583911Y-29929244D01*
X87883631Y-30028304D02*
X87754091Y-29959724D01*
X87985231Y-30129904D02*
X87883631Y-30028304D01*
X88056351Y-30259444D02*
X87985231Y-30129904D01*
X88084291Y-30429624D02*
X88056351Y-30259444D01*
X87583911Y-29929244D02*
X87583911Y-29929244D01*
X88417030Y-32151742D02*
X88584670Y-32179682D01*
X88284951Y-32080622D02*
X88417030Y-32151742D01*
X88185891Y-31981562D02*
X88284951Y-32080622D01*
X88114771Y-31852023D02*
X88185891Y-31981562D01*
X88084291Y-31679303D02*
X88114771Y-31852023D01*
X88584670Y-32179682D02*
X88584670Y-32179682D01*
X106753272Y-32210162D02*
X106585632Y-32179682D01*
X106882812Y-32278742D02*
X106753272Y-32210162D01*
X106984412Y-32380342D02*
X106882812Y-32278742D01*
X107055532Y-32509882D02*
X106984412Y-32380342D01*
X107086012Y-32680062D02*
X107055532Y-32509882D01*
X107416212Y-34651100D02*
X107583851Y-34679040D01*
X107286672Y-34579980D02*
X107416212Y-34651100D01*
X107185072Y-34480920D02*
X107286672Y-34579980D01*
X107113952Y-34351380D02*
X107185072Y-34480920D01*
X107086012Y-34181200D02*
X107113952Y-34351380D01*
X126058538Y-74039607D02*
X126086200Y-73835400D01*
X125987418Y-74169147D02*
X126058538Y-74039607D01*
X125888358Y-74270747D02*
X125987418Y-74169147D01*
X125758818Y-74339327D02*
X125888358Y-74270747D01*
X125586098Y-74369807D02*
X125758818Y-74339327D01*
X106585632Y-32179682D02*
X95785563Y-32179682D01*
X32423700Y-74368800D02*
X125586098Y-74369807D01*
X69585489Y-32179682D02*
X57886261Y-32179682D01*
M02*
