M48
; DRILL file {KiCad 5.1.9} date Fri Apr 16 07:13:40 2021
; FORMAT={-:-/ absolute / inch / decimal}
; #@! TF.CreationDate,2021-04-16T07:13:40-05:00
; #@! TF.GenerationSoftware,Kicad,Pcbnew,5.1.9
FMAT,2
INCH
T1C0.0118
T2C0.0157
T3C0.0197
T4C0.0315
T5C0.0320
T6C0.0472
T7C0.0354
T8C0.0669
T9C0.0709
T10C0.1929
%
G90
G05
T2
X2.9652Y-2.8853
X3.0612Y-2.7106
X3.286Y-2.8569
X3.4245Y-2.8554
X4.434Y-2.6434
X4.4873Y-2.6387
X4.4935Y-2.4734
X4.4991Y-2.2598
X4.5001Y-1.909
X4.5045Y-2.0129
X4.5115Y-2.1109
X4.5134Y-2.3598
X4.516Y-1.8844
X4.521Y-1.9844
X4.5225Y-1.7844
X4.5235Y-1.7544
X4.5245Y-1.4559
X4.527Y-1.5559
X4.5275Y-1.4844
X4.5285Y-1.5844
X4.5285Y-1.6844
X4.5375Y-2.2229
X4.6003Y-2.5097
X4.601Y-2.4559
X4.643Y-2.4769
X4.69Y-1.8844
X4.6935Y-1.9844
X4.704Y-2.0844
X4.7055Y-2.1844
X4.706Y-2.4384
X4.7065Y-2.2844
X4.7065Y-2.3844
X4.758Y-1.4249
T3
X4.563Y-2.5209
X4.563Y-2.6209
X4.644Y-2.5219
X4.644Y-2.6219
T4
X4.3175Y-2.7187
X4.3175Y-2.7974
T5
X4.2998Y-1.4894
X4.2998Y-1.5894
X4.2998Y-1.6894
X4.2998Y-1.7894
X4.2998Y-1.8894
X4.2998Y-1.9894
X4.2998Y-2.0894
X4.2998Y-2.1894
X4.2998Y-2.2894
X4.2998Y-2.3894
X4.2998Y-2.4894
X4.2998Y-2.5894
X4.447Y-2.8224
X4.547Y-2.8224
X4.647Y-2.8224
X4.747Y-2.8224
X4.899Y-1.4894
X4.899Y-1.5894
X4.899Y-1.6894
X4.899Y-1.7894
X4.899Y-1.8894
X4.899Y-1.9894
X4.899Y-2.0894
X4.899Y-2.1894
X4.899Y-2.2894
X4.899Y-2.3894
X4.899Y-2.4894
X4.899Y-2.5894
T6
X1.472Y-1.7094
X1.472Y-2.4594
X1.522Y-1.6094
X1.522Y-2.3594
X1.722Y-1.6094
X1.722Y-2.3594
X1.772Y-1.7094
X1.772Y-2.4594
X2.223Y-1.5329
X2.223Y-2.2829
X2.273Y-1.4329
X2.273Y-2.1829
X2.473Y-1.4329
X2.473Y-2.1829
X2.523Y-1.5329
X2.523Y-2.2829
X2.9735Y-1.4259
X2.9735Y-2.1759
X3.0235Y-1.3259
X3.0235Y-2.0759
X3.2235Y-1.3259
X3.2235Y-2.0759
X3.2735Y-1.4259
X3.2735Y-2.1759
X3.724Y-1.5329
X3.724Y-2.2829
X3.774Y-1.4329
X3.774Y-2.1829
X3.974Y-1.4329
X3.974Y-2.1829
X4.024Y-1.5329
X4.024Y-2.2829
T7
X2.9585Y-2.8334
X2.9585Y-2.8334
X3.0766Y-2.8334
X3.0766Y-2.8334
T8
X1.422Y-1.8094
X1.422Y-2.5594
X1.822Y-1.8094
X1.822Y-2.5594
X2.173Y-1.6329
X2.173Y-2.3829
X2.573Y-1.6329
X2.573Y-2.3829
X2.9235Y-1.5259
X2.9235Y-2.2759
X3.3235Y-1.5259
X3.3235Y-2.2759
X3.674Y-1.6329
X3.674Y-2.3829
X4.074Y-1.6329
X4.074Y-2.3829
T9
X1.4055Y-1.8094
X1.4055Y-2.5594
X1.8386Y-1.8094
X1.8386Y-2.5594
X2.1565Y-1.6329
X2.1565Y-2.3829
X2.5896Y-1.6329
X2.5896Y-2.3829
X2.907Y-1.5259
X2.907Y-2.2759
X3.3401Y-1.5259
X3.3401Y-2.2759
X3.6575Y-1.6329
X3.6575Y-2.3829
X4.0906Y-1.6329
X4.0906Y-2.3829
T10
X1.622Y-1.8094
X1.622Y-2.5594
X2.373Y-1.6329
X2.373Y-2.3829
X3.1235Y-1.5259
X3.1235Y-2.2759
X3.874Y-1.6329
X3.874Y-2.3829
T1
G00X1.439Y-1.591
M15
G01X1.4114Y-1.5908
M16
G05
G00X1.439Y-2.341
M15
G01X1.4114Y-2.3408
M16
G05
G00X1.6082Y-2.0417
M15
G01X1.6358Y-2.0417
M16
G05
G00X1.6082Y-2.7917
M15
G01X1.6358Y-2.7917
M16
G05
G00X1.8051Y-1.591
M15
G01X1.8327Y-1.5908
M16
G05
G00X1.8051Y-2.341
M15
G01X1.8327Y-2.3408
M16
G05
G00X2.19Y-1.4145
M15
G01X2.1624Y-1.4143
M16
G05
G00X2.19Y-2.1645
M15
G01X2.1624Y-2.1643
M16
G05
G00X2.3592Y-1.8652
M15
G01X2.3868Y-1.8652
M16
G05
G00X2.3592Y-2.6152
M15
G01X2.3868Y-2.6152
M16
G05
G00X2.5561Y-1.4145
M15
G01X2.5837Y-1.4143
M16
G05
G00X2.5561Y-2.1645
M15
G01X2.5837Y-2.1643
M16
G05
G00X2.9405Y-1.3075
M15
G01X2.9129Y-1.3073
M16
G05
G00X2.9405Y-2.0575
M15
G01X2.9129Y-2.0573
M16
G05
G00X3.1097Y-1.7582
M15
G01X3.1373Y-1.7582
M16
G05
G00X3.1097Y-2.5082
M15
G01X3.1373Y-2.5082
M16
G05
G00X3.3066Y-1.3075
M15
G01X3.3342Y-1.3073
M16
G05
G00X3.3066Y-2.0575
M15
G01X3.3342Y-2.0573
M16
G05
G00X3.691Y-1.4145
M15
G01X3.6634Y-1.4143
M16
G05
G00X3.691Y-2.1645
M15
G01X3.6634Y-2.1643
M16
G05
G00X3.8602Y-1.8652
M15
G01X3.8878Y-1.8652
M16
G05
G00X3.8602Y-2.6152
M15
G01X3.8878Y-2.6152
M16
G05
G00X4.0571Y-1.4145
M15
G01X4.0847Y-1.4143
M16
G05
G00X4.0571Y-2.1645
M15
G01X4.0847Y-2.1643
M16
G05
T2
G00X1.4094Y-1.9629
M15
G01X1.433Y-1.9629
M16
G05
G00X1.4094Y-2.7129
M15
G01X1.433Y-2.7129
M16
G05
G00X1.8346Y-1.9629
M15
G01X1.811Y-1.9629
M16
G05
G00X1.8346Y-2.7129
M15
G01X1.811Y-2.7129
M16
G05
G00X2.1604Y-1.7864
M15
G01X2.184Y-1.7864
M16
G05
G00X2.1604Y-2.5364
M15
G01X2.184Y-2.5364
M16
G05
G00X2.5856Y-1.7864
M15
G01X2.562Y-1.7864
M16
G05
G00X2.5856Y-2.5364
M15
G01X2.562Y-2.5364
M16
G05
G00X2.9109Y-1.6794
M15
G01X2.9345Y-1.6794
M16
G05
G00X2.9109Y-2.4294
M15
G01X2.9345Y-2.4294
M16
G05
G00X3.3361Y-1.6794
M15
G01X3.3125Y-1.6794
M16
G05
G00X3.3361Y-2.4294
M15
G01X3.3125Y-2.4294
M16
G05
G00X3.6614Y-1.7864
M15
G01X3.685Y-1.7864
M16
G05
G00X3.6614Y-2.5364
M15
G01X3.685Y-2.5364
M16
G05
G00X4.0866Y-1.7864
M15
G01X4.063Y-1.7864
M16
G05
G00X4.0866Y-2.5364
M15
G01X4.063Y-2.5364
M16
G05
T0
M30
