M48
; DRILL file {KiCad 5.1.9} date Wed Apr 21 20:38:50 2021
; FORMAT={-:-/ absolute / inch / decimal}
; #@! TF.CreationDate,2021-04-21T20:38:50-05:00
; #@! TF.GenerationSoftware,Kicad,Pcbnew,5.1.9
FMAT,2
INCH
T1C0.0118
T2C0.0157
T3C0.0197
T4C0.0315
T5C0.0320
T6C0.0354
T7C0.0748
T8C0.1181
T9C0.1969
%
G90
G05
T2
X1.6195Y-1.6539
X1.621Y-1.6089
X1.624Y-2.3564
X1.625Y-2.4009
X2.371Y-1.3604
X2.3715Y-1.3294
X2.3775Y-2.1089
X2.3805Y-2.0714
X3.1205Y-1.9689
X3.1205Y-2.0039
X3.1215Y-1.2514
X3.1221Y-1.2219
X3.869Y-2.0819
X3.8715Y-1.3539
X3.872Y-1.3229
X3.873Y-2.1104
X4.4898Y-1.7337
X4.4915Y-2.1014
X4.4975Y-2.0064
X4.501Y-1.8715
X4.5223Y-2.1612
X4.5313Y-2.2457
X4.5599Y-1.5703
X4.5648Y-2.2532
X4.5688Y-2.4702
X4.5945Y-2.7089
X4.6325Y-2.0969
X4.663Y-2.0259
X4.678Y-2.4119
X4.689Y-2.1459
X4.69Y-2.0715
X4.6912Y-2.4455
X4.693Y-1.9715
X4.696Y-2.2074
X4.6976Y-1.7715
X4.7008Y-1.4687
X4.8114Y-2.777
X4.8485Y-1.9279
X4.8488Y-1.7337
X4.9069Y-2.8725
X4.9543Y-2.7526
T3
X4.563Y-2.5635
X4.563Y-2.6635
X4.644Y-2.5645
X4.644Y-2.6645
T4
X4.8405Y-1.4495
X4.9193Y-1.4495
T5
X4.2987Y-1.5765
X4.2987Y-1.6765
X4.2987Y-1.7765
X4.2987Y-1.8765
X4.2987Y-1.9765
X4.2987Y-2.0765
X4.2987Y-2.1765
X4.2987Y-2.2765
X4.2987Y-2.3765
X4.2987Y-2.4765
X4.2987Y-2.5765
X4.2987Y-2.6765
X4.4485Y-2.848
X4.5485Y-2.848
X4.6485Y-2.848
X4.7485Y-2.848
X4.898Y-1.5765
X4.898Y-1.6765
X4.898Y-1.7765
X4.898Y-1.8765
X4.898Y-1.9765
X4.898Y-2.0765
X4.898Y-2.1765
X4.898Y-2.2765
X4.898Y-2.3765
X4.898Y-2.4765
X4.898Y-2.5765
X4.898Y-2.6765
T6
X4.538Y-1.454
X4.538Y-1.454
X4.6561Y-1.454
X4.6561Y-1.454
T7
X1.4055Y-1.9275
X1.4055Y-2.6775
X1.8386Y-1.9275
X1.8386Y-2.6775
X2.1565Y-1.6329
X2.1565Y-2.3829
X2.5896Y-1.6329
X2.5896Y-2.3829
X2.907Y-1.5259
X2.907Y-2.2759
X3.3401Y-1.5259
X3.3401Y-2.2759
X3.6575Y-1.6329
X3.6575Y-2.3829
X4.0906Y-1.6329
X4.0906Y-2.3829
T8
X1.4252Y-2.0732
X1.4252Y-2.8232
X1.472Y-1.8275
X1.472Y-2.5775
X1.522Y-1.7275
X1.522Y-2.4775
X1.622Y-2.1598
X1.622Y-2.9098
X1.722Y-1.7275
X1.722Y-2.4775
X1.772Y-1.8275
X1.772Y-2.5775
X1.8189Y-2.0732
X1.8189Y-2.8232
X2.1762Y-1.7786
X2.1762Y-2.5286
X2.223Y-1.5329
X2.223Y-2.2829
X2.273Y-1.4329
X2.273Y-2.1829
X2.373Y-1.8652
X2.373Y-2.6152
X2.473Y-1.4329
X2.473Y-2.1829
X2.523Y-1.5329
X2.523Y-2.2829
X2.5699Y-1.7786
X2.5699Y-2.5286
X2.9267Y-1.6716
X2.9267Y-2.4216
X2.9735Y-1.4259
X2.9735Y-2.1759
X3.0235Y-1.3259
X3.0235Y-2.0759
X3.1235Y-1.7582
X3.1235Y-2.5082
X3.2235Y-1.3259
X3.2235Y-2.0759
X3.2735Y-1.4259
X3.2735Y-2.1759
X3.3204Y-1.6716
X3.3204Y-2.4216
X3.6772Y-1.7786
X3.6772Y-2.5286
X3.724Y-1.5329
X3.724Y-2.2829
X3.774Y-1.4329
X3.774Y-2.1829
X3.874Y-1.8652
X3.874Y-2.6152
X3.974Y-1.4329
X3.974Y-2.1829
X4.024Y-1.5329
X4.024Y-2.2829
X4.0709Y-1.7786
X4.0709Y-2.5286
T9
X1.622Y-1.9275
X1.622Y-2.6775
X2.373Y-1.6329
X2.373Y-2.3829
X3.1235Y-1.5259
X3.1235Y-2.2759
X3.874Y-1.6329
X3.874Y-2.3829
T1
G00X1.4173Y-1.7307
M15
G01X1.3897Y-1.7307
M16
G05
G00X1.4173Y-2.4807
M15
G01X1.3897Y-2.4807
M16
G05
G00X1.8543Y-1.7307
M15
G01X1.8267Y-1.7307
M16
G05
G00X1.8543Y-2.4807
M15
G01X1.8267Y-2.4807
M16
G05
G00X2.1683Y-1.4361
M15
G01X2.1407Y-1.4361
M16
G05
G00X2.1683Y-2.1861
M15
G01X2.1407Y-2.1861
M16
G05
G00X2.6053Y-1.4361
M15
G01X2.5777Y-1.4361
M16
G05
G00X2.6053Y-2.1861
M15
G01X2.5777Y-2.1861
M16
G05
G00X2.9188Y-1.3291
M15
G01X2.8912Y-1.3291
M16
G05
G00X2.9188Y-2.0791
M15
G01X2.8912Y-2.0791
M16
G05
G00X3.3558Y-1.3291
M15
G01X3.3282Y-1.3291
M16
G05
G00X3.3558Y-2.0791
M15
G01X3.3282Y-2.0791
M16
G05
G00X3.6693Y-1.4361
M15
G01X3.6417Y-1.4361
M16
G05
G00X3.6693Y-2.1861
M15
G01X3.6417Y-2.1861
M16
G05
G00X4.1063Y-1.4361
M15
G01X4.0787Y-1.4361
M16
G05
G00X4.1063Y-2.1861
M15
G01X4.0787Y-2.1861
M16
G05
T0
M30
