G04 #@! TF.GenerationSoftware,KiCad,Pcbnew,5.1.9*
G04 #@! TF.CreationDate,2021-04-21T20:38:48-05:00*
G04 #@! TF.ProjectId,artboard,61727462-6f61-4726-942e-6b696361645f,0.1*
G04 #@! TF.SameCoordinates,Original*
G04 #@! TF.FileFunction,Copper,L2,Bot*
G04 #@! TF.FilePolarity,Positive*
%FSLAX46Y46*%
G04 Gerber Fmt 4.6, Leading zero omitted, Abs format (unit mm)*
G04 Created by KiCad (PCBNEW 5.1.9) date 2021-04-21 20:38:48*
%MOMM*%
%LPD*%
G01*
G04 APERTURE LIST*
G04 #@! TA.AperFunction,NonConductor*
%ADD10C,0.300000*%
G04 #@! TD*
G04 #@! TA.AperFunction,EtchedComponent*
%ADD11C,0.100000*%
G04 #@! TD*
G04 #@! TA.AperFunction,SMDPad,CuDef*
%ADD12R,2.600000X2.600000*%
G04 #@! TD*
G04 #@! TA.AperFunction,ComponentPad*
%ADD13O,2.200000X1.500000*%
G04 #@! TD*
G04 #@! TA.AperFunction,SMDPad,CuDef*
%ADD14C,0.100000*%
G04 #@! TD*
G04 #@! TA.AperFunction,ComponentPad*
%ADD15C,1.524000*%
G04 #@! TD*
G04 #@! TA.AperFunction,ComponentPad*
%ADD16C,0.750000*%
G04 #@! TD*
G04 #@! TA.AperFunction,SMDPad,CuDef*
%ADD17R,1.700000X0.900000*%
G04 #@! TD*
G04 #@! TA.AperFunction,SMDPad,CuDef*
%ADD18R,0.700000X1.500000*%
G04 #@! TD*
G04 #@! TA.AperFunction,SMDPad,CuDef*
%ADD19R,1.000000X0.800000*%
G04 #@! TD*
G04 #@! TA.AperFunction,SMDPad,CuDef*
%ADD20R,1.143000X0.635000*%
G04 #@! TD*
G04 #@! TA.AperFunction,ComponentPad*
%ADD21C,1.397000*%
G04 #@! TD*
G04 #@! TA.AperFunction,ComponentPad*
%ADD22R,1.350000X1.350000*%
G04 #@! TD*
G04 #@! TA.AperFunction,ComponentPad*
%ADD23O,1.350000X1.350000*%
G04 #@! TD*
G04 #@! TA.AperFunction,ViaPad*
%ADD24C,0.600000*%
G04 #@! TD*
G04 #@! TA.AperFunction,Conductor*
%ADD25C,0.250000*%
G04 #@! TD*
G04 #@! TA.AperFunction,Conductor*
%ADD26C,0.500000*%
G04 #@! TD*
G04 APERTURE END LIST*
D10*
X84172471Y-73158300D02*
X83458185Y-73158300D01*
X84315328Y-73586871D02*
X83815328Y-72086871D01*
X83315328Y-73586871D01*
X82815328Y-73586871D02*
X82815328Y-72586871D01*
X82815328Y-72872585D02*
X82743900Y-72729728D01*
X82672471Y-72658300D01*
X82529614Y-72586871D01*
X82386757Y-72586871D01*
X82101042Y-72586871D02*
X81529614Y-72586871D01*
X81886757Y-72086871D02*
X81886757Y-73372585D01*
X81815328Y-73515442D01*
X81672471Y-73586871D01*
X81529614Y-73586871D01*
X81029614Y-73586871D02*
X81029614Y-72086871D01*
X81029614Y-72658300D02*
X80886757Y-72586871D01*
X80601042Y-72586871D01*
X80458185Y-72658300D01*
X80386757Y-72729728D01*
X80315328Y-72872585D01*
X80315328Y-73301157D01*
X80386757Y-73444014D01*
X80458185Y-73515442D01*
X80601042Y-73586871D01*
X80886757Y-73586871D01*
X81029614Y-73515442D01*
X79458185Y-73586871D02*
X79601042Y-73515442D01*
X79672471Y-73444014D01*
X79743900Y-73301157D01*
X79743900Y-72872585D01*
X79672471Y-72729728D01*
X79601042Y-72658300D01*
X79458185Y-72586871D01*
X79243900Y-72586871D01*
X79101042Y-72658300D01*
X79029614Y-72729728D01*
X78958185Y-72872585D01*
X78958185Y-73301157D01*
X79029614Y-73444014D01*
X79101042Y-73515442D01*
X79243900Y-73586871D01*
X79458185Y-73586871D01*
X77672471Y-73586871D02*
X77672471Y-72801157D01*
X77743900Y-72658300D01*
X77886757Y-72586871D01*
X78172471Y-72586871D01*
X78315328Y-72658300D01*
X77672471Y-73515442D02*
X77815328Y-73586871D01*
X78172471Y-73586871D01*
X78315328Y-73515442D01*
X78386757Y-73372585D01*
X78386757Y-73229728D01*
X78315328Y-73086871D01*
X78172471Y-73015442D01*
X77815328Y-73015442D01*
X77672471Y-72944014D01*
X76958185Y-73586871D02*
X76958185Y-72586871D01*
X76958185Y-72872585D02*
X76886757Y-72729728D01*
X76815328Y-72658300D01*
X76672471Y-72586871D01*
X76529614Y-72586871D01*
X75386757Y-73586871D02*
X75386757Y-72086871D01*
X75386757Y-73515442D02*
X75529614Y-73586871D01*
X75815328Y-73586871D01*
X75958185Y-73515442D01*
X76029614Y-73444014D01*
X76101042Y-73301157D01*
X76101042Y-72872585D01*
X76029614Y-72729728D01*
X75958185Y-72658300D01*
X75815328Y-72586871D01*
X75529614Y-72586871D01*
X75386757Y-72658300D01*
D11*
G36*
X124371700Y-68109400D02*
G01*
X121831700Y-68109400D01*
X121831700Y-67728400D01*
X124371700Y-67728400D01*
X124371700Y-68109400D01*
G37*
X124371700Y-68109400D02*
X121831700Y-68109400D01*
X121831700Y-67728400D01*
X124371700Y-67728400D01*
X124371700Y-68109400D01*
G36*
X124371700Y-65569400D02*
G01*
X121831700Y-65569400D01*
X121831700Y-65188400D01*
X124371700Y-65188400D01*
X124371700Y-65569400D01*
G37*
X124371700Y-65569400D02*
X121831700Y-65569400D01*
X121831700Y-65188400D01*
X124371700Y-65188400D01*
X124371700Y-65569400D01*
G36*
X124371700Y-63029400D02*
G01*
X121831700Y-63029400D01*
X121831700Y-62648400D01*
X124371700Y-62648400D01*
X124371700Y-63029400D01*
G37*
X124371700Y-63029400D02*
X121831700Y-63029400D01*
X121831700Y-62648400D01*
X124371700Y-62648400D01*
X124371700Y-63029400D01*
G36*
X124371700Y-60489400D02*
G01*
X121831700Y-60489400D01*
X121831700Y-60108400D01*
X124371700Y-60108400D01*
X124371700Y-60489400D01*
G37*
X124371700Y-60489400D02*
X121831700Y-60489400D01*
X121831700Y-60108400D01*
X124371700Y-60108400D01*
X124371700Y-60489400D01*
G36*
X124371700Y-57949400D02*
G01*
X121831700Y-57949400D01*
X121831700Y-57568400D01*
X124371700Y-57568400D01*
X124371700Y-57949400D01*
G37*
X124371700Y-57949400D02*
X121831700Y-57949400D01*
X121831700Y-57568400D01*
X124371700Y-57568400D01*
X124371700Y-57949400D01*
G36*
X124371700Y-55409400D02*
G01*
X121831700Y-55409400D01*
X121831700Y-55028400D01*
X124371700Y-55028400D01*
X124371700Y-55409400D01*
G37*
X124371700Y-55409400D02*
X121831700Y-55409400D01*
X121831700Y-55028400D01*
X124371700Y-55028400D01*
X124371700Y-55409400D01*
G36*
X124371700Y-52869400D02*
G01*
X121831700Y-52869400D01*
X121831700Y-52488400D01*
X124371700Y-52488400D01*
X124371700Y-52869400D01*
G37*
X124371700Y-52869400D02*
X121831700Y-52869400D01*
X121831700Y-52488400D01*
X124371700Y-52488400D01*
X124371700Y-52869400D01*
G36*
X124371700Y-50329400D02*
G01*
X121831700Y-50329400D01*
X121831700Y-49948400D01*
X124371700Y-49948400D01*
X124371700Y-50329400D01*
G37*
X124371700Y-50329400D02*
X121831700Y-50329400D01*
X121831700Y-49948400D01*
X124371700Y-49948400D01*
X124371700Y-50329400D01*
G36*
X124371700Y-47789400D02*
G01*
X121831700Y-47789400D01*
X121831700Y-47408400D01*
X124371700Y-47408400D01*
X124371700Y-47789400D01*
G37*
X124371700Y-47789400D02*
X121831700Y-47789400D01*
X121831700Y-47408400D01*
X124371700Y-47408400D01*
X124371700Y-47789400D01*
G36*
X124371700Y-45249400D02*
G01*
X121831700Y-45249400D01*
X121831700Y-44868400D01*
X124371700Y-44868400D01*
X124371700Y-45249400D01*
G37*
X124371700Y-45249400D02*
X121831700Y-45249400D01*
X121831700Y-44868400D01*
X124371700Y-44868400D01*
X124371700Y-45249400D01*
G36*
X124371700Y-42709400D02*
G01*
X121831700Y-42709400D01*
X121831700Y-42328400D01*
X124371700Y-42328400D01*
X124371700Y-42709400D01*
G37*
X124371700Y-42709400D02*
X121831700Y-42709400D01*
X121831700Y-42328400D01*
X124371700Y-42328400D01*
X124371700Y-42709400D01*
G36*
X124371700Y-40169400D02*
G01*
X121831700Y-40169400D01*
X121831700Y-39788400D01*
X124371700Y-39788400D01*
X124371700Y-40169400D01*
G37*
X124371700Y-40169400D02*
X121831700Y-40169400D01*
X121831700Y-39788400D01*
X124371700Y-39788400D01*
X124371700Y-40169400D01*
G36*
X111671700Y-68109400D02*
G01*
X109131700Y-68109400D01*
X109131700Y-67728400D01*
X111671700Y-67728400D01*
X111671700Y-68109400D01*
G37*
X111671700Y-68109400D02*
X109131700Y-68109400D01*
X109131700Y-67728400D01*
X111671700Y-67728400D01*
X111671700Y-68109400D01*
G36*
X111671700Y-65569400D02*
G01*
X109131700Y-65569400D01*
X109131700Y-65188400D01*
X111671700Y-65188400D01*
X111671700Y-65569400D01*
G37*
X111671700Y-65569400D02*
X109131700Y-65569400D01*
X109131700Y-65188400D01*
X111671700Y-65188400D01*
X111671700Y-65569400D01*
G36*
X111671700Y-63029400D02*
G01*
X109131700Y-63029400D01*
X109131700Y-62648400D01*
X111671700Y-62648400D01*
X111671700Y-63029400D01*
G37*
X111671700Y-63029400D02*
X109131700Y-63029400D01*
X109131700Y-62648400D01*
X111671700Y-62648400D01*
X111671700Y-63029400D01*
G36*
X111671700Y-60489400D02*
G01*
X109131700Y-60489400D01*
X109131700Y-60108400D01*
X111671700Y-60108400D01*
X111671700Y-60489400D01*
G37*
X111671700Y-60489400D02*
X109131700Y-60489400D01*
X109131700Y-60108400D01*
X111671700Y-60108400D01*
X111671700Y-60489400D01*
G36*
X111671700Y-57949400D02*
G01*
X109131700Y-57949400D01*
X109131700Y-57568400D01*
X111671700Y-57568400D01*
X111671700Y-57949400D01*
G37*
X111671700Y-57949400D02*
X109131700Y-57949400D01*
X109131700Y-57568400D01*
X111671700Y-57568400D01*
X111671700Y-57949400D01*
G36*
X111671700Y-55409400D02*
G01*
X109131700Y-55409400D01*
X109131700Y-55028400D01*
X111671700Y-55028400D01*
X111671700Y-55409400D01*
G37*
X111671700Y-55409400D02*
X109131700Y-55409400D01*
X109131700Y-55028400D01*
X111671700Y-55028400D01*
X111671700Y-55409400D01*
G36*
X111671700Y-52869400D02*
G01*
X109131700Y-52869400D01*
X109131700Y-52488400D01*
X111671700Y-52488400D01*
X111671700Y-52869400D01*
G37*
X111671700Y-52869400D02*
X109131700Y-52869400D01*
X109131700Y-52488400D01*
X111671700Y-52488400D01*
X111671700Y-52869400D01*
G36*
X111671700Y-50329400D02*
G01*
X109131700Y-50329400D01*
X109131700Y-49948400D01*
X111671700Y-49948400D01*
X111671700Y-50329400D01*
G37*
X111671700Y-50329400D02*
X109131700Y-50329400D01*
X109131700Y-49948400D01*
X111671700Y-49948400D01*
X111671700Y-50329400D01*
G36*
X111671700Y-45249400D02*
G01*
X109131700Y-45249400D01*
X109131700Y-44868400D01*
X111671700Y-44868400D01*
X111671700Y-45249400D01*
G37*
X111671700Y-45249400D02*
X109131700Y-45249400D01*
X109131700Y-44868400D01*
X111671700Y-44868400D01*
X111671700Y-45249400D01*
G36*
X111671700Y-47789400D02*
G01*
X109131700Y-47789400D01*
X109131700Y-47408400D01*
X111671700Y-47408400D01*
X111671700Y-47789400D01*
G37*
X111671700Y-47789400D02*
X109131700Y-47789400D01*
X109131700Y-47408400D01*
X111671700Y-47408400D01*
X111671700Y-47789400D01*
G36*
X111671700Y-42709400D02*
G01*
X109131700Y-42709400D01*
X109131700Y-42328400D01*
X111671700Y-42328400D01*
X111671700Y-42709400D01*
G37*
X111671700Y-42709400D02*
X109131700Y-42709400D01*
X109131700Y-42328400D01*
X111671700Y-42328400D01*
X111671700Y-42709400D01*
G36*
X111671700Y-40169400D02*
G01*
X109131700Y-40169400D01*
X109131700Y-39788400D01*
X111671700Y-39788400D01*
X111671700Y-40169400D01*
G37*
X111671700Y-40169400D02*
X109131700Y-40169400D01*
X109131700Y-39788400D01*
X111671700Y-39788400D01*
X111671700Y-40169400D01*
D12*
X85627500Y-52728000D03*
X71777500Y-55268000D03*
X82637500Y-63708000D03*
X71037500Y-61508000D03*
D13*
X84887500Y-52808000D03*
X73787500Y-52808000D03*
D12*
X47489400Y-43878900D03*
X33639400Y-46418900D03*
X44499400Y-54858900D03*
X32899400Y-52658900D03*
D13*
X46749400Y-43958900D03*
X35649400Y-43958900D03*
D12*
X66564800Y-36395800D03*
X52714800Y-38935800D03*
X63574800Y-47375800D03*
X51974800Y-45175800D03*
D13*
X65824800Y-36475800D03*
X54724800Y-36475800D03*
D12*
X85627500Y-33678000D03*
X71777500Y-36218000D03*
X82637500Y-44658000D03*
X71037500Y-42458000D03*
D13*
X84887500Y-33758000D03*
X73787500Y-33758000D03*
D12*
X47489400Y-62928900D03*
X33639400Y-65468900D03*
X44499400Y-73908900D03*
X32899400Y-71708900D03*
D13*
X46749400Y-63008900D03*
X35649400Y-63008900D03*
D12*
X66564800Y-55445800D03*
X52714800Y-57985800D03*
X63574800Y-66425800D03*
X51974800Y-64225800D03*
D13*
X65824800Y-55525800D03*
X54724800Y-55525800D03*
D12*
X104690200Y-55445800D03*
X90840200Y-57985800D03*
X101700200Y-66425800D03*
X90100200Y-64225800D03*
D13*
X103950200Y-55525800D03*
X92850200Y-55525800D03*
D12*
X104690200Y-36395800D03*
X90840200Y-38935800D03*
X101700200Y-47375800D03*
X90100200Y-45175800D03*
D13*
X103950200Y-36475800D03*
X92850200Y-36475800D03*
G04 #@! TA.AperFunction,SMDPad,CuDef*
D14*
G36*
X111171700Y-53115400D02*
G01*
X111171700Y-52115400D01*
X112171700Y-52115400D01*
X112171700Y-53115400D01*
X111171700Y-53115400D01*
G37*
G04 #@! TD.AperFunction*
G04 #@! TA.AperFunction,SMDPad,CuDef*
G36*
X121331700Y-53115400D02*
G01*
X121331700Y-52115400D01*
X122331700Y-52115400D01*
X122331700Y-53115400D01*
X121331700Y-53115400D01*
G37*
G04 #@! TD.AperFunction*
G04 #@! TA.AperFunction,SMDPad,CuDef*
G36*
X112441700Y-40415400D02*
G01*
X112441700Y-39415400D01*
X113441700Y-39415400D01*
X113441700Y-40415400D01*
X112441700Y-40415400D01*
G37*
G04 #@! TD.AperFunction*
G04 #@! TA.AperFunction,SMDPad,CuDef*
G36*
X120061700Y-65815400D02*
G01*
X120061700Y-64815400D01*
X121061700Y-64815400D01*
X121061700Y-65815400D01*
X120061700Y-65815400D01*
G37*
G04 #@! TD.AperFunction*
G04 #@! TA.AperFunction,SMDPad,CuDef*
G36*
X111171700Y-68355400D02*
G01*
X111171700Y-67355400D01*
X112171700Y-67355400D01*
X112171700Y-68355400D01*
X111171700Y-68355400D01*
G37*
G04 #@! TD.AperFunction*
G04 #@! TA.AperFunction,SMDPad,CuDef*
G36*
X111171700Y-55655400D02*
G01*
X111171700Y-54655400D01*
X112171700Y-54655400D01*
X112171700Y-55655400D01*
X111171700Y-55655400D01*
G37*
G04 #@! TD.AperFunction*
G04 #@! TA.AperFunction,SMDPad,CuDef*
G36*
X112441700Y-48035400D02*
G01*
X112441700Y-47035400D01*
X113441700Y-47035400D01*
X113441700Y-48035400D01*
X112441700Y-48035400D01*
G37*
G04 #@! TD.AperFunction*
G04 #@! TA.AperFunction,SMDPad,CuDef*
G36*
X121331700Y-48035400D02*
G01*
X121331700Y-47035400D01*
X122331700Y-47035400D01*
X122331700Y-48035400D01*
X121331700Y-48035400D01*
G37*
G04 #@! TD.AperFunction*
G04 #@! TA.AperFunction,SMDPad,CuDef*
G36*
X121331700Y-60735400D02*
G01*
X121331700Y-59735400D01*
X122331700Y-59735400D01*
X122331700Y-60735400D01*
X121331700Y-60735400D01*
G37*
G04 #@! TD.AperFunction*
G04 #@! TA.AperFunction,SMDPad,CuDef*
G36*
X121331700Y-68355400D02*
G01*
X121331700Y-67355400D01*
X122331700Y-67355400D01*
X122331700Y-68355400D01*
X121331700Y-68355400D01*
G37*
G04 #@! TD.AperFunction*
G04 #@! TA.AperFunction,SMDPad,CuDef*
G36*
X120061700Y-50575400D02*
G01*
X120061700Y-49575400D01*
X121061700Y-49575400D01*
X121061700Y-50575400D01*
X120061700Y-50575400D01*
G37*
G04 #@! TD.AperFunction*
G04 #@! TA.AperFunction,SMDPad,CuDef*
G36*
X112441700Y-65815400D02*
G01*
X112441700Y-64815400D01*
X113441700Y-64815400D01*
X113441700Y-65815400D01*
X112441700Y-65815400D01*
G37*
G04 #@! TD.AperFunction*
G04 #@! TA.AperFunction,SMDPad,CuDef*
G36*
X121331700Y-50575400D02*
G01*
X121331700Y-49575400D01*
X122331700Y-49575400D01*
X122331700Y-50575400D01*
X121331700Y-50575400D01*
G37*
G04 #@! TD.AperFunction*
G04 #@! TA.AperFunction,SMDPad,CuDef*
G36*
X111171700Y-48035400D02*
G01*
X111171700Y-47035400D01*
X112171700Y-47035400D01*
X112171700Y-48035400D01*
X111171700Y-48035400D01*
G37*
G04 #@! TD.AperFunction*
G04 #@! TA.AperFunction,SMDPad,CuDef*
G36*
X111171700Y-45495400D02*
G01*
X111171700Y-44495400D01*
X112171700Y-44495400D01*
X112171700Y-45495400D01*
X111171700Y-45495400D01*
G37*
G04 #@! TD.AperFunction*
G04 #@! TA.AperFunction,SMDPad,CuDef*
G36*
X121331700Y-42955400D02*
G01*
X121331700Y-41955400D01*
X122331700Y-41955400D01*
X122331700Y-42955400D01*
X121331700Y-42955400D01*
G37*
G04 #@! TD.AperFunction*
G04 #@! TA.AperFunction,SMDPad,CuDef*
G36*
X112441700Y-42955400D02*
G01*
X112441700Y-41955400D01*
X113441700Y-41955400D01*
X113441700Y-42955400D01*
X112441700Y-42955400D01*
G37*
G04 #@! TD.AperFunction*
G04 #@! TA.AperFunction,SMDPad,CuDef*
G36*
X121331700Y-45495400D02*
G01*
X121331700Y-44495400D01*
X122331700Y-44495400D01*
X122331700Y-45495400D01*
X121331700Y-45495400D01*
G37*
G04 #@! TD.AperFunction*
G04 #@! TA.AperFunction,SMDPad,CuDef*
G36*
X121331700Y-55655400D02*
G01*
X121331700Y-54655400D01*
X122331700Y-54655400D01*
X122331700Y-55655400D01*
X121331700Y-55655400D01*
G37*
G04 #@! TD.AperFunction*
G04 #@! TA.AperFunction,SMDPad,CuDef*
G36*
X121331700Y-63275400D02*
G01*
X121331700Y-62275400D01*
X122331700Y-62275400D01*
X122331700Y-63275400D01*
X121331700Y-63275400D01*
G37*
G04 #@! TD.AperFunction*
G04 #@! TA.AperFunction,SMDPad,CuDef*
G36*
X112441700Y-55655400D02*
G01*
X112441700Y-54655400D01*
X113441700Y-54655400D01*
X113441700Y-55655400D01*
X112441700Y-55655400D01*
G37*
G04 #@! TD.AperFunction*
G04 #@! TA.AperFunction,SMDPad,CuDef*
G36*
X120061700Y-48035400D02*
G01*
X120061700Y-47035400D01*
X121061700Y-47035400D01*
X121061700Y-48035400D01*
X120061700Y-48035400D01*
G37*
G04 #@! TD.AperFunction*
G04 #@! TA.AperFunction,SMDPad,CuDef*
G36*
X111171700Y-63275400D02*
G01*
X111171700Y-62275400D01*
X112171700Y-62275400D01*
X112171700Y-63275400D01*
X111171700Y-63275400D01*
G37*
G04 #@! TD.AperFunction*
G04 #@! TA.AperFunction,SMDPad,CuDef*
G36*
X120061700Y-68355400D02*
G01*
X120061700Y-67355400D01*
X121061700Y-67355400D01*
X121061700Y-68355400D01*
X120061700Y-68355400D01*
G37*
G04 #@! TD.AperFunction*
G04 #@! TA.AperFunction,SMDPad,CuDef*
G36*
X120061700Y-53115400D02*
G01*
X120061700Y-52115400D01*
X121061700Y-52115400D01*
X121061700Y-53115400D01*
X120061700Y-53115400D01*
G37*
G04 #@! TD.AperFunction*
G04 #@! TA.AperFunction,SMDPad,CuDef*
G36*
X120061700Y-58195400D02*
G01*
X120061700Y-57195400D01*
X121061700Y-57195400D01*
X121061700Y-58195400D01*
X120061700Y-58195400D01*
G37*
G04 #@! TD.AperFunction*
G04 #@! TA.AperFunction,SMDPad,CuDef*
G36*
X121331700Y-58195400D02*
G01*
X121331700Y-57195400D01*
X122331700Y-57195400D01*
X122331700Y-58195400D01*
X121331700Y-58195400D01*
G37*
G04 #@! TD.AperFunction*
G04 #@! TA.AperFunction,SMDPad,CuDef*
G36*
X112441700Y-63275400D02*
G01*
X112441700Y-62275400D01*
X113441700Y-62275400D01*
X113441700Y-63275400D01*
X112441700Y-63275400D01*
G37*
G04 #@! TD.AperFunction*
G04 #@! TA.AperFunction,SMDPad,CuDef*
G36*
X121331700Y-40415400D02*
G01*
X121331700Y-39415400D01*
X122331700Y-39415400D01*
X122331700Y-40415400D01*
X121331700Y-40415400D01*
G37*
G04 #@! TD.AperFunction*
G04 #@! TA.AperFunction,SMDPad,CuDef*
G36*
X120061700Y-60735400D02*
G01*
X120061700Y-59735400D01*
X121061700Y-59735400D01*
X121061700Y-60735400D01*
X120061700Y-60735400D01*
G37*
G04 #@! TD.AperFunction*
G04 #@! TA.AperFunction,SMDPad,CuDef*
G36*
X120061700Y-55655400D02*
G01*
X120061700Y-54655400D01*
X121061700Y-54655400D01*
X121061700Y-55655400D01*
X120061700Y-55655400D01*
G37*
G04 #@! TD.AperFunction*
G04 #@! TA.AperFunction,SMDPad,CuDef*
G36*
X120061700Y-40415400D02*
G01*
X120061700Y-39415400D01*
X121061700Y-39415400D01*
X121061700Y-40415400D01*
X120061700Y-40415400D01*
G37*
G04 #@! TD.AperFunction*
G04 #@! TA.AperFunction,SMDPad,CuDef*
G36*
X112441700Y-68355400D02*
G01*
X112441700Y-67355400D01*
X113441700Y-67355400D01*
X113441700Y-68355400D01*
X112441700Y-68355400D01*
G37*
G04 #@! TD.AperFunction*
G04 #@! TA.AperFunction,SMDPad,CuDef*
G36*
X111171700Y-50575400D02*
G01*
X111171700Y-49575400D01*
X112171700Y-49575400D01*
X112171700Y-50575400D01*
X111171700Y-50575400D01*
G37*
G04 #@! TD.AperFunction*
G04 #@! TA.AperFunction,SMDPad,CuDef*
G36*
X120061700Y-45495400D02*
G01*
X120061700Y-44495400D01*
X121061700Y-44495400D01*
X121061700Y-45495400D01*
X120061700Y-45495400D01*
G37*
G04 #@! TD.AperFunction*
G04 #@! TA.AperFunction,SMDPad,CuDef*
G36*
X120061700Y-63275400D02*
G01*
X120061700Y-62275400D01*
X121061700Y-62275400D01*
X121061700Y-63275400D01*
X120061700Y-63275400D01*
G37*
G04 #@! TD.AperFunction*
G04 #@! TA.AperFunction,SMDPad,CuDef*
G36*
X112441700Y-60735400D02*
G01*
X112441700Y-59735400D01*
X113441700Y-59735400D01*
X113441700Y-60735400D01*
X112441700Y-60735400D01*
G37*
G04 #@! TD.AperFunction*
G04 #@! TA.AperFunction,SMDPad,CuDef*
G36*
X111171700Y-42955400D02*
G01*
X111171700Y-41955400D01*
X112171700Y-41955400D01*
X112171700Y-42955400D01*
X111171700Y-42955400D01*
G37*
G04 #@! TD.AperFunction*
G04 #@! TA.AperFunction,SMDPad,CuDef*
G36*
X111171700Y-40415400D02*
G01*
X111171700Y-39415400D01*
X112171700Y-39415400D01*
X112171700Y-40415400D01*
X111171700Y-40415400D01*
G37*
G04 #@! TD.AperFunction*
G04 #@! TA.AperFunction,SMDPad,CuDef*
G36*
X112441700Y-53115400D02*
G01*
X112441700Y-52115400D01*
X113441700Y-52115400D01*
X113441700Y-53115400D01*
X112441700Y-53115400D01*
G37*
G04 #@! TD.AperFunction*
G04 #@! TA.AperFunction,SMDPad,CuDef*
G36*
X120061700Y-42955400D02*
G01*
X120061700Y-41955400D01*
X121061700Y-41955400D01*
X121061700Y-42955400D01*
X120061700Y-42955400D01*
G37*
G04 #@! TD.AperFunction*
G04 #@! TA.AperFunction,SMDPad,CuDef*
G36*
X111171700Y-65815400D02*
G01*
X111171700Y-64815400D01*
X112171700Y-64815400D01*
X112171700Y-65815400D01*
X111171700Y-65815400D01*
G37*
G04 #@! TD.AperFunction*
G04 #@! TA.AperFunction,SMDPad,CuDef*
G36*
X112441700Y-58195400D02*
G01*
X112441700Y-57195400D01*
X113441700Y-57195400D01*
X113441700Y-58195400D01*
X112441700Y-58195400D01*
G37*
G04 #@! TD.AperFunction*
G04 #@! TA.AperFunction,SMDPad,CuDef*
G36*
X111171700Y-60735400D02*
G01*
X111171700Y-59735400D01*
X112171700Y-59735400D01*
X112171700Y-60735400D01*
X111171700Y-60735400D01*
G37*
G04 #@! TD.AperFunction*
G04 #@! TA.AperFunction,SMDPad,CuDef*
G36*
X111171700Y-58195400D02*
G01*
X111171700Y-57195400D01*
X112171700Y-57195400D01*
X112171700Y-58195400D01*
X111171700Y-58195400D01*
G37*
G04 #@! TD.AperFunction*
G04 #@! TA.AperFunction,SMDPad,CuDef*
G36*
X112441700Y-45495400D02*
G01*
X112441700Y-44495400D01*
X113441700Y-44495400D01*
X113441700Y-45495400D01*
X112441700Y-45495400D01*
G37*
G04 #@! TD.AperFunction*
G04 #@! TA.AperFunction,SMDPad,CuDef*
G36*
X112441700Y-50575400D02*
G01*
X112441700Y-49575400D01*
X113441700Y-49575400D01*
X113441700Y-50575400D01*
X112441700Y-50575400D01*
G37*
G04 #@! TD.AperFunction*
G04 #@! TA.AperFunction,SMDPad,CuDef*
G36*
X121331700Y-65815400D02*
G01*
X121331700Y-64815400D01*
X122331700Y-64815400D01*
X122331700Y-65815400D01*
X121331700Y-65815400D01*
G37*
G04 #@! TD.AperFunction*
D15*
X124408100Y-40042400D03*
X124408100Y-42582400D03*
X124408100Y-45122400D03*
X124408100Y-47662400D03*
X124408100Y-50202400D03*
X124408100Y-52742400D03*
X124408100Y-55282400D03*
X124408100Y-57822400D03*
X124408100Y-60362400D03*
X124408100Y-62902400D03*
X124408100Y-65442400D03*
X124408100Y-67982400D03*
X109188100Y-67982400D03*
X109188100Y-65442400D03*
X109188100Y-62902400D03*
X109188100Y-60362400D03*
X109188100Y-57822400D03*
X109188100Y-55282400D03*
X109188100Y-52742400D03*
X109188100Y-50202400D03*
X109188100Y-47662400D03*
X109188100Y-45122400D03*
X109188100Y-42582400D03*
X109188100Y-40042400D03*
D16*
X115900800Y-65112200D03*
X115900800Y-67652200D03*
G04 #@! TA.AperFunction,SMDPad,CuDef*
G36*
G01*
X116138300Y-65957200D02*
X115663300Y-65957200D01*
G75*
G02*
X115425800Y-65719700I0J237500D01*
G01*
X115425800Y-65219700D01*
G75*
G02*
X115663300Y-64982200I237500J0D01*
G01*
X116138300Y-64982200D01*
G75*
G02*
X116375800Y-65219700I0J-237500D01*
G01*
X116375800Y-65719700D01*
G75*
G02*
X116138300Y-65957200I-237500J0D01*
G01*
G37*
G04 #@! TD.AperFunction*
G04 #@! TA.AperFunction,SMDPad,CuDef*
G36*
G01*
X116138300Y-67782200D02*
X115663300Y-67782200D01*
G75*
G02*
X115425800Y-67544700I0J237500D01*
G01*
X115425800Y-67044700D01*
G75*
G02*
X115663300Y-66807200I237500J0D01*
G01*
X116138300Y-66807200D01*
G75*
G02*
X116375800Y-67044700I0J-237500D01*
G01*
X116375800Y-67544700D01*
G75*
G02*
X116138300Y-67782200I-237500J0D01*
G01*
G37*
G04 #@! TD.AperFunction*
X117958200Y-65137600D03*
X117958200Y-67677600D03*
G04 #@! TA.AperFunction,SMDPad,CuDef*
G36*
G01*
X118195700Y-65982600D02*
X117720700Y-65982600D01*
G75*
G02*
X117483200Y-65745100I0J237500D01*
G01*
X117483200Y-65245100D01*
G75*
G02*
X117720700Y-65007600I237500J0D01*
G01*
X118195700Y-65007600D01*
G75*
G02*
X118433200Y-65245100I0J-237500D01*
G01*
X118433200Y-65745100D01*
G75*
G02*
X118195700Y-65982600I-237500J0D01*
G01*
G37*
G04 #@! TD.AperFunction*
G04 #@! TA.AperFunction,SMDPad,CuDef*
G36*
G01*
X118195700Y-67807600D02*
X117720700Y-67807600D01*
G75*
G02*
X117483200Y-67570100I0J237500D01*
G01*
X117483200Y-67070100D01*
G75*
G02*
X117720700Y-66832600I237500J0D01*
G01*
X118195700Y-66832600D01*
G75*
G02*
X118433200Y-67070100I0J-237500D01*
G01*
X118433200Y-67570100D01*
G75*
G02*
X118195700Y-67807600I-237500J0D01*
G01*
G37*
G04 #@! TD.AperFunction*
D17*
X124663800Y-70943300D03*
X124663800Y-74343300D03*
D18*
X114514400Y-38691100D03*
X117514400Y-38691100D03*
X119014400Y-38691100D03*
D19*
X113114400Y-35831100D03*
X120414400Y-35831100D03*
X120414400Y-38041100D03*
X113114400Y-38041100D03*
D20*
X120599800Y-69392400D03*
X120599800Y-70393160D03*
X118059800Y-69392400D03*
X118059800Y-70393160D03*
X115532500Y-69392400D03*
X115532500Y-70393160D03*
X112992500Y-69400020D03*
X112992500Y-70400780D03*
D21*
X112992500Y-72338500D03*
X115532500Y-72338500D03*
X118072500Y-72338500D03*
X120612500Y-72338500D03*
D22*
X122949300Y-36816600D03*
D23*
X124949300Y-36816600D03*
D24*
X122209561Y-70536539D03*
X123158301Y-44035399D03*
X114039701Y-44035399D03*
X124635261Y-72962239D03*
X41174000Y-40866200D03*
X41250200Y-59852700D03*
X60465300Y-52613700D03*
X60236700Y-33766900D03*
X79261300Y-50010200D03*
X98273200Y-52880400D03*
X98349400Y-33601800D03*
X79300101Y-31035699D03*
X123152500Y-48968800D03*
X114324300Y-47535400D03*
X125838801Y-69917199D03*
X119318800Y-44995400D03*
X116700810Y-68806290D03*
X117666100Y-53261400D03*
X114084700Y-53375700D03*
X114237100Y-50962700D03*
X118440800Y-51458000D03*
X119400650Y-37304850D03*
X115820900Y-39884600D03*
X41135900Y-42009200D03*
X114865750Y-54893350D03*
X60224000Y-34554300D03*
X115094350Y-57039650D03*
X79286700Y-31785700D03*
X115946100Y-57231000D03*
X98336700Y-34389200D03*
X116046850Y-62741950D03*
X41275600Y-60983000D03*
X119101200Y-54506000D03*
X60389100Y-53566200D03*
X119279000Y-56068100D03*
X79261300Y-50899200D03*
X118821800Y-61262400D03*
X98374800Y-53604300D03*
X119155649Y-62116949D03*
X119201100Y-50075400D03*
X119124900Y-52615400D03*
D25*
X120561700Y-42955400D02*
X120561700Y-42455400D01*
X121641699Y-44035399D02*
X120561700Y-42955400D01*
X121786701Y-44035399D02*
X114039701Y-44035399D01*
X123158301Y-44035399D02*
X121786701Y-44035399D01*
X121786701Y-44035399D02*
X121641699Y-44035399D01*
X46700402Y-54858900D02*
X48174410Y-53384892D01*
X44499400Y-54858900D02*
X46700402Y-54858900D01*
X48174410Y-43513617D02*
X45526993Y-40866200D01*
X48174410Y-45232290D02*
X48174410Y-43513617D01*
X48174410Y-53384892D02*
X48174410Y-45232290D01*
X48174410Y-45232290D02*
X48174410Y-43878900D01*
X45526993Y-40866200D02*
X41174000Y-40866200D01*
X41174000Y-40866200D02*
X41174000Y-40866200D01*
X46700402Y-73908900D02*
X48174410Y-72434892D01*
X44499400Y-73908900D02*
X46700402Y-73908900D01*
X48174410Y-62563617D02*
X45463493Y-59852700D01*
X48174410Y-64498190D02*
X48174410Y-62563617D01*
X48174410Y-72434892D02*
X48174410Y-64498190D01*
X48174410Y-64498190D02*
X48174410Y-62928900D01*
X45463493Y-59852700D02*
X41250200Y-59852700D01*
X41250200Y-59852700D02*
X41250200Y-59852700D01*
X65775802Y-66425800D02*
X67249810Y-64951792D01*
X63574800Y-66425800D02*
X65775802Y-66425800D01*
X67249810Y-55080517D02*
X64782993Y-52613700D01*
X67249810Y-56941690D02*
X67249810Y-55080517D01*
X67249810Y-64951792D02*
X67249810Y-56941690D01*
X67249810Y-56941690D02*
X67249810Y-55445800D01*
X64782993Y-52613700D02*
X60465300Y-52613700D01*
X60465300Y-52613700D02*
X60465300Y-52613700D01*
X65775802Y-47375800D02*
X67249810Y-45901792D01*
X63574800Y-47375800D02*
X65775802Y-47375800D01*
X67249810Y-36030517D02*
X64986193Y-33766900D01*
X67249810Y-37840890D02*
X67249810Y-36030517D01*
X67249810Y-45901792D02*
X67249810Y-37840890D01*
X67249810Y-37840890D02*
X67249810Y-36395800D01*
X64986193Y-33766900D02*
X60236700Y-33766900D01*
X60236700Y-33766900D02*
X60236700Y-33766900D01*
X84838502Y-44658000D02*
X86312510Y-43183992D01*
X82637500Y-44658000D02*
X84838502Y-44658000D01*
X84838502Y-63708000D02*
X86312510Y-62233992D01*
X82637500Y-63708000D02*
X84838502Y-63708000D01*
X103901202Y-66425800D02*
X105375210Y-64951792D01*
X101700200Y-66425800D02*
X103901202Y-66425800D01*
X86312510Y-54376290D02*
X86312510Y-52362717D01*
X86312510Y-52362717D02*
X83959993Y-50010200D01*
X86312510Y-62233992D02*
X86312510Y-54376290D01*
X86312510Y-54376290D02*
X86312510Y-52728000D01*
X83959993Y-50010200D02*
X79261300Y-50010200D01*
X79261300Y-50010200D02*
X79261300Y-50010200D01*
X86312510Y-35103110D02*
X86312510Y-33312717D01*
X86312510Y-43183992D02*
X86312510Y-35103110D01*
X86312510Y-33312717D02*
X84112393Y-31112600D01*
X86312510Y-35103110D02*
X86312510Y-33678000D01*
X84112393Y-31112600D02*
X79286700Y-31112600D01*
X79286700Y-31112600D02*
X79286700Y-31112600D01*
X103901202Y-47375800D02*
X105375210Y-45901792D01*
X101700200Y-47375800D02*
X103901202Y-47375800D01*
X105375210Y-56941690D02*
X105375210Y-55080517D01*
X105375210Y-55080517D02*
X103175093Y-52880400D01*
X105375210Y-64951792D02*
X105375210Y-56941690D01*
X105375210Y-56941690D02*
X105375210Y-55445800D01*
X103175093Y-52880400D02*
X98273200Y-52880400D01*
X98273200Y-52880400D02*
X98273200Y-52880400D01*
X105375210Y-36030517D02*
X102946493Y-33601800D01*
X105375210Y-37955190D02*
X105375210Y-36030517D01*
X105375210Y-37955190D02*
X105375210Y-36395800D01*
X102946493Y-33601800D02*
X98349400Y-33601800D01*
X98349400Y-33601800D02*
X98349400Y-33601800D01*
X105375210Y-41351510D02*
X105375210Y-37955190D01*
D26*
X104086202Y-47375800D02*
X105500210Y-45961792D01*
X101700200Y-47375800D02*
X104086202Y-47375800D01*
X86437510Y-43243992D02*
X86437510Y-33678000D01*
X85023502Y-44658000D02*
X86437510Y-43243992D01*
X82637500Y-44658000D02*
X85023502Y-44658000D01*
X67374810Y-45961792D02*
X67374810Y-36395800D01*
X65960802Y-47375800D02*
X67374810Y-45961792D01*
X63574800Y-47375800D02*
X65960802Y-47375800D01*
X48299410Y-53444892D02*
X48299410Y-43878900D01*
X46885402Y-54858900D02*
X48299410Y-53444892D01*
X44499400Y-54858900D02*
X46885402Y-54858900D01*
X46885402Y-73908900D02*
X48299410Y-72494892D01*
X44499400Y-73908900D02*
X46885402Y-73908900D01*
X65960802Y-66425800D02*
X67374810Y-65011792D01*
X63574800Y-66425800D02*
X65960802Y-66425800D01*
X85023502Y-63708000D02*
X86437510Y-62293992D01*
X82637500Y-63708000D02*
X85023502Y-63708000D01*
X104086202Y-66425800D02*
X105500210Y-65011792D01*
X101700200Y-66425800D02*
X104086202Y-66425800D01*
X105500210Y-45961792D02*
X105500210Y-41273310D01*
X105578410Y-41351510D02*
X105500210Y-41273310D01*
X119457810Y-41351510D02*
X105578410Y-41351510D01*
X120561700Y-42455400D02*
X119457810Y-41351510D01*
X105500210Y-35978740D02*
X103123270Y-33601800D01*
X103123270Y-33601800D02*
X98349400Y-33601800D01*
X105500210Y-41273310D02*
X105500210Y-38211190D01*
X105500210Y-38211190D02*
X105500210Y-35978740D01*
X105500210Y-38211190D02*
X105500210Y-36395800D01*
X105500210Y-55028740D02*
X103325769Y-52854299D01*
X105500210Y-60271090D02*
X105500210Y-55028740D01*
X105500210Y-65011792D02*
X105500210Y-60271090D01*
X105500210Y-60271090D02*
X105500210Y-55445800D01*
X124663800Y-72933700D02*
X124635261Y-72962239D01*
X124663800Y-70943300D02*
X124663800Y-72933700D01*
X114141001Y-69477021D02*
X114064000Y-69400020D01*
X114141001Y-72646783D02*
X114141001Y-69477021D01*
X114064000Y-69400020D02*
X112992500Y-69400020D01*
X114981219Y-73487001D02*
X114141001Y-72646783D01*
X121163781Y-73487001D02*
X114981219Y-73487001D01*
X122209561Y-72441221D02*
X121163781Y-73487001D01*
X122209561Y-70536539D02*
X122209561Y-72441221D01*
X112941700Y-44995400D02*
X112941700Y-47535400D01*
X113079700Y-44995400D02*
X114039701Y-44035399D01*
X112941700Y-44995400D02*
X113079700Y-44995400D01*
X114039701Y-44035399D02*
X123158301Y-44035399D01*
X105837738Y-66425800D02*
X101700200Y-66425800D01*
X108811958Y-69400020D02*
X105837738Y-66425800D01*
X112992500Y-69400020D02*
X108811958Y-69400020D01*
X86437510Y-52310940D02*
X84136770Y-50010200D01*
X86437510Y-54797390D02*
X86437510Y-52310940D01*
X86437510Y-62293992D02*
X86437510Y-54797390D01*
X86437510Y-54797390D02*
X86437510Y-52728000D01*
X86563809Y-52854299D02*
X86437510Y-52728000D01*
X99326599Y-52854299D02*
X86563809Y-52854299D01*
X103325769Y-52854299D02*
X99326599Y-52854299D01*
X99326599Y-52854299D02*
X98273200Y-52854299D01*
X67374810Y-55028740D02*
X64959770Y-52613700D01*
X67374810Y-57083390D02*
X67374810Y-55028740D01*
X67374810Y-65011792D02*
X67374810Y-57083390D01*
X67374810Y-57083390D02*
X67374810Y-55445800D01*
X69458696Y-50010200D02*
X66855196Y-52613700D01*
X66855196Y-52613700D02*
X64465800Y-52613700D01*
X79985200Y-50010200D02*
X69458696Y-50010200D01*
X84136770Y-50010200D02*
X79985200Y-50010200D01*
X64959770Y-52613700D02*
X64465800Y-52613700D01*
X79985200Y-50010200D02*
X79261300Y-50010200D01*
X45640270Y-59852700D02*
X41250200Y-59852700D01*
X48299410Y-64538290D02*
X48299410Y-62511840D01*
X48299410Y-72494892D02*
X48299410Y-64538290D01*
X48299410Y-64538290D02*
X48299410Y-62928900D01*
X53061200Y-52613700D02*
X45731235Y-59943665D01*
X61862300Y-52613700D02*
X53061200Y-52613700D01*
X45731235Y-59943665D02*
X45640270Y-59852700D01*
X48299410Y-62511840D02*
X45731235Y-59943665D01*
X64465800Y-52613700D02*
X61862300Y-52613700D01*
X61862300Y-52613700D02*
X60465300Y-52613700D01*
D25*
X115532500Y-68020500D02*
X115900800Y-67652200D01*
X115532500Y-69392400D02*
X115532500Y-68020500D01*
X120561700Y-47725036D02*
X120561700Y-47535400D01*
X121805464Y-48968800D02*
X120561700Y-47725036D01*
X123152500Y-48968800D02*
X121805464Y-48968800D01*
X120561700Y-47535400D02*
X114324300Y-47535400D01*
X114324300Y-47535400D02*
X114324300Y-47535400D01*
X125838801Y-73168299D02*
X124663800Y-74343300D01*
X125838801Y-47484339D02*
X125838801Y-69917199D01*
X124929861Y-46575399D02*
X125838801Y-47484339D01*
X121641699Y-46575399D02*
X124929861Y-46575399D01*
X120561700Y-45495400D02*
X121641699Y-46575399D01*
X120561700Y-44995400D02*
X120561700Y-45495400D01*
X125838801Y-69917199D02*
X125838801Y-73168299D01*
X119318800Y-44995400D02*
X120561700Y-44995400D01*
X116700810Y-65912210D02*
X115900800Y-65112200D01*
X116700810Y-68854910D02*
X116700810Y-68806290D01*
X117238300Y-69392400D02*
X116700810Y-68854910D01*
X118059800Y-69392400D02*
X117238300Y-69392400D01*
X116700810Y-68806290D02*
X116700810Y-65912210D01*
X115900800Y-65469700D02*
X117282301Y-64088199D01*
X117282301Y-64088199D02*
X117282301Y-54305599D01*
X117282301Y-54305599D02*
X117282301Y-54102399D01*
X117282301Y-54102399D02*
X117666100Y-53718600D01*
X117666100Y-53718600D02*
X117666100Y-53261400D01*
X117666100Y-53261400D02*
X117666100Y-53261400D01*
X113702000Y-53375700D02*
X112941700Y-52615400D01*
X114084700Y-53375700D02*
X113702000Y-53375700D01*
X119736690Y-66916090D02*
X117958200Y-65137600D01*
X119736690Y-68529290D02*
X119736690Y-66916090D01*
X120599800Y-69392400D02*
X119736690Y-68529290D01*
X117958200Y-65137600D02*
X117958200Y-54391700D01*
X117958200Y-54391700D02*
X118440800Y-53909100D01*
X118440800Y-52651800D02*
X118440800Y-52639100D01*
X113829000Y-50962700D02*
X112941700Y-50075400D01*
X114237100Y-50962700D02*
X113829000Y-50962700D01*
X118440800Y-53299500D02*
X118440800Y-51458000D01*
X118440800Y-53909100D02*
X118440800Y-53299500D01*
X118440800Y-53299500D02*
X118440800Y-52651800D01*
X118440800Y-51458000D02*
X118440800Y-51458000D01*
X119888900Y-36816600D02*
X122949300Y-36816600D01*
X119014400Y-37691100D02*
X119400650Y-37304850D01*
X119014400Y-38691100D02*
X119014400Y-37691100D01*
X119400650Y-37304850D02*
X119888900Y-36816600D01*
X112992500Y-70400780D02*
X112992500Y-72338500D01*
X115532500Y-70393160D02*
X115532500Y-72338500D01*
X118059800Y-72325800D02*
X118072500Y-72338500D01*
X118059800Y-70393160D02*
X118059800Y-72325800D01*
X120599800Y-72325800D02*
X120612500Y-72338500D01*
X120599800Y-70393160D02*
X120599800Y-72325800D01*
X117514400Y-39691100D02*
X117738700Y-39915400D01*
X117514400Y-38691100D02*
X117514400Y-39691100D01*
X117905700Y-39915400D02*
X115851700Y-39915400D01*
X117738700Y-39915400D02*
X117905700Y-39915400D01*
X117905700Y-39915400D02*
X120561700Y-39915400D01*
X115851700Y-39915400D02*
X115820900Y-39884600D01*
X120561700Y-39915400D02*
X115851700Y-39915400D01*
X32899400Y-47158900D02*
X33639400Y-46418900D01*
X32899400Y-52658900D02*
X32899400Y-47158900D01*
X33639400Y-44098607D02*
X35728807Y-42009200D01*
X33639400Y-46418900D02*
X33639400Y-44098607D01*
X35728807Y-42009200D02*
X41135900Y-42009200D01*
X41135900Y-42009200D02*
X41135900Y-42009200D01*
X112941700Y-55655400D02*
X112941700Y-55155400D01*
X108101099Y-55804161D02*
X108666339Y-56369401D01*
X113438700Y-54658400D02*
X112941700Y-55155400D01*
X114630800Y-54658400D02*
X113438700Y-54658400D01*
X114865750Y-54893350D02*
X114630800Y-54658400D01*
X36924401Y-56683901D02*
X32899400Y-52658900D01*
X114865750Y-54893350D02*
X114961000Y-54988600D01*
X114961000Y-54988600D02*
X114961000Y-55674400D01*
X91285470Y-48270300D02*
X70385410Y-48270300D01*
X114961000Y-55674400D02*
X114073601Y-56561799D01*
X107250830Y-53910370D02*
X105595859Y-52255399D01*
X45873587Y-56683901D02*
X36924401Y-56683901D01*
X114073601Y-56561799D02*
X108858737Y-56561799D01*
X70385410Y-48270300D02*
X69004899Y-49650811D01*
X108858737Y-56561799D02*
X107250830Y-54953892D01*
X107250830Y-54953892D02*
X107250830Y-53910370D01*
X105595859Y-52255399D02*
X95270569Y-52255399D01*
X95270569Y-52255399D02*
X91285470Y-48270300D01*
X52906677Y-49650811D02*
X45873587Y-56683901D01*
X69004899Y-49650811D02*
X52906677Y-49650811D01*
X51974800Y-39675800D02*
X52714800Y-38935800D01*
X51974800Y-45175800D02*
X51974800Y-39675800D01*
X52714800Y-36615507D02*
X54776007Y-34554300D01*
X52714800Y-38935800D02*
X52714800Y-36615507D01*
X54776007Y-34554300D02*
X60224000Y-34554300D01*
X60224000Y-34554300D02*
X60224000Y-34554300D01*
X68818499Y-49200801D02*
X55999801Y-49200801D01*
X93908590Y-50257010D02*
X90943980Y-47292400D01*
X105093948Y-50257010D02*
X93908590Y-50257010D01*
X55999801Y-49200801D02*
X51974800Y-45175800D01*
X90943980Y-47292400D02*
X70726900Y-47292400D01*
X70726900Y-47292400D02*
X68818499Y-49200801D01*
X108666339Y-53829401D02*
X108538819Y-53701881D01*
X108538819Y-53701881D02*
X105093948Y-50257010D01*
X114438600Y-57695400D02*
X113994100Y-57695400D01*
X113994100Y-57695400D02*
X112941700Y-57695400D01*
X115490751Y-56643249D02*
X115094350Y-57039650D01*
X115490751Y-54593349D02*
X115490751Y-56643249D01*
X115092801Y-54195399D02*
X115490751Y-54593349D01*
X109032337Y-54195399D02*
X115092801Y-54195399D01*
X108538819Y-53701881D02*
X109032337Y-54195399D01*
X115094350Y-57039650D02*
X114438600Y-57695400D01*
X71037500Y-36958000D02*
X71777500Y-36218000D01*
X71037500Y-42458000D02*
X71037500Y-36958000D01*
X71777500Y-33897707D02*
X73889507Y-31785700D01*
X71777500Y-36218000D02*
X71777500Y-33897707D01*
X73889507Y-31785700D02*
X79286700Y-31785700D01*
X79286700Y-31785700D02*
X79350200Y-31785700D01*
X115946100Y-57231000D02*
X112941700Y-60235400D01*
X91088791Y-46800801D02*
X75380301Y-46800801D01*
X107183938Y-49807000D02*
X94094990Y-49807000D01*
X108697569Y-51320631D02*
X107183938Y-49807000D01*
X109922262Y-51077000D02*
X109678631Y-51320631D01*
X75380301Y-46800801D02*
X71037500Y-42458000D01*
X112862936Y-51077000D02*
X109922262Y-51077000D01*
X109678631Y-51320631D02*
X108697569Y-51320631D01*
X116281800Y-54495864D02*
X112862936Y-51077000D01*
X116281800Y-56895300D02*
X116281800Y-54495864D01*
X94094990Y-49807000D02*
X91088791Y-46800801D01*
X115946100Y-57231000D02*
X116281800Y-56895300D01*
X90100200Y-39675800D02*
X90840200Y-38935800D01*
X90100200Y-45175800D02*
X90100200Y-39675800D01*
X90840200Y-36615507D02*
X93066507Y-34389200D01*
X90840200Y-38935800D02*
X90840200Y-36615507D01*
X93066507Y-34389200D02*
X98336700Y-34389200D01*
X98336700Y-34389200D02*
X98362100Y-34389200D01*
X113441335Y-49115399D02*
X116802500Y-52476564D01*
X108226599Y-49200801D02*
X108312001Y-49115399D01*
X108312001Y-49115399D02*
X113441335Y-49115399D01*
X94125201Y-49200801D02*
X108226599Y-49200801D01*
X90100200Y-45175800D02*
X94125201Y-49200801D01*
X116802500Y-58557300D02*
X116802500Y-61986300D01*
X116802500Y-52476564D02*
X116802500Y-58557300D01*
X116802500Y-58557300D02*
X116802500Y-58914600D01*
X116013400Y-62775400D02*
X112941700Y-62775400D01*
X116802500Y-61986300D02*
X116567550Y-62221250D01*
X116567550Y-62221250D02*
X116046850Y-62741950D01*
X116046850Y-62741950D02*
X116013400Y-62775400D01*
X33639400Y-70968900D02*
X32899400Y-71708900D01*
X33639400Y-65468900D02*
X33639400Y-70968900D01*
X33639400Y-63148607D02*
X35805007Y-60983000D01*
X33639400Y-65468900D02*
X33639400Y-63148607D01*
X35805007Y-60983000D02*
X41275600Y-60983000D01*
X41275600Y-60983000D02*
X41275600Y-60983000D01*
X119750600Y-55155400D02*
X119101200Y-54506000D01*
X120561700Y-55155400D02*
X119750600Y-55155400D01*
X51974800Y-58725800D02*
X52714800Y-57985800D01*
X51974800Y-64225800D02*
X51974800Y-58725800D01*
X52714800Y-55665507D02*
X54814107Y-53566200D01*
X52714800Y-57985800D02*
X52714800Y-55665507D01*
X54814107Y-53566200D02*
X60389100Y-53566200D01*
X60389100Y-53566200D02*
X60389100Y-53566200D01*
X120561700Y-57350800D02*
X119279000Y-56068100D01*
X120561700Y-57695400D02*
X120561700Y-57350800D01*
X71037500Y-56008000D02*
X71777500Y-55268000D01*
X71037500Y-61508000D02*
X71037500Y-56008000D01*
X71777500Y-52947707D02*
X73826007Y-50899200D01*
X71777500Y-55268000D02*
X71777500Y-52947707D01*
X73826007Y-50899200D02*
X79261300Y-50899200D01*
X79261300Y-50899200D02*
X79261300Y-50899200D01*
X119848800Y-60235400D02*
X118821800Y-61262400D01*
X120561700Y-60235400D02*
X119848800Y-60235400D01*
X90100200Y-58725800D02*
X90840200Y-57985800D01*
X90100200Y-64225800D02*
X90100200Y-58725800D01*
X90840200Y-55665507D02*
X92901407Y-53604300D01*
X90840200Y-57985800D02*
X90840200Y-55665507D01*
X92901407Y-53604300D02*
X98374800Y-53604300D01*
X98374800Y-53604300D02*
X98374800Y-53604300D01*
X119903249Y-62116949D02*
X120561700Y-62775400D01*
X119155649Y-62116949D02*
X119903249Y-62116949D01*
X120561700Y-50075400D02*
X119201100Y-50075400D01*
X120561700Y-52615400D02*
X119124900Y-52615400D01*
M02*
