G04 #@! TF.GenerationSoftware,KiCad,Pcbnew,5.1.9*
G04 #@! TF.CreationDate,2021-04-21T20:38:48-05:00*
G04 #@! TF.ProjectId,artboard,61727462-6f61-4726-942e-6b696361645f,0.1*
G04 #@! TF.SameCoordinates,Original*
G04 #@! TF.FileFunction,Soldermask,Bot*
G04 #@! TF.FilePolarity,Negative*
%FSLAX46Y46*%
G04 Gerber Fmt 4.6, Leading zero omitted, Abs format (unit mm)*
G04 Created by KiCad (PCBNEW 5.1.9) date 2021-04-21 20:38:48*
%MOMM*%
%LPD*%
G01*
G04 APERTURE LIST*
%ADD10C,3.400000*%
%ADD11O,2.600000X1.900000*%
%ADD12C,0.100000*%
%ADD13C,1.924000*%
%ADD14C,1.150000*%
%ADD15C,1.300000*%
%ADD16C,1.797000*%
%ADD17O,1.750000X1.750000*%
G04 APERTURE END LIST*
G36*
G01*
X87127500Y-51428000D02*
X87127500Y-54028000D01*
G75*
G02*
X86927500Y-54228000I-200000J0D01*
G01*
X84327500Y-54228000D01*
G75*
G02*
X84127500Y-54028000I0J200000D01*
G01*
X84127500Y-51428000D01*
G75*
G02*
X84327500Y-51228000I200000J0D01*
G01*
X86927500Y-51228000D01*
G75*
G02*
X87127500Y-51428000I0J-200000D01*
G01*
G37*
G36*
G01*
X73277500Y-53968000D02*
X73277500Y-56568000D01*
G75*
G02*
X73077500Y-56768000I-200000J0D01*
G01*
X70477500Y-56768000D01*
G75*
G02*
X70277500Y-56568000I0J200000D01*
G01*
X70277500Y-53968000D01*
G75*
G02*
X70477500Y-53768000I200000J0D01*
G01*
X73077500Y-53768000D01*
G75*
G02*
X73277500Y-53968000I0J-200000D01*
G01*
G37*
D10*
X83147500Y-55268000D03*
X76797500Y-52728000D03*
X75527500Y-55268000D03*
X81877500Y-52728000D03*
X79337500Y-63708000D03*
X74337500Y-61508000D03*
G36*
G01*
X84137500Y-62408000D02*
X84137500Y-65008000D01*
G75*
G02*
X83937500Y-65208000I-200000J0D01*
G01*
X81337500Y-65208000D01*
G75*
G02*
X81137500Y-65008000I0J200000D01*
G01*
X81137500Y-62408000D01*
G75*
G02*
X81337500Y-62208000I200000J0D01*
G01*
X83937500Y-62208000D01*
G75*
G02*
X84137500Y-62408000I0J-200000D01*
G01*
G37*
G36*
G01*
X72537500Y-60208000D02*
X72537500Y-62808000D01*
G75*
G02*
X72337500Y-63008000I-200000J0D01*
G01*
X69737500Y-63008000D01*
G75*
G02*
X69537500Y-62808000I0J200000D01*
G01*
X69537500Y-60208000D01*
G75*
G02*
X69737500Y-60008000I200000J0D01*
G01*
X72337500Y-60008000D01*
G75*
G02*
X72537500Y-60208000I0J-200000D01*
G01*
G37*
D11*
X84887500Y-52808000D03*
D10*
X84337500Y-61508000D03*
D11*
X73787500Y-52808000D03*
G36*
G01*
X48989400Y-42578900D02*
X48989400Y-45178900D01*
G75*
G02*
X48789400Y-45378900I-200000J0D01*
G01*
X46189400Y-45378900D01*
G75*
G02*
X45989400Y-45178900I0J200000D01*
G01*
X45989400Y-42578900D01*
G75*
G02*
X46189400Y-42378900I200000J0D01*
G01*
X48789400Y-42378900D01*
G75*
G02*
X48989400Y-42578900I0J-200000D01*
G01*
G37*
G36*
G01*
X35139400Y-45118900D02*
X35139400Y-47718900D01*
G75*
G02*
X34939400Y-47918900I-200000J0D01*
G01*
X32339400Y-47918900D01*
G75*
G02*
X32139400Y-47718900I0J200000D01*
G01*
X32139400Y-45118900D01*
G75*
G02*
X32339400Y-44918900I200000J0D01*
G01*
X34939400Y-44918900D01*
G75*
G02*
X35139400Y-45118900I0J-200000D01*
G01*
G37*
D10*
X45009400Y-46418900D03*
X38659400Y-43878900D03*
X37389400Y-46418900D03*
X43739400Y-43878900D03*
X41199400Y-54858900D03*
X36199400Y-52658900D03*
G36*
G01*
X45999400Y-53558900D02*
X45999400Y-56158900D01*
G75*
G02*
X45799400Y-56358900I-200000J0D01*
G01*
X43199400Y-56358900D01*
G75*
G02*
X42999400Y-56158900I0J200000D01*
G01*
X42999400Y-53558900D01*
G75*
G02*
X43199400Y-53358900I200000J0D01*
G01*
X45799400Y-53358900D01*
G75*
G02*
X45999400Y-53558900I0J-200000D01*
G01*
G37*
G36*
G01*
X34399400Y-51358900D02*
X34399400Y-53958900D01*
G75*
G02*
X34199400Y-54158900I-200000J0D01*
G01*
X31599400Y-54158900D01*
G75*
G02*
X31399400Y-53958900I0J200000D01*
G01*
X31399400Y-51358900D01*
G75*
G02*
X31599400Y-51158900I200000J0D01*
G01*
X34199400Y-51158900D01*
G75*
G02*
X34399400Y-51358900I0J-200000D01*
G01*
G37*
D11*
X46749400Y-43958900D03*
D10*
X46199400Y-52658900D03*
D11*
X35649400Y-43958900D03*
G36*
G01*
X68064800Y-35095800D02*
X68064800Y-37695800D01*
G75*
G02*
X67864800Y-37895800I-200000J0D01*
G01*
X65264800Y-37895800D01*
G75*
G02*
X65064800Y-37695800I0J200000D01*
G01*
X65064800Y-35095800D01*
G75*
G02*
X65264800Y-34895800I200000J0D01*
G01*
X67864800Y-34895800D01*
G75*
G02*
X68064800Y-35095800I0J-200000D01*
G01*
G37*
G36*
G01*
X54214800Y-37635800D02*
X54214800Y-40235800D01*
G75*
G02*
X54014800Y-40435800I-200000J0D01*
G01*
X51414800Y-40435800D01*
G75*
G02*
X51214800Y-40235800I0J200000D01*
G01*
X51214800Y-37635800D01*
G75*
G02*
X51414800Y-37435800I200000J0D01*
G01*
X54014800Y-37435800D01*
G75*
G02*
X54214800Y-37635800I0J-200000D01*
G01*
G37*
D10*
X64084800Y-38935800D03*
X57734800Y-36395800D03*
X56464800Y-38935800D03*
X62814800Y-36395800D03*
X60274800Y-47375800D03*
X55274800Y-45175800D03*
G36*
G01*
X65074800Y-46075800D02*
X65074800Y-48675800D01*
G75*
G02*
X64874800Y-48875800I-200000J0D01*
G01*
X62274800Y-48875800D01*
G75*
G02*
X62074800Y-48675800I0J200000D01*
G01*
X62074800Y-46075800D01*
G75*
G02*
X62274800Y-45875800I200000J0D01*
G01*
X64874800Y-45875800D01*
G75*
G02*
X65074800Y-46075800I0J-200000D01*
G01*
G37*
G36*
G01*
X53474800Y-43875800D02*
X53474800Y-46475800D01*
G75*
G02*
X53274800Y-46675800I-200000J0D01*
G01*
X50674800Y-46675800D01*
G75*
G02*
X50474800Y-46475800I0J200000D01*
G01*
X50474800Y-43875800D01*
G75*
G02*
X50674800Y-43675800I200000J0D01*
G01*
X53274800Y-43675800D01*
G75*
G02*
X53474800Y-43875800I0J-200000D01*
G01*
G37*
D11*
X65824800Y-36475800D03*
D10*
X65274800Y-45175800D03*
D11*
X54724800Y-36475800D03*
G36*
G01*
X87127500Y-32378000D02*
X87127500Y-34978000D01*
G75*
G02*
X86927500Y-35178000I-200000J0D01*
G01*
X84327500Y-35178000D01*
G75*
G02*
X84127500Y-34978000I0J200000D01*
G01*
X84127500Y-32378000D01*
G75*
G02*
X84327500Y-32178000I200000J0D01*
G01*
X86927500Y-32178000D01*
G75*
G02*
X87127500Y-32378000I0J-200000D01*
G01*
G37*
G36*
G01*
X73277500Y-34918000D02*
X73277500Y-37518000D01*
G75*
G02*
X73077500Y-37718000I-200000J0D01*
G01*
X70477500Y-37718000D01*
G75*
G02*
X70277500Y-37518000I0J200000D01*
G01*
X70277500Y-34918000D01*
G75*
G02*
X70477500Y-34718000I200000J0D01*
G01*
X73077500Y-34718000D01*
G75*
G02*
X73277500Y-34918000I0J-200000D01*
G01*
G37*
D10*
X83147500Y-36218000D03*
X76797500Y-33678000D03*
X75527500Y-36218000D03*
X81877500Y-33678000D03*
X79337500Y-44658000D03*
X74337500Y-42458000D03*
G36*
G01*
X84137500Y-43358000D02*
X84137500Y-45958000D01*
G75*
G02*
X83937500Y-46158000I-200000J0D01*
G01*
X81337500Y-46158000D01*
G75*
G02*
X81137500Y-45958000I0J200000D01*
G01*
X81137500Y-43358000D01*
G75*
G02*
X81337500Y-43158000I200000J0D01*
G01*
X83937500Y-43158000D01*
G75*
G02*
X84137500Y-43358000I0J-200000D01*
G01*
G37*
G36*
G01*
X72537500Y-41158000D02*
X72537500Y-43758000D01*
G75*
G02*
X72337500Y-43958000I-200000J0D01*
G01*
X69737500Y-43958000D01*
G75*
G02*
X69537500Y-43758000I0J200000D01*
G01*
X69537500Y-41158000D01*
G75*
G02*
X69737500Y-40958000I200000J0D01*
G01*
X72337500Y-40958000D01*
G75*
G02*
X72537500Y-41158000I0J-200000D01*
G01*
G37*
D11*
X84887500Y-33758000D03*
D10*
X84337500Y-42458000D03*
D11*
X73787500Y-33758000D03*
G36*
G01*
X48989400Y-61628900D02*
X48989400Y-64228900D01*
G75*
G02*
X48789400Y-64428900I-200000J0D01*
G01*
X46189400Y-64428900D01*
G75*
G02*
X45989400Y-64228900I0J200000D01*
G01*
X45989400Y-61628900D01*
G75*
G02*
X46189400Y-61428900I200000J0D01*
G01*
X48789400Y-61428900D01*
G75*
G02*
X48989400Y-61628900I0J-200000D01*
G01*
G37*
G36*
G01*
X35139400Y-64168900D02*
X35139400Y-66768900D01*
G75*
G02*
X34939400Y-66968900I-200000J0D01*
G01*
X32339400Y-66968900D01*
G75*
G02*
X32139400Y-66768900I0J200000D01*
G01*
X32139400Y-64168900D01*
G75*
G02*
X32339400Y-63968900I200000J0D01*
G01*
X34939400Y-63968900D01*
G75*
G02*
X35139400Y-64168900I0J-200000D01*
G01*
G37*
D10*
X45009400Y-65468900D03*
X38659400Y-62928900D03*
X37389400Y-65468900D03*
X43739400Y-62928900D03*
X41199400Y-73908900D03*
X36199400Y-71708900D03*
G36*
G01*
X45999400Y-72608900D02*
X45999400Y-75208900D01*
G75*
G02*
X45799400Y-75408900I-200000J0D01*
G01*
X43199400Y-75408900D01*
G75*
G02*
X42999400Y-75208900I0J200000D01*
G01*
X42999400Y-72608900D01*
G75*
G02*
X43199400Y-72408900I200000J0D01*
G01*
X45799400Y-72408900D01*
G75*
G02*
X45999400Y-72608900I0J-200000D01*
G01*
G37*
G36*
G01*
X34399400Y-70408900D02*
X34399400Y-73008900D01*
G75*
G02*
X34199400Y-73208900I-200000J0D01*
G01*
X31599400Y-73208900D01*
G75*
G02*
X31399400Y-73008900I0J200000D01*
G01*
X31399400Y-70408900D01*
G75*
G02*
X31599400Y-70208900I200000J0D01*
G01*
X34199400Y-70208900D01*
G75*
G02*
X34399400Y-70408900I0J-200000D01*
G01*
G37*
D11*
X46749400Y-63008900D03*
D10*
X46199400Y-71708900D03*
D11*
X35649400Y-63008900D03*
G36*
G01*
X68064800Y-54145800D02*
X68064800Y-56745800D01*
G75*
G02*
X67864800Y-56945800I-200000J0D01*
G01*
X65264800Y-56945800D01*
G75*
G02*
X65064800Y-56745800I0J200000D01*
G01*
X65064800Y-54145800D01*
G75*
G02*
X65264800Y-53945800I200000J0D01*
G01*
X67864800Y-53945800D01*
G75*
G02*
X68064800Y-54145800I0J-200000D01*
G01*
G37*
G36*
G01*
X54214800Y-56685800D02*
X54214800Y-59285800D01*
G75*
G02*
X54014800Y-59485800I-200000J0D01*
G01*
X51414800Y-59485800D01*
G75*
G02*
X51214800Y-59285800I0J200000D01*
G01*
X51214800Y-56685800D01*
G75*
G02*
X51414800Y-56485800I200000J0D01*
G01*
X54014800Y-56485800D01*
G75*
G02*
X54214800Y-56685800I0J-200000D01*
G01*
G37*
D10*
X64084800Y-57985800D03*
X57734800Y-55445800D03*
X56464800Y-57985800D03*
X62814800Y-55445800D03*
X60274800Y-66425800D03*
X55274800Y-64225800D03*
G36*
G01*
X65074800Y-65125800D02*
X65074800Y-67725800D01*
G75*
G02*
X64874800Y-67925800I-200000J0D01*
G01*
X62274800Y-67925800D01*
G75*
G02*
X62074800Y-67725800I0J200000D01*
G01*
X62074800Y-65125800D01*
G75*
G02*
X62274800Y-64925800I200000J0D01*
G01*
X64874800Y-64925800D01*
G75*
G02*
X65074800Y-65125800I0J-200000D01*
G01*
G37*
G36*
G01*
X53474800Y-62925800D02*
X53474800Y-65525800D01*
G75*
G02*
X53274800Y-65725800I-200000J0D01*
G01*
X50674800Y-65725800D01*
G75*
G02*
X50474800Y-65525800I0J200000D01*
G01*
X50474800Y-62925800D01*
G75*
G02*
X50674800Y-62725800I200000J0D01*
G01*
X53274800Y-62725800D01*
G75*
G02*
X53474800Y-62925800I0J-200000D01*
G01*
G37*
D11*
X65824800Y-55525800D03*
D10*
X65274800Y-64225800D03*
D11*
X54724800Y-55525800D03*
G36*
G01*
X106190200Y-54145800D02*
X106190200Y-56745800D01*
G75*
G02*
X105990200Y-56945800I-200000J0D01*
G01*
X103390200Y-56945800D01*
G75*
G02*
X103190200Y-56745800I0J200000D01*
G01*
X103190200Y-54145800D01*
G75*
G02*
X103390200Y-53945800I200000J0D01*
G01*
X105990200Y-53945800D01*
G75*
G02*
X106190200Y-54145800I0J-200000D01*
G01*
G37*
G36*
G01*
X92340200Y-56685800D02*
X92340200Y-59285800D01*
G75*
G02*
X92140200Y-59485800I-200000J0D01*
G01*
X89540200Y-59485800D01*
G75*
G02*
X89340200Y-59285800I0J200000D01*
G01*
X89340200Y-56685800D01*
G75*
G02*
X89540200Y-56485800I200000J0D01*
G01*
X92140200Y-56485800D01*
G75*
G02*
X92340200Y-56685800I0J-200000D01*
G01*
G37*
D10*
X102210200Y-57985800D03*
X95860200Y-55445800D03*
X94590200Y-57985800D03*
X100940200Y-55445800D03*
X98400200Y-66425800D03*
X93400200Y-64225800D03*
G36*
G01*
X103200200Y-65125800D02*
X103200200Y-67725800D01*
G75*
G02*
X103000200Y-67925800I-200000J0D01*
G01*
X100400200Y-67925800D01*
G75*
G02*
X100200200Y-67725800I0J200000D01*
G01*
X100200200Y-65125800D01*
G75*
G02*
X100400200Y-64925800I200000J0D01*
G01*
X103000200Y-64925800D01*
G75*
G02*
X103200200Y-65125800I0J-200000D01*
G01*
G37*
G36*
G01*
X91600200Y-62925800D02*
X91600200Y-65525800D01*
G75*
G02*
X91400200Y-65725800I-200000J0D01*
G01*
X88800200Y-65725800D01*
G75*
G02*
X88600200Y-65525800I0J200000D01*
G01*
X88600200Y-62925800D01*
G75*
G02*
X88800200Y-62725800I200000J0D01*
G01*
X91400200Y-62725800D01*
G75*
G02*
X91600200Y-62925800I0J-200000D01*
G01*
G37*
D11*
X103950200Y-55525800D03*
D10*
X103400200Y-64225800D03*
D11*
X92850200Y-55525800D03*
G36*
G01*
X106190200Y-35095800D02*
X106190200Y-37695800D01*
G75*
G02*
X105990200Y-37895800I-200000J0D01*
G01*
X103390200Y-37895800D01*
G75*
G02*
X103190200Y-37695800I0J200000D01*
G01*
X103190200Y-35095800D01*
G75*
G02*
X103390200Y-34895800I200000J0D01*
G01*
X105990200Y-34895800D01*
G75*
G02*
X106190200Y-35095800I0J-200000D01*
G01*
G37*
G36*
G01*
X92340200Y-37635800D02*
X92340200Y-40235800D01*
G75*
G02*
X92140200Y-40435800I-200000J0D01*
G01*
X89540200Y-40435800D01*
G75*
G02*
X89340200Y-40235800I0J200000D01*
G01*
X89340200Y-37635800D01*
G75*
G02*
X89540200Y-37435800I200000J0D01*
G01*
X92140200Y-37435800D01*
G75*
G02*
X92340200Y-37635800I0J-200000D01*
G01*
G37*
D10*
X102210200Y-38935800D03*
X95860200Y-36395800D03*
X94590200Y-38935800D03*
X100940200Y-36395800D03*
X98400200Y-47375800D03*
X93400200Y-45175800D03*
G36*
G01*
X103200200Y-46075800D02*
X103200200Y-48675800D01*
G75*
G02*
X103000200Y-48875800I-200000J0D01*
G01*
X100400200Y-48875800D01*
G75*
G02*
X100200200Y-48675800I0J200000D01*
G01*
X100200200Y-46075800D01*
G75*
G02*
X100400200Y-45875800I200000J0D01*
G01*
X103000200Y-45875800D01*
G75*
G02*
X103200200Y-46075800I0J-200000D01*
G01*
G37*
G36*
G01*
X91600200Y-43875800D02*
X91600200Y-46475800D01*
G75*
G02*
X91400200Y-46675800I-200000J0D01*
G01*
X88800200Y-46675800D01*
G75*
G02*
X88600200Y-46475800I0J200000D01*
G01*
X88600200Y-43875800D01*
G75*
G02*
X88800200Y-43675800I200000J0D01*
G01*
X91400200Y-43675800D01*
G75*
G02*
X91600200Y-43875800I0J-200000D01*
G01*
G37*
D11*
X103950200Y-36475800D03*
D10*
X103400200Y-45175800D03*
D11*
X92850200Y-36475800D03*
D12*
G36*
X110971700Y-53315400D02*
G01*
X110971700Y-51915400D01*
X112371700Y-51915400D01*
X112371700Y-53315400D01*
X110971700Y-53315400D01*
G37*
G36*
X121131700Y-53315400D02*
G01*
X121131700Y-51915400D01*
X122531700Y-51915400D01*
X122531700Y-53315400D01*
X121131700Y-53315400D01*
G37*
G36*
X112241700Y-40615400D02*
G01*
X112241700Y-39215400D01*
X113641700Y-39215400D01*
X113641700Y-40615400D01*
X112241700Y-40615400D01*
G37*
G36*
X119861700Y-66015400D02*
G01*
X119861700Y-64615400D01*
X121261700Y-64615400D01*
X121261700Y-66015400D01*
X119861700Y-66015400D01*
G37*
G36*
X110971700Y-68555400D02*
G01*
X110971700Y-67155400D01*
X112371700Y-67155400D01*
X112371700Y-68555400D01*
X110971700Y-68555400D01*
G37*
G36*
X110971700Y-55855400D02*
G01*
X110971700Y-54455400D01*
X112371700Y-54455400D01*
X112371700Y-55855400D01*
X110971700Y-55855400D01*
G37*
G36*
X112241700Y-48235400D02*
G01*
X112241700Y-46835400D01*
X113641700Y-46835400D01*
X113641700Y-48235400D01*
X112241700Y-48235400D01*
G37*
G36*
X121131700Y-48235400D02*
G01*
X121131700Y-46835400D01*
X122531700Y-46835400D01*
X122531700Y-48235400D01*
X121131700Y-48235400D01*
G37*
G36*
X121131700Y-60935400D02*
G01*
X121131700Y-59535400D01*
X122531700Y-59535400D01*
X122531700Y-60935400D01*
X121131700Y-60935400D01*
G37*
G36*
X121131700Y-68555400D02*
G01*
X121131700Y-67155400D01*
X122531700Y-67155400D01*
X122531700Y-68555400D01*
X121131700Y-68555400D01*
G37*
G36*
X119861700Y-50775400D02*
G01*
X119861700Y-49375400D01*
X121261700Y-49375400D01*
X121261700Y-50775400D01*
X119861700Y-50775400D01*
G37*
G36*
X112241700Y-66015400D02*
G01*
X112241700Y-64615400D01*
X113641700Y-64615400D01*
X113641700Y-66015400D01*
X112241700Y-66015400D01*
G37*
G36*
X121131700Y-50775400D02*
G01*
X121131700Y-49375400D01*
X122531700Y-49375400D01*
X122531700Y-50775400D01*
X121131700Y-50775400D01*
G37*
G36*
X110971700Y-48235400D02*
G01*
X110971700Y-46835400D01*
X112371700Y-46835400D01*
X112371700Y-48235400D01*
X110971700Y-48235400D01*
G37*
G36*
X110971700Y-45695400D02*
G01*
X110971700Y-44295400D01*
X112371700Y-44295400D01*
X112371700Y-45695400D01*
X110971700Y-45695400D01*
G37*
G36*
X121131700Y-43155400D02*
G01*
X121131700Y-41755400D01*
X122531700Y-41755400D01*
X122531700Y-43155400D01*
X121131700Y-43155400D01*
G37*
G36*
X112241700Y-43155400D02*
G01*
X112241700Y-41755400D01*
X113641700Y-41755400D01*
X113641700Y-43155400D01*
X112241700Y-43155400D01*
G37*
G36*
X121131700Y-45695400D02*
G01*
X121131700Y-44295400D01*
X122531700Y-44295400D01*
X122531700Y-45695400D01*
X121131700Y-45695400D01*
G37*
G36*
X121131700Y-55855400D02*
G01*
X121131700Y-54455400D01*
X122531700Y-54455400D01*
X122531700Y-55855400D01*
X121131700Y-55855400D01*
G37*
G36*
X121131700Y-63475400D02*
G01*
X121131700Y-62075400D01*
X122531700Y-62075400D01*
X122531700Y-63475400D01*
X121131700Y-63475400D01*
G37*
G36*
X112241700Y-55855400D02*
G01*
X112241700Y-54455400D01*
X113641700Y-54455400D01*
X113641700Y-55855400D01*
X112241700Y-55855400D01*
G37*
G36*
X119861700Y-48235400D02*
G01*
X119861700Y-46835400D01*
X121261700Y-46835400D01*
X121261700Y-48235400D01*
X119861700Y-48235400D01*
G37*
G36*
X110971700Y-63475400D02*
G01*
X110971700Y-62075400D01*
X112371700Y-62075400D01*
X112371700Y-63475400D01*
X110971700Y-63475400D01*
G37*
G36*
X119861700Y-68555400D02*
G01*
X119861700Y-67155400D01*
X121261700Y-67155400D01*
X121261700Y-68555400D01*
X119861700Y-68555400D01*
G37*
G36*
X119861700Y-53315400D02*
G01*
X119861700Y-51915400D01*
X121261700Y-51915400D01*
X121261700Y-53315400D01*
X119861700Y-53315400D01*
G37*
G36*
X119861700Y-58395400D02*
G01*
X119861700Y-56995400D01*
X121261700Y-56995400D01*
X121261700Y-58395400D01*
X119861700Y-58395400D01*
G37*
G36*
X121131700Y-58395400D02*
G01*
X121131700Y-56995400D01*
X122531700Y-56995400D01*
X122531700Y-58395400D01*
X121131700Y-58395400D01*
G37*
G36*
X112241700Y-63475400D02*
G01*
X112241700Y-62075400D01*
X113641700Y-62075400D01*
X113641700Y-63475400D01*
X112241700Y-63475400D01*
G37*
G36*
X121131700Y-40615400D02*
G01*
X121131700Y-39215400D01*
X122531700Y-39215400D01*
X122531700Y-40615400D01*
X121131700Y-40615400D01*
G37*
G36*
X119861700Y-60935400D02*
G01*
X119861700Y-59535400D01*
X121261700Y-59535400D01*
X121261700Y-60935400D01*
X119861700Y-60935400D01*
G37*
G36*
X119861700Y-55855400D02*
G01*
X119861700Y-54455400D01*
X121261700Y-54455400D01*
X121261700Y-55855400D01*
X119861700Y-55855400D01*
G37*
G36*
X119861700Y-40615400D02*
G01*
X119861700Y-39215400D01*
X121261700Y-39215400D01*
X121261700Y-40615400D01*
X119861700Y-40615400D01*
G37*
G36*
X112241700Y-68555400D02*
G01*
X112241700Y-67155400D01*
X113641700Y-67155400D01*
X113641700Y-68555400D01*
X112241700Y-68555400D01*
G37*
G36*
X110971700Y-50775400D02*
G01*
X110971700Y-49375400D01*
X112371700Y-49375400D01*
X112371700Y-50775400D01*
X110971700Y-50775400D01*
G37*
G36*
X119861700Y-45695400D02*
G01*
X119861700Y-44295400D01*
X121261700Y-44295400D01*
X121261700Y-45695400D01*
X119861700Y-45695400D01*
G37*
G36*
X119861700Y-63475400D02*
G01*
X119861700Y-62075400D01*
X121261700Y-62075400D01*
X121261700Y-63475400D01*
X119861700Y-63475400D01*
G37*
G36*
X112241700Y-60935400D02*
G01*
X112241700Y-59535400D01*
X113641700Y-59535400D01*
X113641700Y-60935400D01*
X112241700Y-60935400D01*
G37*
G36*
X110971700Y-43155400D02*
G01*
X110971700Y-41755400D01*
X112371700Y-41755400D01*
X112371700Y-43155400D01*
X110971700Y-43155400D01*
G37*
G36*
X110971700Y-40615400D02*
G01*
X110971700Y-39215400D01*
X112371700Y-39215400D01*
X112371700Y-40615400D01*
X110971700Y-40615400D01*
G37*
G36*
X112241700Y-53315400D02*
G01*
X112241700Y-51915400D01*
X113641700Y-51915400D01*
X113641700Y-53315400D01*
X112241700Y-53315400D01*
G37*
G36*
X119861700Y-43155400D02*
G01*
X119861700Y-41755400D01*
X121261700Y-41755400D01*
X121261700Y-43155400D01*
X119861700Y-43155400D01*
G37*
G36*
X110971700Y-66015400D02*
G01*
X110971700Y-64615400D01*
X112371700Y-64615400D01*
X112371700Y-66015400D01*
X110971700Y-66015400D01*
G37*
G36*
X112241700Y-58395400D02*
G01*
X112241700Y-56995400D01*
X113641700Y-56995400D01*
X113641700Y-58395400D01*
X112241700Y-58395400D01*
G37*
G36*
X110971700Y-60935400D02*
G01*
X110971700Y-59535400D01*
X112371700Y-59535400D01*
X112371700Y-60935400D01*
X110971700Y-60935400D01*
G37*
G36*
X110971700Y-58395400D02*
G01*
X110971700Y-56995400D01*
X112371700Y-56995400D01*
X112371700Y-58395400D01*
X110971700Y-58395400D01*
G37*
G36*
X112241700Y-45695400D02*
G01*
X112241700Y-44295400D01*
X113641700Y-44295400D01*
X113641700Y-45695400D01*
X112241700Y-45695400D01*
G37*
G36*
X112241700Y-50775400D02*
G01*
X112241700Y-49375400D01*
X113641700Y-49375400D01*
X113641700Y-50775400D01*
X112241700Y-50775400D01*
G37*
G36*
X121131700Y-66015400D02*
G01*
X121131700Y-64615400D01*
X122531700Y-64615400D01*
X122531700Y-66015400D01*
X121131700Y-66015400D01*
G37*
G36*
X121131700Y-55855400D02*
G01*
X121131700Y-54455400D01*
X122531700Y-54455400D01*
X122531700Y-55855400D01*
X121131700Y-55855400D01*
G37*
G36*
X110971700Y-55855400D02*
G01*
X110971700Y-54455400D01*
X112371700Y-54455400D01*
X112371700Y-55855400D01*
X110971700Y-55855400D01*
G37*
G36*
X119861700Y-55855400D02*
G01*
X119861700Y-54455400D01*
X121261700Y-54455400D01*
X121261700Y-55855400D01*
X119861700Y-55855400D01*
G37*
G36*
X112241700Y-55855400D02*
G01*
X112241700Y-54455400D01*
X113641700Y-54455400D01*
X113641700Y-55855400D01*
X112241700Y-55855400D01*
G37*
G36*
X121131700Y-58395400D02*
G01*
X121131700Y-56995400D01*
X122531700Y-56995400D01*
X122531700Y-58395400D01*
X121131700Y-58395400D01*
G37*
G36*
X110971700Y-58395400D02*
G01*
X110971700Y-56995400D01*
X112371700Y-56995400D01*
X112371700Y-58395400D01*
X110971700Y-58395400D01*
G37*
G36*
X119861700Y-58395400D02*
G01*
X119861700Y-56995400D01*
X121261700Y-56995400D01*
X121261700Y-58395400D01*
X119861700Y-58395400D01*
G37*
G36*
X112241700Y-58395400D02*
G01*
X112241700Y-56995400D01*
X113641700Y-56995400D01*
X113641700Y-58395400D01*
X112241700Y-58395400D01*
G37*
G36*
X121131700Y-60935400D02*
G01*
X121131700Y-59535400D01*
X122531700Y-59535400D01*
X122531700Y-60935400D01*
X121131700Y-60935400D01*
G37*
G36*
X110971700Y-60935400D02*
G01*
X110971700Y-59535400D01*
X112371700Y-59535400D01*
X112371700Y-60935400D01*
X110971700Y-60935400D01*
G37*
G36*
X119861700Y-60935400D02*
G01*
X119861700Y-59535400D01*
X121261700Y-59535400D01*
X121261700Y-60935400D01*
X119861700Y-60935400D01*
G37*
G36*
X112241700Y-60935400D02*
G01*
X112241700Y-59535400D01*
X113641700Y-59535400D01*
X113641700Y-60935400D01*
X112241700Y-60935400D01*
G37*
G36*
X121131700Y-63475400D02*
G01*
X121131700Y-62075400D01*
X122531700Y-62075400D01*
X122531700Y-63475400D01*
X121131700Y-63475400D01*
G37*
G36*
X110971700Y-63475400D02*
G01*
X110971700Y-62075400D01*
X112371700Y-62075400D01*
X112371700Y-63475400D01*
X110971700Y-63475400D01*
G37*
G36*
X119861700Y-63475400D02*
G01*
X119861700Y-62075400D01*
X121261700Y-62075400D01*
X121261700Y-63475400D01*
X119861700Y-63475400D01*
G37*
G36*
X112241700Y-63475400D02*
G01*
X112241700Y-62075400D01*
X113641700Y-62075400D01*
X113641700Y-63475400D01*
X112241700Y-63475400D01*
G37*
G36*
X121131700Y-66015400D02*
G01*
X121131700Y-64615400D01*
X122531700Y-64615400D01*
X122531700Y-66015400D01*
X121131700Y-66015400D01*
G37*
G36*
X110971700Y-66015400D02*
G01*
X110971700Y-64615400D01*
X112371700Y-64615400D01*
X112371700Y-66015400D01*
X110971700Y-66015400D01*
G37*
G36*
X119861700Y-66015400D02*
G01*
X119861700Y-64615400D01*
X121261700Y-64615400D01*
X121261700Y-66015400D01*
X119861700Y-66015400D01*
G37*
G36*
X112241700Y-66015400D02*
G01*
X112241700Y-64615400D01*
X113641700Y-64615400D01*
X113641700Y-66015400D01*
X112241700Y-66015400D01*
G37*
G36*
X121131700Y-68555400D02*
G01*
X121131700Y-67155400D01*
X122531700Y-67155400D01*
X122531700Y-68555400D01*
X121131700Y-68555400D01*
G37*
G36*
X110971700Y-68555400D02*
G01*
X110971700Y-67155400D01*
X112371700Y-67155400D01*
X112371700Y-68555400D01*
X110971700Y-68555400D01*
G37*
G36*
X119861700Y-68555400D02*
G01*
X119861700Y-67155400D01*
X121261700Y-67155400D01*
X121261700Y-68555400D01*
X119861700Y-68555400D01*
G37*
G36*
X112241700Y-68555400D02*
G01*
X112241700Y-67155400D01*
X113641700Y-67155400D01*
X113641700Y-68555400D01*
X112241700Y-68555400D01*
G37*
G36*
X121131700Y-53315400D02*
G01*
X121131700Y-51915400D01*
X122531700Y-51915400D01*
X122531700Y-53315400D01*
X121131700Y-53315400D01*
G37*
G36*
X110971700Y-53315400D02*
G01*
X110971700Y-51915400D01*
X112371700Y-51915400D01*
X112371700Y-53315400D01*
X110971700Y-53315400D01*
G37*
G36*
X119861700Y-53315400D02*
G01*
X119861700Y-51915400D01*
X121261700Y-51915400D01*
X121261700Y-53315400D01*
X119861700Y-53315400D01*
G37*
G36*
X112241700Y-53315400D02*
G01*
X112241700Y-51915400D01*
X113641700Y-51915400D01*
X113641700Y-53315400D01*
X112241700Y-53315400D01*
G37*
G36*
X121131700Y-50775400D02*
G01*
X121131700Y-49375400D01*
X122531700Y-49375400D01*
X122531700Y-50775400D01*
X121131700Y-50775400D01*
G37*
G36*
X110971700Y-50775400D02*
G01*
X110971700Y-49375400D01*
X112371700Y-49375400D01*
X112371700Y-50775400D01*
X110971700Y-50775400D01*
G37*
G36*
X119861700Y-50775400D02*
G01*
X119861700Y-49375400D01*
X121261700Y-49375400D01*
X121261700Y-50775400D01*
X119861700Y-50775400D01*
G37*
G36*
X112241700Y-50775400D02*
G01*
X112241700Y-49375400D01*
X113641700Y-49375400D01*
X113641700Y-50775400D01*
X112241700Y-50775400D01*
G37*
G36*
X121131700Y-48235400D02*
G01*
X121131700Y-46835400D01*
X122531700Y-46835400D01*
X122531700Y-48235400D01*
X121131700Y-48235400D01*
G37*
G36*
X110971700Y-48235400D02*
G01*
X110971700Y-46835400D01*
X112371700Y-46835400D01*
X112371700Y-48235400D01*
X110971700Y-48235400D01*
G37*
G36*
X119861700Y-48235400D02*
G01*
X119861700Y-46835400D01*
X121261700Y-46835400D01*
X121261700Y-48235400D01*
X119861700Y-48235400D01*
G37*
G36*
X112241700Y-48235400D02*
G01*
X112241700Y-46835400D01*
X113641700Y-46835400D01*
X113641700Y-48235400D01*
X112241700Y-48235400D01*
G37*
G36*
X121131700Y-45695400D02*
G01*
X121131700Y-44295400D01*
X122531700Y-44295400D01*
X122531700Y-45695400D01*
X121131700Y-45695400D01*
G37*
G36*
X110971700Y-45695400D02*
G01*
X110971700Y-44295400D01*
X112371700Y-44295400D01*
X112371700Y-45695400D01*
X110971700Y-45695400D01*
G37*
G36*
X119861700Y-45695400D02*
G01*
X119861700Y-44295400D01*
X121261700Y-44295400D01*
X121261700Y-45695400D01*
X119861700Y-45695400D01*
G37*
G36*
X112241700Y-45695400D02*
G01*
X112241700Y-44295400D01*
X113641700Y-44295400D01*
X113641700Y-45695400D01*
X112241700Y-45695400D01*
G37*
G36*
X121131700Y-43155400D02*
G01*
X121131700Y-41755400D01*
X122531700Y-41755400D01*
X122531700Y-43155400D01*
X121131700Y-43155400D01*
G37*
G36*
X110971700Y-43155400D02*
G01*
X110971700Y-41755400D01*
X112371700Y-41755400D01*
X112371700Y-43155400D01*
X110971700Y-43155400D01*
G37*
G36*
X119861700Y-43155400D02*
G01*
X119861700Y-41755400D01*
X121261700Y-41755400D01*
X121261700Y-43155400D01*
X119861700Y-43155400D01*
G37*
G36*
X112241700Y-43155400D02*
G01*
X112241700Y-41755400D01*
X113641700Y-41755400D01*
X113641700Y-43155400D01*
X112241700Y-43155400D01*
G37*
G36*
X119861700Y-40615400D02*
G01*
X119861700Y-39215400D01*
X121261700Y-39215400D01*
X121261700Y-40615400D01*
X119861700Y-40615400D01*
G37*
G36*
X121131700Y-40615400D02*
G01*
X121131700Y-39215400D01*
X122531700Y-39215400D01*
X122531700Y-40615400D01*
X121131700Y-40615400D01*
G37*
G36*
X112241700Y-40615400D02*
G01*
X112241700Y-39215400D01*
X113641700Y-39215400D01*
X113641700Y-40615400D01*
X112241700Y-40615400D01*
G37*
G36*
X110971700Y-40615400D02*
G01*
X110971700Y-39215400D01*
X112371700Y-39215400D01*
X112371700Y-40615400D01*
X110971700Y-40615400D01*
G37*
D13*
X124408100Y-40042400D03*
X124408100Y-42582400D03*
X124408100Y-45122400D03*
X124408100Y-47662400D03*
X124408100Y-50202400D03*
X124408100Y-52742400D03*
X124408100Y-55282400D03*
X124408100Y-57822400D03*
X124408100Y-60362400D03*
X124408100Y-62902400D03*
X124408100Y-65442400D03*
X124408100Y-67982400D03*
X109188100Y-67982400D03*
X109188100Y-65442400D03*
X109188100Y-62902400D03*
X109188100Y-60362400D03*
X109188100Y-57822400D03*
X109188100Y-55282400D03*
X109188100Y-52742400D03*
X109188100Y-50202400D03*
X109188100Y-47662400D03*
X109188100Y-45122400D03*
X109188100Y-42582400D03*
X109188100Y-40042400D03*
D14*
X115900800Y-65112200D03*
X115900800Y-67652200D03*
G36*
G01*
X116238300Y-66157200D02*
X115563300Y-66157200D01*
G75*
G02*
X115225800Y-65819700I0J337500D01*
G01*
X115225800Y-65119700D01*
G75*
G02*
X115563300Y-64782200I337500J0D01*
G01*
X116238300Y-64782200D01*
G75*
G02*
X116575800Y-65119700I0J-337500D01*
G01*
X116575800Y-65819700D01*
G75*
G02*
X116238300Y-66157200I-337500J0D01*
G01*
G37*
G36*
G01*
X116238300Y-67982200D02*
X115563300Y-67982200D01*
G75*
G02*
X115225800Y-67644700I0J337500D01*
G01*
X115225800Y-66944700D01*
G75*
G02*
X115563300Y-66607200I337500J0D01*
G01*
X116238300Y-66607200D01*
G75*
G02*
X116575800Y-66944700I0J-337500D01*
G01*
X116575800Y-67644700D01*
G75*
G02*
X116238300Y-67982200I-337500J0D01*
G01*
G37*
G36*
G01*
X116238300Y-67982200D02*
X115563300Y-67982200D01*
G75*
G02*
X115225800Y-67644700I0J337500D01*
G01*
X115225800Y-66944700D01*
G75*
G02*
X115563300Y-66607200I337500J0D01*
G01*
X116238300Y-66607200D01*
G75*
G02*
X116575800Y-66944700I0J-337500D01*
G01*
X116575800Y-67644700D01*
G75*
G02*
X116238300Y-67982200I-337500J0D01*
G01*
G37*
G36*
G01*
X116238300Y-66157200D02*
X115563300Y-66157200D01*
G75*
G02*
X115225800Y-65819700I0J337500D01*
G01*
X115225800Y-65119700D01*
G75*
G02*
X115563300Y-64782200I337500J0D01*
G01*
X116238300Y-64782200D01*
G75*
G02*
X116575800Y-65119700I0J-337500D01*
G01*
X116575800Y-65819700D01*
G75*
G02*
X116238300Y-66157200I-337500J0D01*
G01*
G37*
X117958200Y-65137600D03*
X117958200Y-67677600D03*
G36*
G01*
X118295700Y-66182600D02*
X117620700Y-66182600D01*
G75*
G02*
X117283200Y-65845100I0J337500D01*
G01*
X117283200Y-65145100D01*
G75*
G02*
X117620700Y-64807600I337500J0D01*
G01*
X118295700Y-64807600D01*
G75*
G02*
X118633200Y-65145100I0J-337500D01*
G01*
X118633200Y-65845100D01*
G75*
G02*
X118295700Y-66182600I-337500J0D01*
G01*
G37*
G36*
G01*
X118295700Y-68007600D02*
X117620700Y-68007600D01*
G75*
G02*
X117283200Y-67670100I0J337500D01*
G01*
X117283200Y-66970100D01*
G75*
G02*
X117620700Y-66632600I337500J0D01*
G01*
X118295700Y-66632600D01*
G75*
G02*
X118633200Y-66970100I0J-337500D01*
G01*
X118633200Y-67670100D01*
G75*
G02*
X118295700Y-68007600I-337500J0D01*
G01*
G37*
G36*
G01*
X118295700Y-68007600D02*
X117620700Y-68007600D01*
G75*
G02*
X117283200Y-67670100I0J337500D01*
G01*
X117283200Y-66970100D01*
G75*
G02*
X117620700Y-66632600I337500J0D01*
G01*
X118295700Y-66632600D01*
G75*
G02*
X118633200Y-66970100I0J-337500D01*
G01*
X118633200Y-67670100D01*
G75*
G02*
X118295700Y-68007600I-337500J0D01*
G01*
G37*
G36*
G01*
X118295700Y-66182600D02*
X117620700Y-66182600D01*
G75*
G02*
X117283200Y-65845100I0J337500D01*
G01*
X117283200Y-65145100D01*
G75*
G02*
X117620700Y-64807600I337500J0D01*
G01*
X118295700Y-64807600D01*
G75*
G02*
X118633200Y-65145100I0J-337500D01*
G01*
X118633200Y-65845100D01*
G75*
G02*
X118295700Y-66182600I-337500J0D01*
G01*
G37*
G36*
G01*
X125513800Y-71593300D02*
X123813800Y-71593300D01*
G75*
G02*
X123613800Y-71393300I0J200000D01*
G01*
X123613800Y-70493300D01*
G75*
G02*
X123813800Y-70293300I200000J0D01*
G01*
X125513800Y-70293300D01*
G75*
G02*
X125713800Y-70493300I0J-200000D01*
G01*
X125713800Y-71393300D01*
G75*
G02*
X125513800Y-71593300I-200000J0D01*
G01*
G37*
G36*
G01*
X125513800Y-74993300D02*
X123813800Y-74993300D01*
G75*
G02*
X123613800Y-74793300I0J200000D01*
G01*
X123613800Y-73893300D01*
G75*
G02*
X123813800Y-73693300I200000J0D01*
G01*
X125513800Y-73693300D01*
G75*
G02*
X125713800Y-73893300I0J-200000D01*
G01*
X125713800Y-74793300D01*
G75*
G02*
X125513800Y-74993300I-200000J0D01*
G01*
G37*
D15*
X118264400Y-36931100D03*
X115264400Y-36931100D03*
X115264400Y-36931100D03*
X118264400Y-36931100D03*
G36*
G01*
X113964400Y-39441100D02*
X113964400Y-37941100D01*
G75*
G02*
X114164400Y-37741100I200000J0D01*
G01*
X114864400Y-37741100D01*
G75*
G02*
X115064400Y-37941100I0J-200000D01*
G01*
X115064400Y-39441100D01*
G75*
G02*
X114864400Y-39641100I-200000J0D01*
G01*
X114164400Y-39641100D01*
G75*
G02*
X113964400Y-39441100I0J200000D01*
G01*
G37*
G36*
G01*
X116964400Y-39441100D02*
X116964400Y-37941100D01*
G75*
G02*
X117164400Y-37741100I200000J0D01*
G01*
X117864400Y-37741100D01*
G75*
G02*
X118064400Y-37941100I0J-200000D01*
G01*
X118064400Y-39441100D01*
G75*
G02*
X117864400Y-39641100I-200000J0D01*
G01*
X117164400Y-39641100D01*
G75*
G02*
X116964400Y-39441100I0J200000D01*
G01*
G37*
G36*
G01*
X118464400Y-39441100D02*
X118464400Y-37941100D01*
G75*
G02*
X118664400Y-37741100I200000J0D01*
G01*
X119364400Y-37741100D01*
G75*
G02*
X119564400Y-37941100I0J-200000D01*
G01*
X119564400Y-39441100D01*
G75*
G02*
X119364400Y-39641100I-200000J0D01*
G01*
X118664400Y-39641100D01*
G75*
G02*
X118464400Y-39441100I0J200000D01*
G01*
G37*
G36*
G01*
X112414400Y-36231100D02*
X112414400Y-35431100D01*
G75*
G02*
X112614400Y-35231100I200000J0D01*
G01*
X113614400Y-35231100D01*
G75*
G02*
X113814400Y-35431100I0J-200000D01*
G01*
X113814400Y-36231100D01*
G75*
G02*
X113614400Y-36431100I-200000J0D01*
G01*
X112614400Y-36431100D01*
G75*
G02*
X112414400Y-36231100I0J200000D01*
G01*
G37*
G36*
G01*
X119714400Y-36231100D02*
X119714400Y-35431100D01*
G75*
G02*
X119914400Y-35231100I200000J0D01*
G01*
X120914400Y-35231100D01*
G75*
G02*
X121114400Y-35431100I0J-200000D01*
G01*
X121114400Y-36231100D01*
G75*
G02*
X120914400Y-36431100I-200000J0D01*
G01*
X119914400Y-36431100D01*
G75*
G02*
X119714400Y-36231100I0J200000D01*
G01*
G37*
G36*
G01*
X119714400Y-38441100D02*
X119714400Y-37641100D01*
G75*
G02*
X119914400Y-37441100I200000J0D01*
G01*
X120914400Y-37441100D01*
G75*
G02*
X121114400Y-37641100I0J-200000D01*
G01*
X121114400Y-38441100D01*
G75*
G02*
X120914400Y-38641100I-200000J0D01*
G01*
X119914400Y-38641100D01*
G75*
G02*
X119714400Y-38441100I0J200000D01*
G01*
G37*
G36*
G01*
X112414400Y-38441100D02*
X112414400Y-37641100D01*
G75*
G02*
X112614400Y-37441100I200000J0D01*
G01*
X113614400Y-37441100D01*
G75*
G02*
X113814400Y-37641100I0J-200000D01*
G01*
X113814400Y-38441100D01*
G75*
G02*
X113614400Y-38641100I-200000J0D01*
G01*
X112614400Y-38641100D01*
G75*
G02*
X112414400Y-38441100I0J200000D01*
G01*
G37*
G36*
G01*
X120028300Y-68874900D02*
X121171300Y-68874900D01*
G75*
G02*
X121371300Y-69074900I0J-200000D01*
G01*
X121371300Y-69709900D01*
G75*
G02*
X121171300Y-69909900I-200000J0D01*
G01*
X120028300Y-69909900D01*
G75*
G02*
X119828300Y-69709900I0J200000D01*
G01*
X119828300Y-69074900D01*
G75*
G02*
X120028300Y-68874900I200000J0D01*
G01*
G37*
G36*
G01*
X120028300Y-69875660D02*
X121171300Y-69875660D01*
G75*
G02*
X121371300Y-70075660I0J-200000D01*
G01*
X121371300Y-70710660D01*
G75*
G02*
X121171300Y-70910660I-200000J0D01*
G01*
X120028300Y-70910660D01*
G75*
G02*
X119828300Y-70710660I0J200000D01*
G01*
X119828300Y-70075660D01*
G75*
G02*
X120028300Y-69875660I200000J0D01*
G01*
G37*
G36*
G01*
X117488300Y-68874900D02*
X118631300Y-68874900D01*
G75*
G02*
X118831300Y-69074900I0J-200000D01*
G01*
X118831300Y-69709900D01*
G75*
G02*
X118631300Y-69909900I-200000J0D01*
G01*
X117488300Y-69909900D01*
G75*
G02*
X117288300Y-69709900I0J200000D01*
G01*
X117288300Y-69074900D01*
G75*
G02*
X117488300Y-68874900I200000J0D01*
G01*
G37*
G36*
G01*
X117488300Y-69875660D02*
X118631300Y-69875660D01*
G75*
G02*
X118831300Y-70075660I0J-200000D01*
G01*
X118831300Y-70710660D01*
G75*
G02*
X118631300Y-70910660I-200000J0D01*
G01*
X117488300Y-70910660D01*
G75*
G02*
X117288300Y-70710660I0J200000D01*
G01*
X117288300Y-70075660D01*
G75*
G02*
X117488300Y-69875660I200000J0D01*
G01*
G37*
G36*
G01*
X114961000Y-68874900D02*
X116104000Y-68874900D01*
G75*
G02*
X116304000Y-69074900I0J-200000D01*
G01*
X116304000Y-69709900D01*
G75*
G02*
X116104000Y-69909900I-200000J0D01*
G01*
X114961000Y-69909900D01*
G75*
G02*
X114761000Y-69709900I0J200000D01*
G01*
X114761000Y-69074900D01*
G75*
G02*
X114961000Y-68874900I200000J0D01*
G01*
G37*
G36*
G01*
X114961000Y-69875660D02*
X116104000Y-69875660D01*
G75*
G02*
X116304000Y-70075660I0J-200000D01*
G01*
X116304000Y-70710660D01*
G75*
G02*
X116104000Y-70910660I-200000J0D01*
G01*
X114961000Y-70910660D01*
G75*
G02*
X114761000Y-70710660I0J200000D01*
G01*
X114761000Y-70075660D01*
G75*
G02*
X114961000Y-69875660I200000J0D01*
G01*
G37*
G36*
G01*
X112421000Y-68882520D02*
X113564000Y-68882520D01*
G75*
G02*
X113764000Y-69082520I0J-200000D01*
G01*
X113764000Y-69717520D01*
G75*
G02*
X113564000Y-69917520I-200000J0D01*
G01*
X112421000Y-69917520D01*
G75*
G02*
X112221000Y-69717520I0J200000D01*
G01*
X112221000Y-69082520D01*
G75*
G02*
X112421000Y-68882520I200000J0D01*
G01*
G37*
G36*
G01*
X112421000Y-69883280D02*
X113564000Y-69883280D01*
G75*
G02*
X113764000Y-70083280I0J-200000D01*
G01*
X113764000Y-70718280D01*
G75*
G02*
X113564000Y-70918280I-200000J0D01*
G01*
X112421000Y-70918280D01*
G75*
G02*
X112221000Y-70718280I0J200000D01*
G01*
X112221000Y-70083280D01*
G75*
G02*
X112421000Y-69883280I200000J0D01*
G01*
G37*
D16*
X112992500Y-72338500D03*
X115532500Y-72338500D03*
X118072500Y-72338500D03*
X120612500Y-72338500D03*
G36*
G01*
X123624300Y-37691600D02*
X122274300Y-37691600D01*
G75*
G02*
X122074300Y-37491600I0J200000D01*
G01*
X122074300Y-36141600D01*
G75*
G02*
X122274300Y-35941600I200000J0D01*
G01*
X123624300Y-35941600D01*
G75*
G02*
X123824300Y-36141600I0J-200000D01*
G01*
X123824300Y-37491600D01*
G75*
G02*
X123624300Y-37691600I-200000J0D01*
G01*
G37*
D17*
X124949300Y-36816600D03*
M02*
