G04 #@! TF.GenerationSoftware,KiCad,Pcbnew,5.1.9*
G04 #@! TF.CreationDate,2021-04-16T07:13:37-05:00*
G04 #@! TF.ProjectId,artboard,61727462-6f61-4726-942e-6b696361645f,2.0*
G04 #@! TF.SameCoordinates,Original*
G04 #@! TF.FileFunction,Legend,Top*
G04 #@! TF.FilePolarity,Positive*
%FSLAX46Y46*%
G04 Gerber Fmt 4.6, Leading zero omitted, Abs format (unit mm)*
G04 Created by KiCad (PCBNEW 5.1.9) date 2021-04-16 07:13:37*
%MOMM*%
%LPD*%
G01*
G04 APERTURE LIST*
%ADD10C,0.120000*%
%ADD11C,0.150000*%
G04 APERTURE END LIST*
D10*
X115378300Y-65555724D02*
X115378300Y-65046276D01*
X116423300Y-65555724D02*
X116423300Y-65046276D01*
X117435700Y-65581124D02*
X117435700Y-65071676D01*
X118480700Y-65581124D02*
X118480700Y-65071676D01*
D11*
X123165100Y-67040900D02*
X123165100Y-36560900D01*
X125705100Y-67040900D02*
X123165100Y-67040900D01*
X125705100Y-36560900D02*
X125705100Y-67040900D01*
X123165100Y-36560900D02*
X125705100Y-36560900D01*
X107945100Y-67040900D02*
X107945100Y-36560900D01*
X110485100Y-67040900D02*
X107945100Y-67040900D01*
X110485100Y-36560900D02*
X110485100Y-67040900D01*
X107945100Y-36560900D02*
X110485100Y-36560900D01*
D10*
X84612700Y-74627300D02*
X85112700Y-74247300D01*
X85112700Y-74247300D02*
X85112700Y-73927300D01*
X84612700Y-74627300D02*
X83612700Y-74627300D01*
X83612700Y-74627300D02*
X83112700Y-74247300D01*
X83112700Y-74247300D02*
X83112700Y-73927300D01*
X85762700Y-71127300D02*
X82462700Y-71127300D01*
X85762700Y-71427300D02*
X85762700Y-71127300D01*
X82462700Y-71127300D02*
X82462700Y-71427300D01*
X85762700Y-73627300D02*
X85762700Y-73927300D01*
X85762700Y-73927300D02*
X82462700Y-73927300D01*
X82462700Y-73927300D02*
X82462700Y-73627300D01*
X80095100Y-72358300D02*
X80095100Y-71568300D01*
X73195100Y-71568300D02*
X73195100Y-72358300D01*
X75045100Y-70518300D02*
X76745100Y-70518300D01*
X73795100Y-73368300D02*
X79495100Y-73368300D01*
X76545100Y-74658300D02*
X76545100Y-73368300D01*
X75445100Y-74868300D02*
X76345100Y-74868300D01*
X75245100Y-73368300D02*
X75245100Y-74658300D01*
X76545100Y-74658300D02*
X76345100Y-74868300D01*
X75245100Y-74658300D02*
X75445100Y-74868300D01*
X78045100Y-70518300D02*
X78245100Y-70518300D01*
D11*
X119710800Y-67676200D02*
X121488800Y-67676200D01*
X119710800Y-69962200D02*
X119710800Y-67676200D01*
X121488800Y-69962200D02*
X119710800Y-69962200D01*
X121488800Y-67676200D02*
X121488800Y-69962200D01*
X117170800Y-67676200D02*
X118948800Y-67676200D01*
X117170800Y-69962200D02*
X117170800Y-67676200D01*
X118948800Y-69962200D02*
X117170800Y-69962200D01*
X118948800Y-67676200D02*
X118948800Y-69962200D01*
X114643500Y-67676200D02*
X116421500Y-67676200D01*
X114643500Y-69962200D02*
X114643500Y-67676200D01*
X116421500Y-69962200D02*
X114643500Y-69962200D01*
X116421500Y-67676200D02*
X116421500Y-69962200D01*
X112103500Y-67676200D02*
X113881500Y-67676200D01*
X112103500Y-69962200D02*
X112103500Y-67676200D01*
X113881500Y-69962200D02*
X112103500Y-69962200D01*
X113881500Y-67676200D02*
X113881500Y-69962200D01*
X121844400Y-70419100D02*
X111684400Y-70419100D01*
X121844400Y-72959100D02*
X111684400Y-72959100D01*
X111684400Y-72959100D02*
X111684400Y-70419100D01*
X121844400Y-70419100D02*
X121844400Y-72959100D01*
D10*
X110725100Y-72114100D02*
X109665100Y-72114100D01*
X110725100Y-71054100D02*
X110725100Y-72114100D01*
X110725100Y-70054100D02*
X108605100Y-70054100D01*
X108605100Y-70054100D02*
X108605100Y-67994100D01*
X110725100Y-70054100D02*
X110725100Y-67994100D01*
X110725100Y-67994100D02*
X108605100Y-67994100D01*
D11*
X114923180Y-65467666D02*
X114446990Y-65801000D01*
X114923180Y-66039095D02*
X113923180Y-66039095D01*
X113923180Y-65658142D01*
X113970800Y-65562904D01*
X114018419Y-65515285D01*
X114113657Y-65467666D01*
X114256514Y-65467666D01*
X114351752Y-65515285D01*
X114399371Y-65562904D01*
X114446990Y-65658142D01*
X114446990Y-66039095D01*
X114018419Y-65086714D02*
X113970800Y-65039095D01*
X113923180Y-64943857D01*
X113923180Y-64705761D01*
X113970800Y-64610523D01*
X114018419Y-64562904D01*
X114113657Y-64515285D01*
X114208895Y-64515285D01*
X114351752Y-64562904D01*
X114923180Y-65134333D01*
X114923180Y-64515285D01*
X116980580Y-65493066D02*
X116504390Y-65826400D01*
X116980580Y-66064495D02*
X115980580Y-66064495D01*
X115980580Y-65683542D01*
X116028200Y-65588304D01*
X116075819Y-65540685D01*
X116171057Y-65493066D01*
X116313914Y-65493066D01*
X116409152Y-65540685D01*
X116456771Y-65588304D01*
X116504390Y-65683542D01*
X116504390Y-66064495D01*
X116980580Y-64540685D02*
X116980580Y-65112114D01*
X116980580Y-64826400D02*
X115980580Y-64826400D01*
X116123438Y-64921638D01*
X116218676Y-65016876D01*
X116266295Y-65112114D01*
X82898414Y-75979680D02*
X82565080Y-75503490D01*
X82326985Y-75979680D02*
X82326985Y-74979680D01*
X82707938Y-74979680D01*
X82803176Y-75027300D01*
X82850795Y-75074919D01*
X82898414Y-75170157D01*
X82898414Y-75313014D01*
X82850795Y-75408252D01*
X82803176Y-75455871D01*
X82707938Y-75503490D01*
X82326985Y-75503490D01*
X83279366Y-75932061D02*
X83422223Y-75979680D01*
X83660319Y-75979680D01*
X83755557Y-75932061D01*
X83803176Y-75884442D01*
X83850795Y-75789204D01*
X83850795Y-75693966D01*
X83803176Y-75598728D01*
X83755557Y-75551109D01*
X83660319Y-75503490D01*
X83469842Y-75455871D01*
X83374604Y-75408252D01*
X83326985Y-75360633D01*
X83279366Y-75265395D01*
X83279366Y-75170157D01*
X83326985Y-75074919D01*
X83374604Y-75027300D01*
X83469842Y-74979680D01*
X83707938Y-74979680D01*
X83850795Y-75027300D01*
X84184128Y-74979680D02*
X84422223Y-75979680D01*
X84612700Y-75265395D01*
X84803176Y-75979680D01*
X85041271Y-74979680D01*
X85946033Y-75979680D02*
X85374604Y-75979680D01*
X85660319Y-75979680D02*
X85660319Y-74979680D01*
X85565080Y-75122538D01*
X85469842Y-75217776D01*
X85374604Y-75265395D01*
X74835576Y-68843061D02*
X74978433Y-68890680D01*
X75216528Y-68890680D01*
X75311766Y-68843061D01*
X75359385Y-68795442D01*
X75407004Y-68700204D01*
X75407004Y-68604966D01*
X75359385Y-68509728D01*
X75311766Y-68462109D01*
X75216528Y-68414490D01*
X75026052Y-68366871D01*
X74930814Y-68319252D01*
X74883195Y-68271633D01*
X74835576Y-68176395D01*
X74835576Y-68081157D01*
X74883195Y-67985919D01*
X74930814Y-67938300D01*
X75026052Y-67890680D01*
X75264147Y-67890680D01*
X75407004Y-67938300D01*
X75740338Y-67890680D02*
X75978433Y-68890680D01*
X76168909Y-68176395D01*
X76359385Y-68890680D01*
X76597480Y-67890680D01*
X76930814Y-67985919D02*
X76978433Y-67938300D01*
X77073671Y-67890680D01*
X77311766Y-67890680D01*
X77407004Y-67938300D01*
X77454623Y-67985919D01*
X77502242Y-68081157D01*
X77502242Y-68176395D01*
X77454623Y-68319252D01*
X76883195Y-68890680D01*
X77502242Y-68890680D01*
X77835576Y-67890680D02*
X78454623Y-67890680D01*
X78121290Y-68271633D01*
X78264147Y-68271633D01*
X78359385Y-68319252D01*
X78407004Y-68366871D01*
X78454623Y-68462109D01*
X78454623Y-68700204D01*
X78407004Y-68795442D01*
X78359385Y-68843061D01*
X78264147Y-68890680D01*
X77978433Y-68890680D01*
X77883195Y-68843061D01*
X77835576Y-68795442D01*
X115322019Y-73241480D02*
X115512495Y-73241480D01*
X115607733Y-73289100D01*
X115702971Y-73384338D01*
X115750590Y-73574814D01*
X115750590Y-73908147D01*
X115702971Y-74098623D01*
X115607733Y-74193861D01*
X115512495Y-74241480D01*
X115322019Y-74241480D01*
X115226780Y-74193861D01*
X115131542Y-74098623D01*
X115083923Y-73908147D01*
X115083923Y-73574814D01*
X115131542Y-73384338D01*
X115226780Y-73289100D01*
X115322019Y-73241480D01*
X116655352Y-74241480D02*
X116179161Y-74241480D01*
X116179161Y-73241480D01*
X116988685Y-73717671D02*
X117322019Y-73717671D01*
X117464876Y-74241480D02*
X116988685Y-74241480D01*
X116988685Y-73241480D01*
X117464876Y-73241480D01*
X117893447Y-74241480D02*
X117893447Y-73241480D01*
X118131542Y-73241480D01*
X118274400Y-73289100D01*
X118369638Y-73384338D01*
X118417257Y-73479576D01*
X118464876Y-73670052D01*
X118464876Y-73812909D01*
X118417257Y-74003385D01*
X118369638Y-74098623D01*
X118274400Y-74193861D01*
X118131542Y-74241480D01*
X117893447Y-74241480D01*
X108879385Y-73042671D02*
X109022242Y-73090290D01*
X109069861Y-73137909D01*
X109117480Y-73233147D01*
X109117480Y-73376004D01*
X109069861Y-73471242D01*
X109022242Y-73518861D01*
X108927004Y-73566480D01*
X108546052Y-73566480D01*
X108546052Y-72566480D01*
X108879385Y-72566480D01*
X108974623Y-72614100D01*
X109022242Y-72661719D01*
X109069861Y-72756957D01*
X109069861Y-72852195D01*
X109022242Y-72947433D01*
X108974623Y-72995052D01*
X108879385Y-73042671D01*
X108546052Y-73042671D01*
X109403195Y-72566480D02*
X109974623Y-72566480D01*
X109688909Y-73566480D02*
X109688909Y-72566480D01*
X110831766Y-73566480D02*
X110260338Y-73566480D01*
X110546052Y-73566480D02*
X110546052Y-72566480D01*
X110450814Y-72709338D01*
X110355576Y-72804576D01*
X110260338Y-72852195D01*
M02*
