G04 #@! TF.GenerationSoftware,KiCad,Pcbnew,5.1.9*
G04 #@! TF.CreationDate,2021-04-21T20:38:48-05:00*
G04 #@! TF.ProjectId,artboard,61727462-6f61-4726-942e-6b696361645f,0.1*
G04 #@! TF.SameCoordinates,Original*
G04 #@! TF.FileFunction,Legend,Bot*
G04 #@! TF.FilePolarity,Positive*
%FSLAX46Y46*%
G04 Gerber Fmt 4.6, Leading zero omitted, Abs format (unit mm)*
G04 Created by KiCad (PCBNEW 5.1.9) date 2021-04-21 20:38:48*
%MOMM*%
%LPD*%
G01*
G04 APERTURE LIST*
%ADD10C,0.150000*%
%ADD11C,0.120000*%
G04 APERTURE END LIST*
D10*
X72987500Y-56792000D02*
X72987500Y-57173000D01*
X75527500Y-50823000D02*
X84417500Y-50823000D01*
X73368500Y-57173000D02*
X72987500Y-57173000D01*
X84417500Y-50823000D02*
X84417500Y-51204000D01*
X72987500Y-53363000D02*
X72987500Y-53744000D01*
X84417500Y-54252000D02*
X84417500Y-55268000D01*
X76873338Y-57173000D02*
X75146500Y-57173000D01*
X84417500Y-55268000D02*
X79337500Y-55268000D01*
X72337500Y-59308000D02*
X72337500Y-59808000D01*
X81337500Y-62008000D02*
X80837500Y-61508000D01*
X72337500Y-64008000D02*
X76837500Y-64008000D01*
X80837500Y-66008000D02*
X77837500Y-66008000D01*
X77337500Y-64508000D02*
X77337500Y-65508000D01*
X80837500Y-61508000D02*
X78337500Y-61508000D01*
X81337500Y-65508000D02*
X80837500Y-66008000D01*
X77837500Y-66008000D02*
X77337500Y-65508000D01*
X76837500Y-59308000D02*
X72337500Y-59308000D01*
X72337500Y-63408000D02*
X72337500Y-64008000D01*
X76837500Y-60008000D02*
X76837500Y-59308000D01*
X78337500Y-61508000D02*
G75*
G02*
X76837500Y-60008000I0J1500000D01*
G01*
X76837500Y-64008000D02*
G75*
G02*
X77337500Y-64508000I0J-500000D01*
G01*
X72987500Y-53363000D02*
G75*
G02*
X75527500Y-50823000I2540000J0D01*
G01*
X76873338Y-57191960D02*
G75*
G02*
X79337500Y-55268000I2464162J-616040D01*
G01*
X34849400Y-47942900D02*
X34849400Y-48323900D01*
X37389400Y-41973900D02*
X46279400Y-41973900D01*
X35230400Y-48323900D02*
X34849400Y-48323900D01*
X46279400Y-41973900D02*
X46279400Y-42354900D01*
X34849400Y-44513900D02*
X34849400Y-44894900D01*
X46279400Y-45402900D02*
X46279400Y-46418900D01*
X38735238Y-48323900D02*
X37008400Y-48323900D01*
X46279400Y-46418900D02*
X41199400Y-46418900D01*
X34199400Y-50458900D02*
X34199400Y-50958900D01*
X43199400Y-53158900D02*
X42699400Y-52658900D01*
X34199400Y-55158900D02*
X38699400Y-55158900D01*
X42699400Y-57158900D02*
X39699400Y-57158900D01*
X39199400Y-55658900D02*
X39199400Y-56658900D01*
X42699400Y-52658900D02*
X40199400Y-52658900D01*
X43199400Y-56658900D02*
X42699400Y-57158900D01*
X39699400Y-57158900D02*
X39199400Y-56658900D01*
X38699400Y-50458900D02*
X34199400Y-50458900D01*
X34199400Y-54558900D02*
X34199400Y-55158900D01*
X38699400Y-51158900D02*
X38699400Y-50458900D01*
X40199400Y-52658900D02*
G75*
G02*
X38699400Y-51158900I0J1500000D01*
G01*
X38699400Y-55158900D02*
G75*
G02*
X39199400Y-55658900I0J-500000D01*
G01*
X34849400Y-44513900D02*
G75*
G02*
X37389400Y-41973900I2540000J0D01*
G01*
X38735238Y-48342860D02*
G75*
G02*
X41199400Y-46418900I2464162J-616040D01*
G01*
X53924800Y-40459800D02*
X53924800Y-40840800D01*
X56464800Y-34490800D02*
X65354800Y-34490800D01*
X54305800Y-40840800D02*
X53924800Y-40840800D01*
X65354800Y-34490800D02*
X65354800Y-34871800D01*
X53924800Y-37030800D02*
X53924800Y-37411800D01*
X65354800Y-37919800D02*
X65354800Y-38935800D01*
X57810638Y-40840800D02*
X56083800Y-40840800D01*
X65354800Y-38935800D02*
X60274800Y-38935800D01*
X53274800Y-42975800D02*
X53274800Y-43475800D01*
X62274800Y-45675800D02*
X61774800Y-45175800D01*
X53274800Y-47675800D02*
X57774800Y-47675800D01*
X61774800Y-49675800D02*
X58774800Y-49675800D01*
X58274800Y-48175800D02*
X58274800Y-49175800D01*
X61774800Y-45175800D02*
X59274800Y-45175800D01*
X62274800Y-49175800D02*
X61774800Y-49675800D01*
X58774800Y-49675800D02*
X58274800Y-49175800D01*
X57774800Y-42975800D02*
X53274800Y-42975800D01*
X53274800Y-47075800D02*
X53274800Y-47675800D01*
X57774800Y-43675800D02*
X57774800Y-42975800D01*
X59274800Y-45175800D02*
G75*
G02*
X57774800Y-43675800I0J1500000D01*
G01*
X57774800Y-47675800D02*
G75*
G02*
X58274800Y-48175800I0J-500000D01*
G01*
X53924800Y-37030800D02*
G75*
G02*
X56464800Y-34490800I2540000J0D01*
G01*
X57810638Y-40859760D02*
G75*
G02*
X60274800Y-38935800I2464162J-616040D01*
G01*
X72987500Y-37742000D02*
X72987500Y-38123000D01*
X75527500Y-31773000D02*
X84417500Y-31773000D01*
X73368500Y-38123000D02*
X72987500Y-38123000D01*
X84417500Y-31773000D02*
X84417500Y-32154000D01*
X72987500Y-34313000D02*
X72987500Y-34694000D01*
X84417500Y-35202000D02*
X84417500Y-36218000D01*
X76873338Y-38123000D02*
X75146500Y-38123000D01*
X84417500Y-36218000D02*
X79337500Y-36218000D01*
X72337500Y-40258000D02*
X72337500Y-40758000D01*
X81337500Y-42958000D02*
X80837500Y-42458000D01*
X72337500Y-44958000D02*
X76837500Y-44958000D01*
X80837500Y-46958000D02*
X77837500Y-46958000D01*
X77337500Y-45458000D02*
X77337500Y-46458000D01*
X80837500Y-42458000D02*
X78337500Y-42458000D01*
X81337500Y-46458000D02*
X80837500Y-46958000D01*
X77837500Y-46958000D02*
X77337500Y-46458000D01*
X76837500Y-40258000D02*
X72337500Y-40258000D01*
X72337500Y-44358000D02*
X72337500Y-44958000D01*
X76837500Y-40958000D02*
X76837500Y-40258000D01*
X78337500Y-42458000D02*
G75*
G02*
X76837500Y-40958000I0J1500000D01*
G01*
X76837500Y-44958000D02*
G75*
G02*
X77337500Y-45458000I0J-500000D01*
G01*
X72987500Y-34313000D02*
G75*
G02*
X75527500Y-31773000I2540000J0D01*
G01*
X76873338Y-38141960D02*
G75*
G02*
X79337500Y-36218000I2464162J-616040D01*
G01*
X34849400Y-66992900D02*
X34849400Y-67373900D01*
X37389400Y-61023900D02*
X46279400Y-61023900D01*
X35230400Y-67373900D02*
X34849400Y-67373900D01*
X46279400Y-61023900D02*
X46279400Y-61404900D01*
X34849400Y-63563900D02*
X34849400Y-63944900D01*
X46279400Y-64452900D02*
X46279400Y-65468900D01*
X38735238Y-67373900D02*
X37008400Y-67373900D01*
X46279400Y-65468900D02*
X41199400Y-65468900D01*
X34199400Y-69508900D02*
X34199400Y-70008900D01*
X43199400Y-72208900D02*
X42699400Y-71708900D01*
X34199400Y-74208900D02*
X38699400Y-74208900D01*
X42699400Y-76208900D02*
X39699400Y-76208900D01*
X39199400Y-74708900D02*
X39199400Y-75708900D01*
X42699400Y-71708900D02*
X40199400Y-71708900D01*
X43199400Y-75708900D02*
X42699400Y-76208900D01*
X39699400Y-76208900D02*
X39199400Y-75708900D01*
X38699400Y-69508900D02*
X34199400Y-69508900D01*
X34199400Y-73608900D02*
X34199400Y-74208900D01*
X38699400Y-70208900D02*
X38699400Y-69508900D01*
X40199400Y-71708900D02*
G75*
G02*
X38699400Y-70208900I0J1500000D01*
G01*
X38699400Y-74208900D02*
G75*
G02*
X39199400Y-74708900I0J-500000D01*
G01*
X34849400Y-63563900D02*
G75*
G02*
X37389400Y-61023900I2540000J0D01*
G01*
X38735238Y-67392860D02*
G75*
G02*
X41199400Y-65468900I2464162J-616040D01*
G01*
X53924800Y-59509800D02*
X53924800Y-59890800D01*
X56464800Y-53540800D02*
X65354800Y-53540800D01*
X54305800Y-59890800D02*
X53924800Y-59890800D01*
X65354800Y-53540800D02*
X65354800Y-53921800D01*
X53924800Y-56080800D02*
X53924800Y-56461800D01*
X65354800Y-56969800D02*
X65354800Y-57985800D01*
X57810638Y-59890800D02*
X56083800Y-59890800D01*
X65354800Y-57985800D02*
X60274800Y-57985800D01*
X53274800Y-62025800D02*
X53274800Y-62525800D01*
X62274800Y-64725800D02*
X61774800Y-64225800D01*
X53274800Y-66725800D02*
X57774800Y-66725800D01*
X61774800Y-68725800D02*
X58774800Y-68725800D01*
X58274800Y-67225800D02*
X58274800Y-68225800D01*
X61774800Y-64225800D02*
X59274800Y-64225800D01*
X62274800Y-68225800D02*
X61774800Y-68725800D01*
X58774800Y-68725800D02*
X58274800Y-68225800D01*
X57774800Y-62025800D02*
X53274800Y-62025800D01*
X53274800Y-66125800D02*
X53274800Y-66725800D01*
X57774800Y-62725800D02*
X57774800Y-62025800D01*
X59274800Y-64225800D02*
G75*
G02*
X57774800Y-62725800I0J1500000D01*
G01*
X57774800Y-66725800D02*
G75*
G02*
X58274800Y-67225800I0J-500000D01*
G01*
X53924800Y-56080800D02*
G75*
G02*
X56464800Y-53540800I2540000J0D01*
G01*
X57810638Y-59909760D02*
G75*
G02*
X60274800Y-57985800I2464162J-616040D01*
G01*
X92050200Y-59509800D02*
X92050200Y-59890800D01*
X94590200Y-53540800D02*
X103480200Y-53540800D01*
X92431200Y-59890800D02*
X92050200Y-59890800D01*
X103480200Y-53540800D02*
X103480200Y-53921800D01*
X92050200Y-56080800D02*
X92050200Y-56461800D01*
X103480200Y-56969800D02*
X103480200Y-57985800D01*
X95936038Y-59890800D02*
X94209200Y-59890800D01*
X103480200Y-57985800D02*
X98400200Y-57985800D01*
X91400200Y-62025800D02*
X91400200Y-62525800D01*
X100400200Y-64725800D02*
X99900200Y-64225800D01*
X91400200Y-66725800D02*
X95900200Y-66725800D01*
X99900200Y-68725800D02*
X96900200Y-68725800D01*
X96400200Y-67225800D02*
X96400200Y-68225800D01*
X99900200Y-64225800D02*
X97400200Y-64225800D01*
X100400200Y-68225800D02*
X99900200Y-68725800D01*
X96900200Y-68725800D02*
X96400200Y-68225800D01*
X95900200Y-62025800D02*
X91400200Y-62025800D01*
X91400200Y-66125800D02*
X91400200Y-66725800D01*
X95900200Y-62725800D02*
X95900200Y-62025800D01*
X97400200Y-64225800D02*
G75*
G02*
X95900200Y-62725800I0J1500000D01*
G01*
X95900200Y-66725800D02*
G75*
G02*
X96400200Y-67225800I0J-500000D01*
G01*
X92050200Y-56080800D02*
G75*
G02*
X94590200Y-53540800I2540000J0D01*
G01*
X95936038Y-59909760D02*
G75*
G02*
X98400200Y-57985800I2464162J-616040D01*
G01*
X92050200Y-40459800D02*
X92050200Y-40840800D01*
X94590200Y-34490800D02*
X103480200Y-34490800D01*
X92431200Y-40840800D02*
X92050200Y-40840800D01*
X103480200Y-34490800D02*
X103480200Y-34871800D01*
X92050200Y-37030800D02*
X92050200Y-37411800D01*
X103480200Y-37919800D02*
X103480200Y-38935800D01*
X95936038Y-40840800D02*
X94209200Y-40840800D01*
X103480200Y-38935800D02*
X98400200Y-38935800D01*
X91400200Y-42975800D02*
X91400200Y-43475800D01*
X100400200Y-45675800D02*
X99900200Y-45175800D01*
X91400200Y-47675800D02*
X95900200Y-47675800D01*
X99900200Y-49675800D02*
X96900200Y-49675800D01*
X96400200Y-48175800D02*
X96400200Y-49175800D01*
X99900200Y-45175800D02*
X97400200Y-45175800D01*
X100400200Y-49175800D02*
X99900200Y-49675800D01*
X96900200Y-49675800D02*
X96400200Y-49175800D01*
X95900200Y-42975800D02*
X91400200Y-42975800D01*
X91400200Y-47075800D02*
X91400200Y-47675800D01*
X95900200Y-43675800D02*
X95900200Y-42975800D01*
X97400200Y-45175800D02*
G75*
G02*
X95900200Y-43675800I0J1500000D01*
G01*
X95900200Y-47675800D02*
G75*
G02*
X96400200Y-48175800I0J-500000D01*
G01*
X92050200Y-37030800D02*
G75*
G02*
X94590200Y-34490800I2540000J0D01*
G01*
X95936038Y-40859760D02*
G75*
G02*
X98400200Y-38935800I2464162J-616040D01*
G01*
D11*
X126763800Y-73143300D02*
X126383800Y-73643300D01*
X126383800Y-73643300D02*
X126063800Y-73643300D01*
X126763800Y-73143300D02*
X126763800Y-72143300D01*
X126763800Y-72143300D02*
X126383800Y-71643300D01*
X126383800Y-71643300D02*
X126063800Y-71643300D01*
X123263800Y-74293300D02*
X123263800Y-70993300D01*
X123563800Y-74293300D02*
X123263800Y-74293300D01*
X123263800Y-70993300D02*
X123563800Y-70993300D01*
X125763800Y-74293300D02*
X126063800Y-74293300D01*
X126063800Y-74293300D02*
X126063800Y-70993300D01*
X126063800Y-70993300D02*
X125763800Y-70993300D01*
X120214400Y-36541100D02*
X120214400Y-37331100D01*
X113314400Y-37331100D02*
X113314400Y-36541100D01*
X115164400Y-38381100D02*
X116864400Y-38381100D01*
X113914400Y-35531100D02*
X119614400Y-35531100D01*
X116664400Y-34241100D02*
X116664400Y-35531100D01*
X115564400Y-34031100D02*
X116464400Y-34031100D01*
X115364400Y-35531100D02*
X115364400Y-34241100D01*
X116664400Y-34241100D02*
X116464400Y-34031100D01*
X115364400Y-34241100D02*
X115564400Y-34031100D01*
X118164400Y-38381100D02*
X118364400Y-38381100D01*
D10*
X121488800Y-68749780D02*
X119710800Y-68749780D01*
X121488800Y-71035780D02*
X121488800Y-68749780D01*
X119710800Y-71035780D02*
X121488800Y-71035780D01*
X119710800Y-68749780D02*
X119710800Y-71035780D01*
X118948800Y-68749780D02*
X117170800Y-68749780D01*
X118948800Y-71035780D02*
X118948800Y-68749780D01*
X117170800Y-71035780D02*
X118948800Y-71035780D01*
X117170800Y-68749780D02*
X117170800Y-71035780D01*
X116421500Y-68749780D02*
X114643500Y-68749780D01*
X116421500Y-71035780D02*
X116421500Y-68749780D01*
X114643500Y-71035780D02*
X116421500Y-71035780D01*
X114643500Y-68749780D02*
X114643500Y-71035780D01*
X113881500Y-68757400D02*
X112103500Y-68757400D01*
X113881500Y-71043400D02*
X113881500Y-68757400D01*
X112103500Y-71043400D02*
X113881500Y-71043400D01*
X112103500Y-68757400D02*
X112103500Y-71043400D01*
X121882500Y-73608500D02*
X111722500Y-73608500D01*
X111722500Y-73608500D02*
X111722500Y-71068500D01*
X111722500Y-71068500D02*
X121882500Y-71068500D01*
X121882500Y-71068500D02*
X121882500Y-73608500D01*
X128116180Y-71429014D02*
X127639990Y-71095680D01*
X128116180Y-70857585D02*
X127116180Y-70857585D01*
X127116180Y-71238538D01*
X127163800Y-71333776D01*
X127211419Y-71381395D01*
X127306657Y-71429014D01*
X127449514Y-71429014D01*
X127544752Y-71381395D01*
X127592371Y-71333776D01*
X127639990Y-71238538D01*
X127639990Y-70857585D01*
X128068561Y-71809966D02*
X128116180Y-71952823D01*
X128116180Y-72190919D01*
X128068561Y-72286157D01*
X128020942Y-72333776D01*
X127925704Y-72381395D01*
X127830466Y-72381395D01*
X127735228Y-72333776D01*
X127687609Y-72286157D01*
X127639990Y-72190919D01*
X127592371Y-72000442D01*
X127544752Y-71905204D01*
X127497133Y-71857585D01*
X127401895Y-71809966D01*
X127306657Y-71809966D01*
X127211419Y-71857585D01*
X127163800Y-71905204D01*
X127116180Y-72000442D01*
X127116180Y-72238538D01*
X127163800Y-72381395D01*
X127116180Y-72714728D02*
X128116180Y-72952823D01*
X127401895Y-73143300D01*
X128116180Y-73333776D01*
X127116180Y-73571871D01*
X127211419Y-73905204D02*
X127163800Y-73952823D01*
X127116180Y-74048061D01*
X127116180Y-74286157D01*
X127163800Y-74381395D01*
X127211419Y-74429014D01*
X127306657Y-74476633D01*
X127401895Y-74476633D01*
X127544752Y-74429014D01*
X128116180Y-73857585D01*
X128116180Y-74476633D01*
X118573923Y-40865861D02*
X118431066Y-40913480D01*
X118192971Y-40913480D01*
X118097733Y-40865861D01*
X118050114Y-40818242D01*
X118002495Y-40723004D01*
X118002495Y-40627766D01*
X118050114Y-40532528D01*
X118097733Y-40484909D01*
X118192971Y-40437290D01*
X118383447Y-40389671D01*
X118478685Y-40342052D01*
X118526304Y-40294433D01*
X118573923Y-40199195D01*
X118573923Y-40103957D01*
X118526304Y-40008719D01*
X118478685Y-39961100D01*
X118383447Y-39913480D01*
X118145352Y-39913480D01*
X118002495Y-39961100D01*
X117669161Y-39913480D02*
X117431066Y-40913480D01*
X117240590Y-40199195D01*
X117050114Y-40913480D01*
X116812019Y-39913480D01*
X116478685Y-40008719D02*
X116431066Y-39961100D01*
X116335828Y-39913480D01*
X116097733Y-39913480D01*
X116002495Y-39961100D01*
X115954876Y-40008719D01*
X115907257Y-40103957D01*
X115907257Y-40199195D01*
X115954876Y-40342052D01*
X116526304Y-40913480D01*
X115907257Y-40913480D01*
X115526304Y-40008719D02*
X115478685Y-39961100D01*
X115383447Y-39913480D01*
X115145352Y-39913480D01*
X115050114Y-39961100D01*
X115002495Y-40008719D01*
X114954876Y-40103957D01*
X114954876Y-40199195D01*
X115002495Y-40342052D01*
X115573923Y-40913480D01*
X114954876Y-40913480D01*
X118314880Y-73890880D02*
X118124404Y-73890880D01*
X118029166Y-73938500D01*
X117933928Y-74033738D01*
X117886309Y-74224214D01*
X117886309Y-74557547D01*
X117933928Y-74748023D01*
X118029166Y-74843261D01*
X118124404Y-74890880D01*
X118314880Y-74890880D01*
X118410119Y-74843261D01*
X118505357Y-74748023D01*
X118552976Y-74557547D01*
X118552976Y-74224214D01*
X118505357Y-74033738D01*
X118410119Y-73938500D01*
X118314880Y-73890880D01*
X116981547Y-74890880D02*
X117457738Y-74890880D01*
X117457738Y-73890880D01*
X116648214Y-74367071D02*
X116314880Y-74367071D01*
X116172023Y-74890880D02*
X116648214Y-74890880D01*
X116648214Y-73890880D01*
X116172023Y-73890880D01*
X115743452Y-74890880D02*
X115743452Y-73890880D01*
X115505357Y-73890880D01*
X115362500Y-73938500D01*
X115267261Y-74033738D01*
X115219642Y-74128976D01*
X115172023Y-74319452D01*
X115172023Y-74462309D01*
X115219642Y-74652785D01*
X115267261Y-74748023D01*
X115362500Y-74843261D01*
X115505357Y-74890880D01*
X115743452Y-74890880D01*
M02*
