G04 #@! TF.GenerationSoftware,KiCad,Pcbnew,5.1.9*
G04 #@! TF.CreationDate,2021-04-21T20:38:48-05:00*
G04 #@! TF.ProjectId,artboard,61727462-6f61-4726-942e-6b696361645f,0.1*
G04 #@! TF.SameCoordinates,Original*
G04 #@! TF.FileFunction,Legend,Top*
G04 #@! TF.FilePolarity,Positive*
%FSLAX46Y46*%
G04 Gerber Fmt 4.6, Leading zero omitted, Abs format (unit mm)*
G04 Created by KiCad (PCBNEW 5.1.9) date 2021-04-21 20:38:48*
%MOMM*%
%LPD*%
G01*
G04 APERTURE LIST*
%ADD10C,0.150000*%
%ADD11C,0.120000*%
G04 APERTURE END LIST*
D10*
X85687500Y-56792000D02*
X85687500Y-57173000D01*
X83147500Y-50823000D02*
X74257500Y-50823000D01*
X85306500Y-57173000D02*
X85687500Y-57173000D01*
X74257500Y-50823000D02*
X74257500Y-51204000D01*
X85687500Y-53363000D02*
X85687500Y-53744000D01*
X74257500Y-54252000D02*
X74257500Y-55268000D01*
X81801662Y-57173000D02*
X83528500Y-57173000D01*
X74257500Y-55268000D02*
X79337500Y-55268000D01*
X86337500Y-59308000D02*
X86337500Y-59808000D01*
X77337500Y-62008000D02*
X77837500Y-61508000D01*
X86337500Y-64008000D02*
X81837500Y-64008000D01*
X77837500Y-66008000D02*
X80837500Y-66008000D01*
X81337500Y-64508000D02*
X81337500Y-65508000D01*
X77837500Y-61508000D02*
X80337500Y-61508000D01*
X77337500Y-65508000D02*
X77837500Y-66008000D01*
X80837500Y-66008000D02*
X81337500Y-65508000D01*
X81837500Y-59308000D02*
X86337500Y-59308000D01*
X86337500Y-63408000D02*
X86337500Y-64008000D01*
X81837500Y-60008000D02*
X81837500Y-59308000D01*
X80337500Y-61508000D02*
G75*
G03*
X81837500Y-60008000I0J1500000D01*
G01*
X81837500Y-64008000D02*
G75*
G03*
X81337500Y-64508000I0J-500000D01*
G01*
X85687500Y-53363000D02*
G75*
G03*
X83147500Y-50823000I-2540000J0D01*
G01*
X81801662Y-57191960D02*
G75*
G03*
X79337500Y-55268000I-2464162J-616040D01*
G01*
X47549400Y-47942900D02*
X47549400Y-48323900D01*
X45009400Y-41973900D02*
X36119400Y-41973900D01*
X47168400Y-48323900D02*
X47549400Y-48323900D01*
X36119400Y-41973900D02*
X36119400Y-42354900D01*
X47549400Y-44513900D02*
X47549400Y-44894900D01*
X36119400Y-45402900D02*
X36119400Y-46418900D01*
X43663562Y-48323900D02*
X45390400Y-48323900D01*
X36119400Y-46418900D02*
X41199400Y-46418900D01*
X48199400Y-50458900D02*
X48199400Y-50958900D01*
X39199400Y-53158900D02*
X39699400Y-52658900D01*
X48199400Y-55158900D02*
X43699400Y-55158900D01*
X39699400Y-57158900D02*
X42699400Y-57158900D01*
X43199400Y-55658900D02*
X43199400Y-56658900D01*
X39699400Y-52658900D02*
X42199400Y-52658900D01*
X39199400Y-56658900D02*
X39699400Y-57158900D01*
X42699400Y-57158900D02*
X43199400Y-56658900D01*
X43699400Y-50458900D02*
X48199400Y-50458900D01*
X48199400Y-54558900D02*
X48199400Y-55158900D01*
X43699400Y-51158900D02*
X43699400Y-50458900D01*
X42199400Y-52658900D02*
G75*
G03*
X43699400Y-51158900I0J1500000D01*
G01*
X43699400Y-55158900D02*
G75*
G03*
X43199400Y-55658900I0J-500000D01*
G01*
X47549400Y-44513900D02*
G75*
G03*
X45009400Y-41973900I-2540000J0D01*
G01*
X43663562Y-48342860D02*
G75*
G03*
X41199400Y-46418900I-2464162J-616040D01*
G01*
X66624800Y-40459800D02*
X66624800Y-40840800D01*
X64084800Y-34490800D02*
X55194800Y-34490800D01*
X66243800Y-40840800D02*
X66624800Y-40840800D01*
X55194800Y-34490800D02*
X55194800Y-34871800D01*
X66624800Y-37030800D02*
X66624800Y-37411800D01*
X55194800Y-37919800D02*
X55194800Y-38935800D01*
X62738962Y-40840800D02*
X64465800Y-40840800D01*
X55194800Y-38935800D02*
X60274800Y-38935800D01*
X67274800Y-42975800D02*
X67274800Y-43475800D01*
X58274800Y-45675800D02*
X58774800Y-45175800D01*
X67274800Y-47675800D02*
X62774800Y-47675800D01*
X58774800Y-49675800D02*
X61774800Y-49675800D01*
X62274800Y-48175800D02*
X62274800Y-49175800D01*
X58774800Y-45175800D02*
X61274800Y-45175800D01*
X58274800Y-49175800D02*
X58774800Y-49675800D01*
X61774800Y-49675800D02*
X62274800Y-49175800D01*
X62774800Y-42975800D02*
X67274800Y-42975800D01*
X67274800Y-47075800D02*
X67274800Y-47675800D01*
X62774800Y-43675800D02*
X62774800Y-42975800D01*
X61274800Y-45175800D02*
G75*
G03*
X62774800Y-43675800I0J1500000D01*
G01*
X62774800Y-47675800D02*
G75*
G03*
X62274800Y-48175800I0J-500000D01*
G01*
X66624800Y-37030800D02*
G75*
G03*
X64084800Y-34490800I-2540000J0D01*
G01*
X62738962Y-40859760D02*
G75*
G03*
X60274800Y-38935800I-2464162J-616040D01*
G01*
X85687500Y-37742000D02*
X85687500Y-38123000D01*
X83147500Y-31773000D02*
X74257500Y-31773000D01*
X85306500Y-38123000D02*
X85687500Y-38123000D01*
X74257500Y-31773000D02*
X74257500Y-32154000D01*
X85687500Y-34313000D02*
X85687500Y-34694000D01*
X74257500Y-35202000D02*
X74257500Y-36218000D01*
X81801662Y-38123000D02*
X83528500Y-38123000D01*
X74257500Y-36218000D02*
X79337500Y-36218000D01*
X86337500Y-40258000D02*
X86337500Y-40758000D01*
X77337500Y-42958000D02*
X77837500Y-42458000D01*
X86337500Y-44958000D02*
X81837500Y-44958000D01*
X77837500Y-46958000D02*
X80837500Y-46958000D01*
X81337500Y-45458000D02*
X81337500Y-46458000D01*
X77837500Y-42458000D02*
X80337500Y-42458000D01*
X77337500Y-46458000D02*
X77837500Y-46958000D01*
X80837500Y-46958000D02*
X81337500Y-46458000D01*
X81837500Y-40258000D02*
X86337500Y-40258000D01*
X86337500Y-44358000D02*
X86337500Y-44958000D01*
X81837500Y-40958000D02*
X81837500Y-40258000D01*
X80337500Y-42458000D02*
G75*
G03*
X81837500Y-40958000I0J1500000D01*
G01*
X81837500Y-44958000D02*
G75*
G03*
X81337500Y-45458000I0J-500000D01*
G01*
X85687500Y-34313000D02*
G75*
G03*
X83147500Y-31773000I-2540000J0D01*
G01*
X81801662Y-38141960D02*
G75*
G03*
X79337500Y-36218000I-2464162J-616040D01*
G01*
X47549400Y-66992900D02*
X47549400Y-67373900D01*
X45009400Y-61023900D02*
X36119400Y-61023900D01*
X47168400Y-67373900D02*
X47549400Y-67373900D01*
X36119400Y-61023900D02*
X36119400Y-61404900D01*
X47549400Y-63563900D02*
X47549400Y-63944900D01*
X36119400Y-64452900D02*
X36119400Y-65468900D01*
X43663562Y-67373900D02*
X45390400Y-67373900D01*
X36119400Y-65468900D02*
X41199400Y-65468900D01*
X48199400Y-69508900D02*
X48199400Y-70008900D01*
X39199400Y-72208900D02*
X39699400Y-71708900D01*
X48199400Y-74208900D02*
X43699400Y-74208900D01*
X39699400Y-76208900D02*
X42699400Y-76208900D01*
X43199400Y-74708900D02*
X43199400Y-75708900D01*
X39699400Y-71708900D02*
X42199400Y-71708900D01*
X39199400Y-75708900D02*
X39699400Y-76208900D01*
X42699400Y-76208900D02*
X43199400Y-75708900D01*
X43699400Y-69508900D02*
X48199400Y-69508900D01*
X48199400Y-73608900D02*
X48199400Y-74208900D01*
X43699400Y-70208900D02*
X43699400Y-69508900D01*
X42199400Y-71708900D02*
G75*
G03*
X43699400Y-70208900I0J1500000D01*
G01*
X43699400Y-74208900D02*
G75*
G03*
X43199400Y-74708900I0J-500000D01*
G01*
X47549400Y-63563900D02*
G75*
G03*
X45009400Y-61023900I-2540000J0D01*
G01*
X43663562Y-67392860D02*
G75*
G03*
X41199400Y-65468900I-2464162J-616040D01*
G01*
X66624800Y-59509800D02*
X66624800Y-59890800D01*
X64084800Y-53540800D02*
X55194800Y-53540800D01*
X66243800Y-59890800D02*
X66624800Y-59890800D01*
X55194800Y-53540800D02*
X55194800Y-53921800D01*
X66624800Y-56080800D02*
X66624800Y-56461800D01*
X55194800Y-56969800D02*
X55194800Y-57985800D01*
X62738962Y-59890800D02*
X64465800Y-59890800D01*
X55194800Y-57985800D02*
X60274800Y-57985800D01*
X67274800Y-62025800D02*
X67274800Y-62525800D01*
X58274800Y-64725800D02*
X58774800Y-64225800D01*
X67274800Y-66725800D02*
X62774800Y-66725800D01*
X58774800Y-68725800D02*
X61774800Y-68725800D01*
X62274800Y-67225800D02*
X62274800Y-68225800D01*
X58774800Y-64225800D02*
X61274800Y-64225800D01*
X58274800Y-68225800D02*
X58774800Y-68725800D01*
X61774800Y-68725800D02*
X62274800Y-68225800D01*
X62774800Y-62025800D02*
X67274800Y-62025800D01*
X67274800Y-66125800D02*
X67274800Y-66725800D01*
X62774800Y-62725800D02*
X62774800Y-62025800D01*
X61274800Y-64225800D02*
G75*
G03*
X62774800Y-62725800I0J1500000D01*
G01*
X62774800Y-66725800D02*
G75*
G03*
X62274800Y-67225800I0J-500000D01*
G01*
X66624800Y-56080800D02*
G75*
G03*
X64084800Y-53540800I-2540000J0D01*
G01*
X62738962Y-59909760D02*
G75*
G03*
X60274800Y-57985800I-2464162J-616040D01*
G01*
X104750200Y-59509800D02*
X104750200Y-59890800D01*
X102210200Y-53540800D02*
X93320200Y-53540800D01*
X104369200Y-59890800D02*
X104750200Y-59890800D01*
X93320200Y-53540800D02*
X93320200Y-53921800D01*
X104750200Y-56080800D02*
X104750200Y-56461800D01*
X93320200Y-56969800D02*
X93320200Y-57985800D01*
X100864362Y-59890800D02*
X102591200Y-59890800D01*
X93320200Y-57985800D02*
X98400200Y-57985800D01*
X105400200Y-62025800D02*
X105400200Y-62525800D01*
X96400200Y-64725800D02*
X96900200Y-64225800D01*
X105400200Y-66725800D02*
X100900200Y-66725800D01*
X96900200Y-68725800D02*
X99900200Y-68725800D01*
X100400200Y-67225800D02*
X100400200Y-68225800D01*
X96900200Y-64225800D02*
X99400200Y-64225800D01*
X96400200Y-68225800D02*
X96900200Y-68725800D01*
X99900200Y-68725800D02*
X100400200Y-68225800D01*
X100900200Y-62025800D02*
X105400200Y-62025800D01*
X105400200Y-66125800D02*
X105400200Y-66725800D01*
X100900200Y-62725800D02*
X100900200Y-62025800D01*
X99400200Y-64225800D02*
G75*
G03*
X100900200Y-62725800I0J1500000D01*
G01*
X100900200Y-66725800D02*
G75*
G03*
X100400200Y-67225800I0J-500000D01*
G01*
X104750200Y-56080800D02*
G75*
G03*
X102210200Y-53540800I-2540000J0D01*
G01*
X100864362Y-59909760D02*
G75*
G03*
X98400200Y-57985800I-2464162J-616040D01*
G01*
X104750200Y-40459800D02*
X104750200Y-40840800D01*
X102210200Y-34490800D02*
X93320200Y-34490800D01*
X104369200Y-40840800D02*
X104750200Y-40840800D01*
X93320200Y-34490800D02*
X93320200Y-34871800D01*
X104750200Y-37030800D02*
X104750200Y-37411800D01*
X93320200Y-37919800D02*
X93320200Y-38935800D01*
X100864362Y-40840800D02*
X102591200Y-40840800D01*
X93320200Y-38935800D02*
X98400200Y-38935800D01*
X105400200Y-42975800D02*
X105400200Y-43475800D01*
X96400200Y-45675800D02*
X96900200Y-45175800D01*
X105400200Y-47675800D02*
X100900200Y-47675800D01*
X96900200Y-49675800D02*
X99900200Y-49675800D01*
X100400200Y-48175800D02*
X100400200Y-49175800D01*
X96900200Y-45175800D02*
X99400200Y-45175800D01*
X96400200Y-49175800D02*
X96900200Y-49675800D01*
X99900200Y-49675800D02*
X100400200Y-49175800D01*
X100900200Y-42975800D02*
X105400200Y-42975800D01*
X105400200Y-47075800D02*
X105400200Y-47675800D01*
X100900200Y-43675800D02*
X100900200Y-42975800D01*
X99400200Y-45175800D02*
G75*
G03*
X100900200Y-43675800I0J1500000D01*
G01*
X100900200Y-47675800D02*
G75*
G03*
X100400200Y-48175800I0J-500000D01*
G01*
X104750200Y-37030800D02*
G75*
G03*
X102210200Y-34490800I-2540000J0D01*
G01*
X100864362Y-40859760D02*
G75*
G03*
X98400200Y-38935800I-2464162J-616040D01*
G01*
X107918100Y-38772400D02*
X110458100Y-38772400D01*
X110458100Y-38772400D02*
X110458100Y-69252400D01*
X110458100Y-69252400D02*
X107918100Y-69252400D01*
X107918100Y-69252400D02*
X107918100Y-38772400D01*
X123138100Y-38772400D02*
X125678100Y-38772400D01*
X125678100Y-38772400D02*
X125678100Y-69252400D01*
X125678100Y-69252400D02*
X123138100Y-69252400D01*
X123138100Y-69252400D02*
X123138100Y-38772400D01*
D11*
X116423300Y-66636924D02*
X116423300Y-66127476D01*
X115378300Y-66636924D02*
X115378300Y-66127476D01*
X118480700Y-66662324D02*
X118480700Y-66152876D01*
X117435700Y-66662324D02*
X117435700Y-66152876D01*
X126763800Y-72143300D02*
X126383800Y-71643300D01*
X126383800Y-71643300D02*
X126063800Y-71643300D01*
X126763800Y-72143300D02*
X126763800Y-73143300D01*
X126763800Y-73143300D02*
X126383800Y-73643300D01*
X126383800Y-73643300D02*
X126063800Y-73643300D01*
X123263800Y-70993300D02*
X123263800Y-74293300D01*
X123563800Y-70993300D02*
X123263800Y-70993300D01*
X123263800Y-74293300D02*
X123563800Y-74293300D01*
X125763800Y-70993300D02*
X126063800Y-70993300D01*
X126063800Y-70993300D02*
X126063800Y-74293300D01*
X126063800Y-74293300D02*
X125763800Y-74293300D01*
X113314400Y-36541100D02*
X113314400Y-37331100D01*
X120214400Y-37331100D02*
X120214400Y-36541100D01*
X118364400Y-38381100D02*
X116664400Y-38381100D01*
X119614400Y-35531100D02*
X113914400Y-35531100D01*
X116864400Y-34241100D02*
X116864400Y-35531100D01*
X117964400Y-34031100D02*
X117064400Y-34031100D01*
X118164400Y-35531100D02*
X118164400Y-34241100D01*
X116864400Y-34241100D02*
X117064400Y-34031100D01*
X118164400Y-34241100D02*
X117964400Y-34031100D01*
X115364400Y-38381100D02*
X115164400Y-38381100D01*
D10*
X119710800Y-68757400D02*
X121488800Y-68757400D01*
X119710800Y-71043400D02*
X119710800Y-68757400D01*
X121488800Y-71043400D02*
X119710800Y-71043400D01*
X121488800Y-68757400D02*
X121488800Y-71043400D01*
X117170800Y-68757400D02*
X118948800Y-68757400D01*
X117170800Y-71043400D02*
X117170800Y-68757400D01*
X118948800Y-71043400D02*
X117170800Y-71043400D01*
X118948800Y-68757400D02*
X118948800Y-71043400D01*
X114643500Y-68757400D02*
X116421500Y-68757400D01*
X114643500Y-71043400D02*
X114643500Y-68757400D01*
X116421500Y-71043400D02*
X114643500Y-71043400D01*
X116421500Y-68757400D02*
X116421500Y-71043400D01*
X112103500Y-68757400D02*
X113881500Y-68757400D01*
X112103500Y-71043400D02*
X112103500Y-68757400D01*
X113881500Y-71043400D02*
X112103500Y-71043400D01*
X113881500Y-68757400D02*
X113881500Y-71043400D01*
X121882500Y-71068500D02*
X111722500Y-71068500D01*
X121882500Y-73608500D02*
X111722500Y-73608500D01*
X111722500Y-73608500D02*
X111722500Y-71068500D01*
X121882500Y-71068500D02*
X121882500Y-73608500D01*
D11*
X121889300Y-37876600D02*
X121889300Y-36816600D01*
X122949300Y-37876600D02*
X121889300Y-37876600D01*
X123949300Y-37876600D02*
X123949300Y-35756600D01*
X123949300Y-35756600D02*
X126009300Y-35756600D01*
X123949300Y-37876600D02*
X126009300Y-37876600D01*
X126009300Y-37876600D02*
X126009300Y-35756600D01*
D10*
X114923180Y-66548866D02*
X114446990Y-66882200D01*
X114923180Y-67120295D02*
X113923180Y-67120295D01*
X113923180Y-66739342D01*
X113970800Y-66644104D01*
X114018419Y-66596485D01*
X114113657Y-66548866D01*
X114256514Y-66548866D01*
X114351752Y-66596485D01*
X114399371Y-66644104D01*
X114446990Y-66739342D01*
X114446990Y-67120295D01*
X114018419Y-66167914D02*
X113970800Y-66120295D01*
X113923180Y-66025057D01*
X113923180Y-65786961D01*
X113970800Y-65691723D01*
X114018419Y-65644104D01*
X114113657Y-65596485D01*
X114208895Y-65596485D01*
X114351752Y-65644104D01*
X114923180Y-66215533D01*
X114923180Y-65596485D01*
X116980580Y-66574266D02*
X116504390Y-66907600D01*
X116980580Y-67145695D02*
X115980580Y-67145695D01*
X115980580Y-66764742D01*
X116028200Y-66669504D01*
X116075819Y-66621885D01*
X116171057Y-66574266D01*
X116313914Y-66574266D01*
X116409152Y-66621885D01*
X116456771Y-66669504D01*
X116504390Y-66764742D01*
X116504390Y-67145695D01*
X116980580Y-65621885D02*
X116980580Y-66193314D01*
X116980580Y-65907600D02*
X115980580Y-65907600D01*
X116123438Y-66002838D01*
X116218676Y-66098076D01*
X116266295Y-66193314D01*
X128116180Y-73857585D02*
X127639990Y-74190919D01*
X128116180Y-74429014D02*
X127116180Y-74429014D01*
X127116180Y-74048061D01*
X127163800Y-73952823D01*
X127211419Y-73905204D01*
X127306657Y-73857585D01*
X127449514Y-73857585D01*
X127544752Y-73905204D01*
X127592371Y-73952823D01*
X127639990Y-74048061D01*
X127639990Y-74429014D01*
X128068561Y-73476633D02*
X128116180Y-73333776D01*
X128116180Y-73095680D01*
X128068561Y-73000442D01*
X128020942Y-72952823D01*
X127925704Y-72905204D01*
X127830466Y-72905204D01*
X127735228Y-72952823D01*
X127687609Y-73000442D01*
X127639990Y-73095680D01*
X127592371Y-73286157D01*
X127544752Y-73381395D01*
X127497133Y-73429014D01*
X127401895Y-73476633D01*
X127306657Y-73476633D01*
X127211419Y-73429014D01*
X127163800Y-73381395D01*
X127116180Y-73286157D01*
X127116180Y-73048061D01*
X127163800Y-72905204D01*
X127116180Y-72571871D02*
X128116180Y-72333776D01*
X127401895Y-72143300D01*
X128116180Y-71952823D01*
X127116180Y-71714728D01*
X128116180Y-70809966D02*
X128116180Y-71381395D01*
X128116180Y-71095680D02*
X127116180Y-71095680D01*
X127259038Y-71190919D01*
X127354276Y-71286157D01*
X127401895Y-71381395D01*
X114954876Y-40865861D02*
X115097733Y-40913480D01*
X115335828Y-40913480D01*
X115431066Y-40865861D01*
X115478685Y-40818242D01*
X115526304Y-40723004D01*
X115526304Y-40627766D01*
X115478685Y-40532528D01*
X115431066Y-40484909D01*
X115335828Y-40437290D01*
X115145352Y-40389671D01*
X115050114Y-40342052D01*
X115002495Y-40294433D01*
X114954876Y-40199195D01*
X114954876Y-40103957D01*
X115002495Y-40008719D01*
X115050114Y-39961100D01*
X115145352Y-39913480D01*
X115383447Y-39913480D01*
X115526304Y-39961100D01*
X115859638Y-39913480D02*
X116097733Y-40913480D01*
X116288209Y-40199195D01*
X116478685Y-40913480D01*
X116716780Y-39913480D01*
X117050114Y-40008719D02*
X117097733Y-39961100D01*
X117192971Y-39913480D01*
X117431066Y-39913480D01*
X117526304Y-39961100D01*
X117573923Y-40008719D01*
X117621542Y-40103957D01*
X117621542Y-40199195D01*
X117573923Y-40342052D01*
X117002495Y-40913480D01*
X117621542Y-40913480D01*
X117954876Y-39913480D02*
X118573923Y-39913480D01*
X118240590Y-40294433D01*
X118383447Y-40294433D01*
X118478685Y-40342052D01*
X118526304Y-40389671D01*
X118573923Y-40484909D01*
X118573923Y-40723004D01*
X118526304Y-40818242D01*
X118478685Y-40865861D01*
X118383447Y-40913480D01*
X118097733Y-40913480D01*
X118002495Y-40865861D01*
X117954876Y-40818242D01*
X115360119Y-73890880D02*
X115550595Y-73890880D01*
X115645833Y-73938500D01*
X115741071Y-74033738D01*
X115788690Y-74224214D01*
X115788690Y-74557547D01*
X115741071Y-74748023D01*
X115645833Y-74843261D01*
X115550595Y-74890880D01*
X115360119Y-74890880D01*
X115264880Y-74843261D01*
X115169642Y-74748023D01*
X115122023Y-74557547D01*
X115122023Y-74224214D01*
X115169642Y-74033738D01*
X115264880Y-73938500D01*
X115360119Y-73890880D01*
X116693452Y-74890880D02*
X116217261Y-74890880D01*
X116217261Y-73890880D01*
X117026785Y-74367071D02*
X117360119Y-74367071D01*
X117502976Y-74890880D02*
X117026785Y-74890880D01*
X117026785Y-73890880D01*
X117502976Y-73890880D01*
X117931547Y-74890880D02*
X117931547Y-73890880D01*
X118169642Y-73890880D01*
X118312500Y-73938500D01*
X118407738Y-74033738D01*
X118455357Y-74128976D01*
X118502976Y-74319452D01*
X118502976Y-74462309D01*
X118455357Y-74652785D01*
X118407738Y-74748023D01*
X118312500Y-74843261D01*
X118169642Y-74890880D01*
X117931547Y-74890880D01*
X120817871Y-37602314D02*
X120865490Y-37459457D01*
X120913109Y-37411838D01*
X121008347Y-37364219D01*
X121151204Y-37364219D01*
X121246442Y-37411838D01*
X121294061Y-37459457D01*
X121341680Y-37554695D01*
X121341680Y-37935647D01*
X120341680Y-37935647D01*
X120341680Y-37602314D01*
X120389300Y-37507076D01*
X120436919Y-37459457D01*
X120532157Y-37411838D01*
X120627395Y-37411838D01*
X120722633Y-37459457D01*
X120770252Y-37507076D01*
X120817871Y-37602314D01*
X120817871Y-37935647D01*
X120341680Y-37078504D02*
X120341680Y-36507076D01*
X121341680Y-36792790D02*
X120341680Y-36792790D01*
X121341680Y-35649933D02*
X121341680Y-36221361D01*
X121341680Y-35935647D02*
X120341680Y-35935647D01*
X120484538Y-36030885D01*
X120579776Y-36126123D01*
X120627395Y-36221361D01*
M02*
