G04 #@! TF.GenerationSoftware,KiCad,Pcbnew,5.1.9*
G04 #@! TF.CreationDate,2021-04-16T07:13:37-05:00*
G04 #@! TF.ProjectId,artboard,61727462-6f61-4726-942e-6b696361645f,2.0*
G04 #@! TF.SameCoordinates,Original*
G04 #@! TF.FileFunction,Copper,L2,Bot*
G04 #@! TF.FilePolarity,Positive*
%FSLAX46Y46*%
G04 Gerber Fmt 4.6, Leading zero omitted, Abs format (unit mm)*
G04 Created by KiCad (PCBNEW 5.1.9) date 2021-04-16 07:13:37*
%MOMM*%
%LPD*%
G01*
G04 APERTURE LIST*
G04 #@! TA.AperFunction,NonConductor*
%ADD10C,0.300000*%
G04 #@! TD*
G04 #@! TA.AperFunction,EtchedComponent*
%ADD11C,0.100000*%
G04 #@! TD*
G04 #@! TA.AperFunction,ComponentPad*
%ADD12C,0.750000*%
G04 #@! TD*
G04 #@! TA.AperFunction,ComponentPad*
%ADD13C,2.400000*%
G04 #@! TD*
G04 #@! TA.AperFunction,ComponentPad*
%ADD14O,2.200000X1.600000*%
G04 #@! TD*
G04 #@! TA.AperFunction,ComponentPad*
%ADD15O,2.200000X1.500000*%
G04 #@! TD*
G04 #@! TA.AperFunction,SMDPad,CuDef*
%ADD16C,0.100000*%
G04 #@! TD*
G04 #@! TA.AperFunction,ComponentPad*
%ADD17C,1.524000*%
G04 #@! TD*
G04 #@! TA.AperFunction,SMDPad,CuDef*
%ADD18R,0.900000X1.700000*%
G04 #@! TD*
G04 #@! TA.AperFunction,SMDPad,CuDef*
%ADD19R,0.700000X1.500000*%
G04 #@! TD*
G04 #@! TA.AperFunction,SMDPad,CuDef*
%ADD20R,1.000000X0.800000*%
G04 #@! TD*
G04 #@! TA.AperFunction,SMDPad,CuDef*
%ADD21R,1.143000X0.635000*%
G04 #@! TD*
G04 #@! TA.AperFunction,ComponentPad*
%ADD22C,1.397000*%
G04 #@! TD*
G04 #@! TA.AperFunction,ComponentPad*
%ADD23R,1.350000X1.350000*%
G04 #@! TD*
G04 #@! TA.AperFunction,ComponentPad*
%ADD24O,1.350000X1.350000*%
G04 #@! TD*
G04 #@! TA.AperFunction,ViaPad*
%ADD25C,0.600000*%
G04 #@! TD*
G04 #@! TA.AperFunction,Conductor*
%ADD26C,0.250000*%
G04 #@! TD*
G04 APERTURE END LIST*
D10*
X65300271Y-72167700D02*
X64585985Y-72167700D01*
X65443128Y-72596271D02*
X64943128Y-71096271D01*
X64443128Y-72596271D01*
X63943128Y-72596271D02*
X63943128Y-71596271D01*
X63943128Y-71881985D02*
X63871700Y-71739128D01*
X63800271Y-71667700D01*
X63657414Y-71596271D01*
X63514557Y-71596271D01*
X63228842Y-71596271D02*
X62657414Y-71596271D01*
X63014557Y-71096271D02*
X63014557Y-72381985D01*
X62943128Y-72524842D01*
X62800271Y-72596271D01*
X62657414Y-72596271D01*
X62157414Y-72596271D02*
X62157414Y-71096271D01*
X62157414Y-71667700D02*
X62014557Y-71596271D01*
X61728842Y-71596271D01*
X61585985Y-71667700D01*
X61514557Y-71739128D01*
X61443128Y-71881985D01*
X61443128Y-72310557D01*
X61514557Y-72453414D01*
X61585985Y-72524842D01*
X61728842Y-72596271D01*
X62014557Y-72596271D01*
X62157414Y-72524842D01*
X60585985Y-72596271D02*
X60728842Y-72524842D01*
X60800271Y-72453414D01*
X60871700Y-72310557D01*
X60871700Y-71881985D01*
X60800271Y-71739128D01*
X60728842Y-71667700D01*
X60585985Y-71596271D01*
X60371700Y-71596271D01*
X60228842Y-71667700D01*
X60157414Y-71739128D01*
X60085985Y-71881985D01*
X60085985Y-72310557D01*
X60157414Y-72453414D01*
X60228842Y-72524842D01*
X60371700Y-72596271D01*
X60585985Y-72596271D01*
X58800271Y-72596271D02*
X58800271Y-71810557D01*
X58871699Y-71667700D01*
X59014557Y-71596271D01*
X59300271Y-71596271D01*
X59443128Y-71667700D01*
X58800271Y-72524842D02*
X58943128Y-72596271D01*
X59300271Y-72596271D01*
X59443128Y-72524842D01*
X59514557Y-72381985D01*
X59514557Y-72239128D01*
X59443128Y-72096271D01*
X59300271Y-72024842D01*
X58943128Y-72024842D01*
X58800271Y-71953414D01*
X58085985Y-72596271D02*
X58085985Y-71596271D01*
X58085985Y-71881985D02*
X58014557Y-71739128D01*
X57943128Y-71667700D01*
X57800271Y-71596271D01*
X57657414Y-71596271D01*
X56514557Y-72596271D02*
X56514557Y-71096271D01*
X56514557Y-72524842D02*
X56657414Y-72596271D01*
X56943128Y-72596271D01*
X57085985Y-72524842D01*
X57157414Y-72453414D01*
X57228842Y-72310557D01*
X57228842Y-71881985D01*
X57157414Y-71739128D01*
X57085985Y-71667700D01*
X56943128Y-71596271D01*
X56657414Y-71596271D01*
X56514557Y-71667700D01*
D11*
G36*
X111698700Y-37703900D02*
G01*
X109158700Y-37703900D01*
X109158700Y-37068900D01*
X111698700Y-37068900D01*
X111698700Y-37703900D01*
G37*
X111698700Y-37703900D02*
X109158700Y-37703900D01*
X109158700Y-37068900D01*
X111698700Y-37068900D01*
X111698700Y-37703900D01*
G36*
X111698700Y-40243900D02*
G01*
X109158700Y-40243900D01*
X109158700Y-39608900D01*
X111698700Y-39608900D01*
X111698700Y-40243900D01*
G37*
X111698700Y-40243900D02*
X109158700Y-40243900D01*
X109158700Y-39608900D01*
X111698700Y-39608900D01*
X111698700Y-40243900D01*
G36*
X111698700Y-42783900D02*
G01*
X109158700Y-42783900D01*
X109158700Y-42148900D01*
X111698700Y-42148900D01*
X111698700Y-42783900D01*
G37*
X111698700Y-42783900D02*
X109158700Y-42783900D01*
X109158700Y-42148900D01*
X111698700Y-42148900D01*
X111698700Y-42783900D01*
G36*
X111698700Y-45323900D02*
G01*
X109158700Y-45323900D01*
X109158700Y-44688900D01*
X111698700Y-44688900D01*
X111698700Y-45323900D01*
G37*
X111698700Y-45323900D02*
X109158700Y-45323900D01*
X109158700Y-44688900D01*
X111698700Y-44688900D01*
X111698700Y-45323900D01*
G36*
X111698700Y-47863900D02*
G01*
X109158700Y-47863900D01*
X109158700Y-47228900D01*
X111698700Y-47228900D01*
X111698700Y-47863900D01*
G37*
X111698700Y-47863900D02*
X109158700Y-47863900D01*
X109158700Y-47228900D01*
X111698700Y-47228900D01*
X111698700Y-47863900D01*
G36*
X111698700Y-50403900D02*
G01*
X109158700Y-50403900D01*
X109158700Y-49768900D01*
X111698700Y-49768900D01*
X111698700Y-50403900D01*
G37*
X111698700Y-50403900D02*
X109158700Y-50403900D01*
X109158700Y-49768900D01*
X111698700Y-49768900D01*
X111698700Y-50403900D01*
G36*
X111698700Y-52943900D02*
G01*
X109158700Y-52943900D01*
X109158700Y-52308900D01*
X111698700Y-52308900D01*
X111698700Y-52943900D01*
G37*
X111698700Y-52943900D02*
X109158700Y-52943900D01*
X109158700Y-52308900D01*
X111698700Y-52308900D01*
X111698700Y-52943900D01*
G36*
X111698700Y-55483900D02*
G01*
X109158700Y-55483900D01*
X109158700Y-54848900D01*
X111698700Y-54848900D01*
X111698700Y-55483900D01*
G37*
X111698700Y-55483900D02*
X109158700Y-55483900D01*
X109158700Y-54848900D01*
X111698700Y-54848900D01*
X111698700Y-55483900D01*
G36*
X111698700Y-58023900D02*
G01*
X109158700Y-58023900D01*
X109158700Y-57388900D01*
X111698700Y-57388900D01*
X111698700Y-58023900D01*
G37*
X111698700Y-58023900D02*
X109158700Y-58023900D01*
X109158700Y-57388900D01*
X111698700Y-57388900D01*
X111698700Y-58023900D01*
G36*
X111698700Y-60563900D02*
G01*
X109158700Y-60563900D01*
X109158700Y-59928900D01*
X111698700Y-59928900D01*
X111698700Y-60563900D01*
G37*
X111698700Y-60563900D02*
X109158700Y-60563900D01*
X109158700Y-59928900D01*
X111698700Y-59928900D01*
X111698700Y-60563900D01*
G36*
X111698700Y-63103900D02*
G01*
X109158700Y-63103900D01*
X109158700Y-62468900D01*
X111698700Y-62468900D01*
X111698700Y-63103900D01*
G37*
X111698700Y-63103900D02*
X109158700Y-63103900D01*
X109158700Y-62468900D01*
X111698700Y-62468900D01*
X111698700Y-63103900D01*
G36*
X111698700Y-65643900D02*
G01*
X109158700Y-65643900D01*
X109158700Y-65008900D01*
X111698700Y-65008900D01*
X111698700Y-65643900D01*
G37*
X111698700Y-65643900D02*
X109158700Y-65643900D01*
X109158700Y-65008900D01*
X111698700Y-65008900D01*
X111698700Y-65643900D01*
G36*
X124398700Y-65643900D02*
G01*
X121858700Y-65643900D01*
X121858700Y-65008900D01*
X124398700Y-65008900D01*
X124398700Y-65643900D01*
G37*
X124398700Y-65643900D02*
X121858700Y-65643900D01*
X121858700Y-65008900D01*
X124398700Y-65008900D01*
X124398700Y-65643900D01*
G36*
X124398700Y-63103900D02*
G01*
X121858700Y-63103900D01*
X121858700Y-62468900D01*
X124398700Y-62468900D01*
X124398700Y-63103900D01*
G37*
X124398700Y-63103900D02*
X121858700Y-63103900D01*
X121858700Y-62468900D01*
X124398700Y-62468900D01*
X124398700Y-63103900D01*
G36*
X124398700Y-60563900D02*
G01*
X121858700Y-60563900D01*
X121858700Y-59928900D01*
X124398700Y-59928900D01*
X124398700Y-60563900D01*
G37*
X124398700Y-60563900D02*
X121858700Y-60563900D01*
X121858700Y-59928900D01*
X124398700Y-59928900D01*
X124398700Y-60563900D01*
G36*
X124398700Y-58023900D02*
G01*
X121858700Y-58023900D01*
X121858700Y-57388900D01*
X124398700Y-57388900D01*
X124398700Y-58023900D01*
G37*
X124398700Y-58023900D02*
X121858700Y-58023900D01*
X121858700Y-57388900D01*
X124398700Y-57388900D01*
X124398700Y-58023900D01*
G36*
X124398700Y-55483900D02*
G01*
X121858700Y-55483900D01*
X121858700Y-54848900D01*
X124398700Y-54848900D01*
X124398700Y-55483900D01*
G37*
X124398700Y-55483900D02*
X121858700Y-55483900D01*
X121858700Y-54848900D01*
X124398700Y-54848900D01*
X124398700Y-55483900D01*
G36*
X124398700Y-52943900D02*
G01*
X121858700Y-52943900D01*
X121858700Y-52308900D01*
X124398700Y-52308900D01*
X124398700Y-52943900D01*
G37*
X124398700Y-52943900D02*
X121858700Y-52943900D01*
X121858700Y-52308900D01*
X124398700Y-52308900D01*
X124398700Y-52943900D01*
G36*
X124398700Y-50403900D02*
G01*
X121858700Y-50403900D01*
X121858700Y-49768900D01*
X124398700Y-49768900D01*
X124398700Y-50403900D01*
G37*
X124398700Y-50403900D02*
X121858700Y-50403900D01*
X121858700Y-49768900D01*
X124398700Y-49768900D01*
X124398700Y-50403900D01*
G36*
X124398700Y-47863900D02*
G01*
X121858700Y-47863900D01*
X121858700Y-47228900D01*
X124398700Y-47228900D01*
X124398700Y-47863900D01*
G37*
X124398700Y-47863900D02*
X121858700Y-47863900D01*
X121858700Y-47228900D01*
X124398700Y-47228900D01*
X124398700Y-47863900D01*
G36*
X124398700Y-45323900D02*
G01*
X121858700Y-45323900D01*
X121858700Y-44688900D01*
X124398700Y-44688900D01*
X124398700Y-45323900D01*
G37*
X124398700Y-45323900D02*
X121858700Y-45323900D01*
X121858700Y-44688900D01*
X124398700Y-44688900D01*
X124398700Y-45323900D01*
G36*
X124398700Y-42783900D02*
G01*
X121858700Y-42783900D01*
X121858700Y-42148900D01*
X124398700Y-42148900D01*
X124398700Y-42783900D01*
G37*
X124398700Y-42783900D02*
X121858700Y-42783900D01*
X121858700Y-42148900D01*
X124398700Y-42148900D01*
X124398700Y-42783900D01*
G36*
X124398700Y-40243900D02*
G01*
X121858700Y-40243900D01*
X121858700Y-39608900D01*
X124398700Y-39608900D01*
X124398700Y-40243900D01*
G37*
X124398700Y-40243900D02*
X121858700Y-40243900D01*
X121858700Y-39608900D01*
X124398700Y-39608900D01*
X124398700Y-40243900D01*
G36*
X124398700Y-37703900D02*
G01*
X121858700Y-37703900D01*
X121858700Y-37068900D01*
X124398700Y-37068900D01*
X124398700Y-37703900D01*
G37*
X124398700Y-37703900D02*
X121858700Y-37703900D01*
X121858700Y-37068900D01*
X124398700Y-37068900D01*
X124398700Y-37703900D01*
D12*
X115900800Y-64031000D03*
X115900800Y-66571000D03*
G04 #@! TA.AperFunction,SMDPad,CuDef*
G36*
G01*
X116138300Y-64876000D02*
X115663300Y-64876000D01*
G75*
G02*
X115425800Y-64638500I0J237500D01*
G01*
X115425800Y-64138500D01*
G75*
G02*
X115663300Y-63901000I237500J0D01*
G01*
X116138300Y-63901000D01*
G75*
G02*
X116375800Y-64138500I0J-237500D01*
G01*
X116375800Y-64638500D01*
G75*
G02*
X116138300Y-64876000I-237500J0D01*
G01*
G37*
G04 #@! TD.AperFunction*
G04 #@! TA.AperFunction,SMDPad,CuDef*
G36*
G01*
X116138300Y-66701000D02*
X115663300Y-66701000D01*
G75*
G02*
X115425800Y-66463500I0J237500D01*
G01*
X115425800Y-65963500D01*
G75*
G02*
X115663300Y-65726000I237500J0D01*
G01*
X116138300Y-65726000D01*
G75*
G02*
X116375800Y-65963500I0J-237500D01*
G01*
X116375800Y-66463500D01*
G75*
G02*
X116138300Y-66701000I-237500J0D01*
G01*
G37*
G04 #@! TD.AperFunction*
X117958200Y-64056400D03*
X117958200Y-66596400D03*
G04 #@! TA.AperFunction,SMDPad,CuDef*
G36*
G01*
X118195700Y-64901400D02*
X117720700Y-64901400D01*
G75*
G02*
X117483200Y-64663900I0J237500D01*
G01*
X117483200Y-64163900D01*
G75*
G02*
X117720700Y-63926400I237500J0D01*
G01*
X118195700Y-63926400D01*
G75*
G02*
X118433200Y-64163900I0J-237500D01*
G01*
X118433200Y-64663900D01*
G75*
G02*
X118195700Y-64901400I-237500J0D01*
G01*
G37*
G04 #@! TD.AperFunction*
G04 #@! TA.AperFunction,SMDPad,CuDef*
G36*
G01*
X118195700Y-66726400D02*
X117720700Y-66726400D01*
G75*
G02*
X117483200Y-66488900I0J237500D01*
G01*
X117483200Y-65988900D01*
G75*
G02*
X117720700Y-65751400I237500J0D01*
G01*
X118195700Y-65751400D01*
G75*
G02*
X118433200Y-65988900I0J-237500D01*
G01*
X118433200Y-66488900D01*
G75*
G02*
X118195700Y-66726400I-237500J0D01*
G01*
G37*
G04 #@! TD.AperFunction*
D13*
X64084800Y-38935800D03*
D14*
X65374800Y-45375800D03*
G04 #@! TA.AperFunction,ComponentPad*
G36*
G01*
X58574674Y-35954597D02*
X58574674Y-35954597D01*
G75*
G02*
X57818158Y-36698023I-749971J6545D01*
G01*
X54918268Y-36672717D01*
G75*
G02*
X54174842Y-35916201I6545J749971D01*
G01*
X54174842Y-35916201D01*
G75*
G02*
X54931358Y-35172775I749971J-6545D01*
G01*
X57831248Y-35198081D01*
G75*
G02*
X58574674Y-35954597I-6545J-749971D01*
G01*
G37*
G04 #@! TD.AperFunction*
D13*
X57734800Y-36395800D03*
X56464800Y-38935800D03*
D15*
X60274800Y-47375800D03*
D14*
X55174800Y-45375800D03*
G04 #@! TA.AperFunction,ComponentPad*
G36*
G01*
X61974926Y-35954597D02*
X61974926Y-35954597D01*
G75*
G02*
X62718352Y-35198081I749971J6545D01*
G01*
X65618242Y-35172775D01*
G75*
G02*
X66374758Y-35916201I6545J-749971D01*
G01*
X66374758Y-35916201D01*
G75*
G02*
X65631332Y-36672717I-749971J-6545D01*
G01*
X62731442Y-36698023D01*
G75*
G02*
X61974926Y-35954597I-6545J749971D01*
G01*
G37*
G04 #@! TD.AperFunction*
D13*
X62814800Y-36395800D03*
X45009400Y-43418900D03*
D14*
X46299400Y-49858900D03*
G04 #@! TA.AperFunction,ComponentPad*
G36*
G01*
X39499274Y-40437697D02*
X39499274Y-40437697D01*
G75*
G02*
X38742758Y-41181123I-749971J6545D01*
G01*
X35842868Y-41155817D01*
G75*
G02*
X35099442Y-40399301I6545J749971D01*
G01*
X35099442Y-40399301D01*
G75*
G02*
X35855958Y-39655875I749971J-6545D01*
G01*
X38755848Y-39681181D01*
G75*
G02*
X39499274Y-40437697I-6545J-749971D01*
G01*
G37*
G04 #@! TD.AperFunction*
D13*
X38659400Y-40878900D03*
X37389400Y-43418900D03*
D15*
X41199400Y-51858900D03*
D14*
X36099400Y-49858900D03*
G04 #@! TA.AperFunction,ComponentPad*
G36*
G01*
X42899526Y-40437697D02*
X42899526Y-40437697D01*
G75*
G02*
X43642952Y-39681181I749971J6545D01*
G01*
X46542842Y-39655875D01*
G75*
G02*
X47299358Y-40399301I6545J-749971D01*
G01*
X47299358Y-40399301D01*
G75*
G02*
X46555932Y-41155817I-749971J-6545D01*
G01*
X43656042Y-41181123D01*
G75*
G02*
X42899526Y-40437697I-6545J749971D01*
G01*
G37*
G04 #@! TD.AperFunction*
D13*
X43739400Y-40878900D03*
X83147500Y-36218000D03*
D14*
X84437500Y-42658000D03*
G04 #@! TA.AperFunction,ComponentPad*
G36*
G01*
X77637374Y-33236797D02*
X77637374Y-33236797D01*
G75*
G02*
X76880858Y-33980223I-749971J6545D01*
G01*
X73980968Y-33954917D01*
G75*
G02*
X73237542Y-33198401I6545J749971D01*
G01*
X73237542Y-33198401D01*
G75*
G02*
X73994058Y-32454975I749971J-6545D01*
G01*
X76893948Y-32480281D01*
G75*
G02*
X77637374Y-33236797I-6545J-749971D01*
G01*
G37*
G04 #@! TD.AperFunction*
D13*
X76797500Y-33678000D03*
X75527500Y-36218000D03*
D15*
X79337500Y-44658000D03*
D14*
X74237500Y-42658000D03*
G04 #@! TA.AperFunction,ComponentPad*
G36*
G01*
X81037626Y-33236797D02*
X81037626Y-33236797D01*
G75*
G02*
X81781052Y-32480281I749971J6545D01*
G01*
X84680942Y-32454975D01*
G75*
G02*
X85437458Y-33198401I6545J-749971D01*
G01*
X85437458Y-33198401D01*
G75*
G02*
X84694032Y-33954917I-749971J-6545D01*
G01*
X81794142Y-33980223D01*
G75*
G02*
X81037626Y-33236797I-6545J749971D01*
G01*
G37*
G04 #@! TD.AperFunction*
D13*
X81877500Y-33678000D03*
X102210200Y-38935800D03*
D14*
X103500200Y-45375800D03*
G04 #@! TA.AperFunction,ComponentPad*
G36*
G01*
X96700074Y-35954597D02*
X96700074Y-35954597D01*
G75*
G02*
X95943558Y-36698023I-749971J6545D01*
G01*
X93043668Y-36672717D01*
G75*
G02*
X92300242Y-35916201I6545J749971D01*
G01*
X92300242Y-35916201D01*
G75*
G02*
X93056758Y-35172775I749971J-6545D01*
G01*
X95956648Y-35198081D01*
G75*
G02*
X96700074Y-35954597I-6545J-749971D01*
G01*
G37*
G04 #@! TD.AperFunction*
D13*
X95860200Y-36395800D03*
X94590200Y-38935800D03*
D15*
X98400200Y-47375800D03*
D14*
X93300200Y-45375800D03*
G04 #@! TA.AperFunction,ComponentPad*
G36*
G01*
X100100326Y-35954597D02*
X100100326Y-35954597D01*
G75*
G02*
X100843752Y-35198081I749971J6545D01*
G01*
X103743642Y-35172775D01*
G75*
G02*
X104500158Y-35916201I6545J-749971D01*
G01*
X104500158Y-35916201D01*
G75*
G02*
X103756732Y-36672717I-749971J-6545D01*
G01*
X100856842Y-36698023D01*
G75*
G02*
X100100326Y-35954597I-6545J749971D01*
G01*
G37*
G04 #@! TD.AperFunction*
D13*
X100940200Y-36395800D03*
X83147500Y-55268000D03*
D14*
X84437500Y-61708000D03*
G04 #@! TA.AperFunction,ComponentPad*
G36*
G01*
X77637374Y-52286797D02*
X77637374Y-52286797D01*
G75*
G02*
X76880858Y-53030223I-749971J6545D01*
G01*
X73980968Y-53004917D01*
G75*
G02*
X73237542Y-52248401I6545J749971D01*
G01*
X73237542Y-52248401D01*
G75*
G02*
X73994058Y-51504975I749971J-6545D01*
G01*
X76893948Y-51530281D01*
G75*
G02*
X77637374Y-52286797I-6545J-749971D01*
G01*
G37*
G04 #@! TD.AperFunction*
D13*
X76797500Y-52728000D03*
X75527500Y-55268000D03*
D15*
X79337500Y-63708000D03*
D14*
X74237500Y-61708000D03*
G04 #@! TA.AperFunction,ComponentPad*
G36*
G01*
X81037626Y-52286797D02*
X81037626Y-52286797D01*
G75*
G02*
X81781052Y-51530281I749971J6545D01*
G01*
X84680942Y-51504975D01*
G75*
G02*
X85437458Y-52248401I6545J-749971D01*
G01*
X85437458Y-52248401D01*
G75*
G02*
X84694032Y-53004917I-749971J-6545D01*
G01*
X81794142Y-53030223D01*
G75*
G02*
X81037626Y-52286797I-6545J749971D01*
G01*
G37*
G04 #@! TD.AperFunction*
D13*
X81877500Y-52728000D03*
X102210200Y-57985800D03*
D14*
X103500200Y-64425800D03*
G04 #@! TA.AperFunction,ComponentPad*
G36*
G01*
X96700074Y-55004597D02*
X96700074Y-55004597D01*
G75*
G02*
X95943558Y-55748023I-749971J6545D01*
G01*
X93043668Y-55722717D01*
G75*
G02*
X92300242Y-54966201I6545J749971D01*
G01*
X92300242Y-54966201D01*
G75*
G02*
X93056758Y-54222775I749971J-6545D01*
G01*
X95956648Y-54248081D01*
G75*
G02*
X96700074Y-55004597I-6545J-749971D01*
G01*
G37*
G04 #@! TD.AperFunction*
D13*
X95860200Y-55445800D03*
X94590200Y-57985800D03*
D15*
X98400200Y-66425800D03*
D14*
X93300200Y-64425800D03*
G04 #@! TA.AperFunction,ComponentPad*
G36*
G01*
X100100326Y-55004597D02*
X100100326Y-55004597D01*
G75*
G02*
X100843752Y-54248081I749971J6545D01*
G01*
X103743642Y-54222775D01*
G75*
G02*
X104500158Y-54966201I6545J-749971D01*
G01*
X104500158Y-54966201D01*
G75*
G02*
X103756732Y-55722717I-749971J-6545D01*
G01*
X100856842Y-55748023D01*
G75*
G02*
X100100326Y-55004597I-6545J749971D01*
G01*
G37*
G04 #@! TD.AperFunction*
D13*
X100940200Y-55445800D03*
X45009400Y-62468900D03*
D14*
X46299400Y-68908900D03*
G04 #@! TA.AperFunction,ComponentPad*
G36*
G01*
X39499274Y-59487697D02*
X39499274Y-59487697D01*
G75*
G02*
X38742758Y-60231123I-749971J6545D01*
G01*
X35842868Y-60205817D01*
G75*
G02*
X35099442Y-59449301I6545J749971D01*
G01*
X35099442Y-59449301D01*
G75*
G02*
X35855958Y-58705875I749971J-6545D01*
G01*
X38755848Y-58731181D01*
G75*
G02*
X39499274Y-59487697I-6545J-749971D01*
G01*
G37*
G04 #@! TD.AperFunction*
D13*
X38659400Y-59928900D03*
X37389400Y-62468900D03*
D15*
X41199400Y-70908900D03*
D14*
X36099400Y-68908900D03*
G04 #@! TA.AperFunction,ComponentPad*
G36*
G01*
X42899526Y-59487697D02*
X42899526Y-59487697D01*
G75*
G02*
X43642952Y-58731181I749971J6545D01*
G01*
X46542842Y-58705875D01*
G75*
G02*
X47299358Y-59449301I6545J-749971D01*
G01*
X47299358Y-59449301D01*
G75*
G02*
X46555932Y-60205817I-749971J-6545D01*
G01*
X43656042Y-60231123D01*
G75*
G02*
X42899526Y-59487697I-6545J749971D01*
G01*
G37*
G04 #@! TD.AperFunction*
D13*
X43739400Y-59928900D03*
X64084800Y-57985800D03*
D14*
X65374800Y-64425800D03*
G04 #@! TA.AperFunction,ComponentPad*
G36*
G01*
X58574674Y-55004597D02*
X58574674Y-55004597D01*
G75*
G02*
X57818158Y-55748023I-749971J6545D01*
G01*
X54918268Y-55722717D01*
G75*
G02*
X54174842Y-54966201I6545J749971D01*
G01*
X54174842Y-54966201D01*
G75*
G02*
X54931358Y-54222775I749971J-6545D01*
G01*
X57831248Y-54248081D01*
G75*
G02*
X58574674Y-55004597I-6545J-749971D01*
G01*
G37*
G04 #@! TD.AperFunction*
D13*
X57734800Y-55445800D03*
X56464800Y-57985800D03*
D15*
X60274800Y-66425800D03*
D14*
X55174800Y-64425800D03*
G04 #@! TA.AperFunction,ComponentPad*
G36*
G01*
X61974926Y-55004597D02*
X61974926Y-55004597D01*
G75*
G02*
X62718352Y-54248081I749971J6545D01*
G01*
X65618242Y-54222775D01*
G75*
G02*
X66374758Y-54966201I6545J-749971D01*
G01*
X66374758Y-54966201D01*
G75*
G02*
X65631332Y-55722717I-749971J-6545D01*
G01*
X62731442Y-55748023D01*
G75*
G02*
X61974926Y-55004597I-6545J749971D01*
G01*
G37*
G04 #@! TD.AperFunction*
D13*
X62814800Y-55445800D03*
G04 #@! TA.AperFunction,SMDPad,CuDef*
D16*
G36*
X111198700Y-51153900D02*
G01*
X111198700Y-49653900D01*
X112198700Y-49653900D01*
X112198700Y-51153900D01*
X111198700Y-51153900D01*
G37*
G04 #@! TD.AperFunction*
G04 #@! TA.AperFunction,SMDPad,CuDef*
G36*
X121358700Y-51153900D02*
G01*
X121358700Y-49653900D01*
X122358700Y-49653900D01*
X122358700Y-51153900D01*
X121358700Y-51153900D01*
G37*
G04 #@! TD.AperFunction*
G04 #@! TA.AperFunction,SMDPad,CuDef*
G36*
X112468700Y-38453900D02*
G01*
X112468700Y-36953900D01*
X113468700Y-36953900D01*
X113468700Y-38453900D01*
X112468700Y-38453900D01*
G37*
G04 #@! TD.AperFunction*
G04 #@! TA.AperFunction,SMDPad,CuDef*
G36*
X120088700Y-63853900D02*
G01*
X120088700Y-62353900D01*
X121088700Y-62353900D01*
X121088700Y-63853900D01*
X120088700Y-63853900D01*
G37*
G04 #@! TD.AperFunction*
G04 #@! TA.AperFunction,SMDPad,CuDef*
G36*
X111198700Y-66393900D02*
G01*
X111198700Y-64893900D01*
X112198700Y-64893900D01*
X112198700Y-66393900D01*
X111198700Y-66393900D01*
G37*
G04 #@! TD.AperFunction*
G04 #@! TA.AperFunction,SMDPad,CuDef*
G36*
X111198700Y-53693900D02*
G01*
X111198700Y-52193900D01*
X112198700Y-52193900D01*
X112198700Y-53693900D01*
X111198700Y-53693900D01*
G37*
G04 #@! TD.AperFunction*
G04 #@! TA.AperFunction,SMDPad,CuDef*
G36*
X112468700Y-46073900D02*
G01*
X112468700Y-44573900D01*
X113468700Y-44573900D01*
X113468700Y-46073900D01*
X112468700Y-46073900D01*
G37*
G04 #@! TD.AperFunction*
G04 #@! TA.AperFunction,SMDPad,CuDef*
G36*
X121358700Y-46073900D02*
G01*
X121358700Y-44573900D01*
X122358700Y-44573900D01*
X122358700Y-46073900D01*
X121358700Y-46073900D01*
G37*
G04 #@! TD.AperFunction*
G04 #@! TA.AperFunction,SMDPad,CuDef*
G36*
X121358700Y-58773900D02*
G01*
X121358700Y-57273900D01*
X122358700Y-57273900D01*
X122358700Y-58773900D01*
X121358700Y-58773900D01*
G37*
G04 #@! TD.AperFunction*
G04 #@! TA.AperFunction,SMDPad,CuDef*
G36*
X121358700Y-66393900D02*
G01*
X121358700Y-64893900D01*
X122358700Y-64893900D01*
X122358700Y-66393900D01*
X121358700Y-66393900D01*
G37*
G04 #@! TD.AperFunction*
G04 #@! TA.AperFunction,SMDPad,CuDef*
G36*
X120088700Y-48613900D02*
G01*
X120088700Y-47113900D01*
X121088700Y-47113900D01*
X121088700Y-48613900D01*
X120088700Y-48613900D01*
G37*
G04 #@! TD.AperFunction*
G04 #@! TA.AperFunction,SMDPad,CuDef*
G36*
X112468700Y-63853900D02*
G01*
X112468700Y-62353900D01*
X113468700Y-62353900D01*
X113468700Y-63853900D01*
X112468700Y-63853900D01*
G37*
G04 #@! TD.AperFunction*
G04 #@! TA.AperFunction,SMDPad,CuDef*
G36*
X121358700Y-48613900D02*
G01*
X121358700Y-47113900D01*
X122358700Y-47113900D01*
X122358700Y-48613900D01*
X121358700Y-48613900D01*
G37*
G04 #@! TD.AperFunction*
G04 #@! TA.AperFunction,SMDPad,CuDef*
G36*
X111198700Y-46073900D02*
G01*
X111198700Y-44573900D01*
X112198700Y-44573900D01*
X112198700Y-46073900D01*
X111198700Y-46073900D01*
G37*
G04 #@! TD.AperFunction*
G04 #@! TA.AperFunction,SMDPad,CuDef*
G36*
X111198700Y-43533900D02*
G01*
X111198700Y-42033900D01*
X112198700Y-42033900D01*
X112198700Y-43533900D01*
X111198700Y-43533900D01*
G37*
G04 #@! TD.AperFunction*
G04 #@! TA.AperFunction,SMDPad,CuDef*
G36*
X121358700Y-40993900D02*
G01*
X121358700Y-39493900D01*
X122358700Y-39493900D01*
X122358700Y-40993900D01*
X121358700Y-40993900D01*
G37*
G04 #@! TD.AperFunction*
G04 #@! TA.AperFunction,SMDPad,CuDef*
G36*
X112468700Y-40993900D02*
G01*
X112468700Y-39493900D01*
X113468700Y-39493900D01*
X113468700Y-40993900D01*
X112468700Y-40993900D01*
G37*
G04 #@! TD.AperFunction*
G04 #@! TA.AperFunction,SMDPad,CuDef*
G36*
X121358700Y-43533900D02*
G01*
X121358700Y-42033900D01*
X122358700Y-42033900D01*
X122358700Y-43533900D01*
X121358700Y-43533900D01*
G37*
G04 #@! TD.AperFunction*
G04 #@! TA.AperFunction,SMDPad,CuDef*
G36*
X121358700Y-53693900D02*
G01*
X121358700Y-52193900D01*
X122358700Y-52193900D01*
X122358700Y-53693900D01*
X121358700Y-53693900D01*
G37*
G04 #@! TD.AperFunction*
G04 #@! TA.AperFunction,SMDPad,CuDef*
G36*
X121358700Y-61313900D02*
G01*
X121358700Y-59813900D01*
X122358700Y-59813900D01*
X122358700Y-61313900D01*
X121358700Y-61313900D01*
G37*
G04 #@! TD.AperFunction*
G04 #@! TA.AperFunction,SMDPad,CuDef*
G36*
X112468700Y-53693900D02*
G01*
X112468700Y-52193900D01*
X113468700Y-52193900D01*
X113468700Y-53693900D01*
X112468700Y-53693900D01*
G37*
G04 #@! TD.AperFunction*
G04 #@! TA.AperFunction,SMDPad,CuDef*
G36*
X120088700Y-46073900D02*
G01*
X120088700Y-44573900D01*
X121088700Y-44573900D01*
X121088700Y-46073900D01*
X120088700Y-46073900D01*
G37*
G04 #@! TD.AperFunction*
G04 #@! TA.AperFunction,SMDPad,CuDef*
G36*
X111198700Y-61313900D02*
G01*
X111198700Y-59813900D01*
X112198700Y-59813900D01*
X112198700Y-61313900D01*
X111198700Y-61313900D01*
G37*
G04 #@! TD.AperFunction*
G04 #@! TA.AperFunction,SMDPad,CuDef*
G36*
X120088700Y-66393900D02*
G01*
X120088700Y-64893900D01*
X121088700Y-64893900D01*
X121088700Y-66393900D01*
X120088700Y-66393900D01*
G37*
G04 #@! TD.AperFunction*
G04 #@! TA.AperFunction,SMDPad,CuDef*
G36*
X120088700Y-51153900D02*
G01*
X120088700Y-49653900D01*
X121088700Y-49653900D01*
X121088700Y-51153900D01*
X120088700Y-51153900D01*
G37*
G04 #@! TD.AperFunction*
G04 #@! TA.AperFunction,SMDPad,CuDef*
G36*
X120088700Y-56233900D02*
G01*
X120088700Y-54733900D01*
X121088700Y-54733900D01*
X121088700Y-56233900D01*
X120088700Y-56233900D01*
G37*
G04 #@! TD.AperFunction*
G04 #@! TA.AperFunction,SMDPad,CuDef*
G36*
X121358700Y-56233900D02*
G01*
X121358700Y-54733900D01*
X122358700Y-54733900D01*
X122358700Y-56233900D01*
X121358700Y-56233900D01*
G37*
G04 #@! TD.AperFunction*
G04 #@! TA.AperFunction,SMDPad,CuDef*
G36*
X112468700Y-61313900D02*
G01*
X112468700Y-59813900D01*
X113468700Y-59813900D01*
X113468700Y-61313900D01*
X112468700Y-61313900D01*
G37*
G04 #@! TD.AperFunction*
G04 #@! TA.AperFunction,SMDPad,CuDef*
G36*
X121358700Y-38453900D02*
G01*
X121358700Y-36953900D01*
X122358700Y-36953900D01*
X122358700Y-38453900D01*
X121358700Y-38453900D01*
G37*
G04 #@! TD.AperFunction*
G04 #@! TA.AperFunction,SMDPad,CuDef*
G36*
X120088700Y-58773900D02*
G01*
X120088700Y-57273900D01*
X121088700Y-57273900D01*
X121088700Y-58773900D01*
X120088700Y-58773900D01*
G37*
G04 #@! TD.AperFunction*
G04 #@! TA.AperFunction,SMDPad,CuDef*
G36*
X120088700Y-53693900D02*
G01*
X120088700Y-52193900D01*
X121088700Y-52193900D01*
X121088700Y-53693900D01*
X120088700Y-53693900D01*
G37*
G04 #@! TD.AperFunction*
G04 #@! TA.AperFunction,SMDPad,CuDef*
G36*
X120088700Y-38453900D02*
G01*
X120088700Y-36953900D01*
X121088700Y-36953900D01*
X121088700Y-38453900D01*
X120088700Y-38453900D01*
G37*
G04 #@! TD.AperFunction*
G04 #@! TA.AperFunction,SMDPad,CuDef*
G36*
X112468700Y-66393900D02*
G01*
X112468700Y-64893900D01*
X113468700Y-64893900D01*
X113468700Y-66393900D01*
X112468700Y-66393900D01*
G37*
G04 #@! TD.AperFunction*
G04 #@! TA.AperFunction,SMDPad,CuDef*
G36*
X111198700Y-48613900D02*
G01*
X111198700Y-47113900D01*
X112198700Y-47113900D01*
X112198700Y-48613900D01*
X111198700Y-48613900D01*
G37*
G04 #@! TD.AperFunction*
G04 #@! TA.AperFunction,SMDPad,CuDef*
G36*
X120088700Y-43533900D02*
G01*
X120088700Y-42033900D01*
X121088700Y-42033900D01*
X121088700Y-43533900D01*
X120088700Y-43533900D01*
G37*
G04 #@! TD.AperFunction*
G04 #@! TA.AperFunction,SMDPad,CuDef*
G36*
X120088700Y-61313900D02*
G01*
X120088700Y-59813900D01*
X121088700Y-59813900D01*
X121088700Y-61313900D01*
X120088700Y-61313900D01*
G37*
G04 #@! TD.AperFunction*
G04 #@! TA.AperFunction,SMDPad,CuDef*
G36*
X112468700Y-58773900D02*
G01*
X112468700Y-57273900D01*
X113468700Y-57273900D01*
X113468700Y-58773900D01*
X112468700Y-58773900D01*
G37*
G04 #@! TD.AperFunction*
G04 #@! TA.AperFunction,SMDPad,CuDef*
G36*
X111198700Y-40993900D02*
G01*
X111198700Y-39493900D01*
X112198700Y-39493900D01*
X112198700Y-40993900D01*
X111198700Y-40993900D01*
G37*
G04 #@! TD.AperFunction*
G04 #@! TA.AperFunction,SMDPad,CuDef*
G36*
X111198700Y-38453900D02*
G01*
X111198700Y-36953900D01*
X112198700Y-36953900D01*
X112198700Y-38453900D01*
X111198700Y-38453900D01*
G37*
G04 #@! TD.AperFunction*
G04 #@! TA.AperFunction,SMDPad,CuDef*
G36*
X112468700Y-51153900D02*
G01*
X112468700Y-49653900D01*
X113468700Y-49653900D01*
X113468700Y-51153900D01*
X112468700Y-51153900D01*
G37*
G04 #@! TD.AperFunction*
G04 #@! TA.AperFunction,SMDPad,CuDef*
G36*
X120088700Y-40993900D02*
G01*
X120088700Y-39493900D01*
X121088700Y-39493900D01*
X121088700Y-40993900D01*
X120088700Y-40993900D01*
G37*
G04 #@! TD.AperFunction*
G04 #@! TA.AperFunction,SMDPad,CuDef*
G36*
X111198700Y-63853900D02*
G01*
X111198700Y-62353900D01*
X112198700Y-62353900D01*
X112198700Y-63853900D01*
X111198700Y-63853900D01*
G37*
G04 #@! TD.AperFunction*
G04 #@! TA.AperFunction,SMDPad,CuDef*
G36*
X112468700Y-56233900D02*
G01*
X112468700Y-54733900D01*
X113468700Y-54733900D01*
X113468700Y-56233900D01*
X112468700Y-56233900D01*
G37*
G04 #@! TD.AperFunction*
G04 #@! TA.AperFunction,SMDPad,CuDef*
G36*
X111198700Y-58773900D02*
G01*
X111198700Y-57273900D01*
X112198700Y-57273900D01*
X112198700Y-58773900D01*
X111198700Y-58773900D01*
G37*
G04 #@! TD.AperFunction*
G04 #@! TA.AperFunction,SMDPad,CuDef*
G36*
X111198700Y-56233900D02*
G01*
X111198700Y-54733900D01*
X112198700Y-54733900D01*
X112198700Y-56233900D01*
X111198700Y-56233900D01*
G37*
G04 #@! TD.AperFunction*
G04 #@! TA.AperFunction,SMDPad,CuDef*
G36*
X112468700Y-43533900D02*
G01*
X112468700Y-42033900D01*
X113468700Y-42033900D01*
X113468700Y-43533900D01*
X112468700Y-43533900D01*
G37*
G04 #@! TD.AperFunction*
G04 #@! TA.AperFunction,SMDPad,CuDef*
G36*
X112468700Y-48613900D02*
G01*
X112468700Y-47113900D01*
X113468700Y-47113900D01*
X113468700Y-48613900D01*
X112468700Y-48613900D01*
G37*
G04 #@! TD.AperFunction*
G04 #@! TA.AperFunction,SMDPad,CuDef*
G36*
X121358700Y-63853900D02*
G01*
X121358700Y-62353900D01*
X122358700Y-62353900D01*
X122358700Y-63853900D01*
X121358700Y-63853900D01*
G37*
G04 #@! TD.AperFunction*
D17*
X124435100Y-37830900D03*
X124435100Y-40370900D03*
X124435100Y-42910900D03*
X124435100Y-45450900D03*
X124435100Y-47990900D03*
X124435100Y-50530900D03*
X124435100Y-53070900D03*
X124435100Y-55610900D03*
X124435100Y-58150900D03*
X124435100Y-60690900D03*
X124435100Y-63230900D03*
X124435100Y-65770900D03*
X109215100Y-65770900D03*
X109215100Y-63230900D03*
X109215100Y-60690900D03*
X109215100Y-58150900D03*
X109215100Y-55610900D03*
X109215100Y-53070900D03*
X109215100Y-50530900D03*
X109215100Y-47990900D03*
X109215100Y-45450900D03*
X109215100Y-42910900D03*
X109215100Y-40370900D03*
X109215100Y-37830900D03*
D18*
X85812700Y-72527300D03*
X82412700Y-72527300D03*
D19*
X78895100Y-70208300D03*
X75895100Y-70208300D03*
X74395100Y-70208300D03*
D20*
X80295100Y-73068300D03*
X72995100Y-73068300D03*
X72995100Y-70858300D03*
X80295100Y-70858300D03*
D21*
X120599800Y-68311200D03*
X120599800Y-69311960D03*
X118059800Y-68311200D03*
X118059800Y-69311960D03*
X115532500Y-68311200D03*
X115532500Y-69311960D03*
X112992500Y-68318820D03*
X112992500Y-69319580D03*
D22*
X112954400Y-71689100D03*
X115494400Y-71689100D03*
X118034400Y-71689100D03*
X120574400Y-71689100D03*
D23*
X109665100Y-71054100D03*
D24*
X109665100Y-69054100D03*
D25*
X83465000Y-72565400D03*
X115024500Y-40243900D03*
X114897500Y-44561900D03*
X114872100Y-45323900D03*
X86982900Y-72527300D03*
X115024500Y-42783900D03*
X119215500Y-50403900D03*
X114834000Y-50403900D03*
X116866000Y-62380000D03*
X116846950Y-63745250D03*
X117932800Y-62913400D03*
X119126600Y-47863900D03*
X114707000Y-47863900D03*
X114135500Y-62824500D03*
X113977901Y-67023001D03*
X112624200Y-67142500D03*
X119533000Y-61935500D03*
X75315349Y-73285551D03*
X77754550Y-68848850D03*
X120853800Y-36192600D03*
X114999100Y-37703900D03*
X119482200Y-52943900D03*
X119520300Y-55483900D03*
X119545700Y-58023900D03*
X119545700Y-60563900D03*
X114592700Y-53617000D03*
X115253100Y-56461800D03*
X114277901Y-57398899D03*
X114640799Y-59938899D03*
X114303301Y-48488901D03*
X114414900Y-51127800D03*
X114986400Y-39520000D03*
X114922900Y-36980000D03*
D26*
X110400380Y-68318820D02*
X112992500Y-68318820D01*
X109665100Y-69054100D02*
X110400380Y-68318820D01*
X83503100Y-72527300D02*
X83465000Y-72565400D01*
X85812700Y-72527300D02*
X83503100Y-72527300D01*
X107036800Y-66425800D02*
X109665100Y-69054100D01*
X98400200Y-66425800D02*
X107036800Y-66425800D01*
X113068700Y-42783900D02*
X113068700Y-45323900D01*
X84000898Y-69054100D02*
X109665100Y-69054100D01*
X81637699Y-71417299D02*
X84000898Y-69054100D01*
X81637699Y-73637301D02*
X81637699Y-71417299D01*
X84637699Y-73702301D02*
X81702699Y-73702301D01*
X81702699Y-73702301D02*
X81637699Y-73637301D01*
X85812700Y-72527300D02*
X84637699Y-73702301D01*
X120588700Y-40243900D02*
X115024500Y-40243900D01*
X115024500Y-40243900D02*
X115024500Y-40243900D01*
X113730700Y-44561900D02*
X114897500Y-44561900D01*
X112968700Y-45323900D02*
X113730700Y-44561900D01*
X115508700Y-40243900D02*
X120588700Y-40243900D01*
X112968700Y-42783900D02*
X115508700Y-40243900D01*
X115532500Y-68311200D02*
X115532500Y-67498100D01*
X120588700Y-45323900D02*
X114872100Y-45323900D01*
X114872100Y-45323900D02*
X114872100Y-45323900D01*
X115532500Y-66581800D02*
X115900800Y-66213500D01*
X115532500Y-68311200D02*
X115532500Y-66581800D01*
X115926200Y-66238900D02*
X115900800Y-66213500D01*
X115926200Y-66596400D02*
X115900800Y-66571000D01*
X117958200Y-66596400D02*
X115926200Y-66596400D01*
X86982900Y-71812498D02*
X86982900Y-72527300D01*
X86522701Y-71352299D02*
X86982900Y-71812498D01*
X83587701Y-71352299D02*
X86522701Y-71352299D01*
X82412700Y-72527300D02*
X83587701Y-71352299D01*
X120588700Y-42783900D02*
X115024500Y-42783900D01*
X115024500Y-42783900D02*
X115024500Y-42783900D01*
X120688700Y-43533900D02*
X120688700Y-42783900D01*
X124690863Y-43997901D02*
X121152701Y-43997901D01*
X121152701Y-43997901D02*
X120688700Y-43533900D01*
X125622101Y-69181399D02*
X125622101Y-44929139D01*
X125622101Y-44929139D02*
X124690863Y-43997901D01*
X111735200Y-73568700D02*
X121234800Y-73568700D01*
X110993799Y-72827299D02*
X111735200Y-73568700D01*
X87282899Y-72827299D02*
X110993799Y-72827299D01*
X121234800Y-73568700D02*
X125622101Y-69181399D01*
X86982900Y-72527300D02*
X87282899Y-72827299D01*
X112968700Y-50403900D02*
X114834000Y-50403900D01*
X119215500Y-50403900D02*
X119215500Y-50403900D01*
X114834000Y-50403900D02*
X119215500Y-50403900D01*
X116866000Y-63332500D02*
X116866000Y-63726200D01*
X116866000Y-63726200D02*
X116846950Y-63745250D01*
X116866000Y-63472200D02*
X116866000Y-63332500D01*
X116866000Y-63332500D02*
X116866000Y-62380000D01*
X116846950Y-64585660D02*
X116846950Y-63745250D01*
X117487700Y-65226410D02*
X116846950Y-64585660D01*
X118277310Y-65226410D02*
X117487700Y-65226410D01*
X118758210Y-65707310D02*
X118277310Y-65226410D01*
X118758210Y-67612790D02*
X118758210Y-65707310D01*
X118059800Y-68311200D02*
X118758210Y-67612790D01*
X112968700Y-47863900D02*
X114707000Y-47863900D01*
X119126600Y-47863900D02*
X119126600Y-47863900D01*
X114707000Y-47863900D02*
X119126600Y-47863900D01*
X118364600Y-63345200D02*
X117932800Y-62913400D01*
X119280850Y-67813750D02*
X119280850Y-64261450D01*
X119778300Y-68311200D02*
X119280850Y-67813750D01*
X119280850Y-64261450D02*
X118364600Y-63345200D01*
X120599800Y-68311200D02*
X119778300Y-68311200D01*
X117699401Y-61754999D02*
X115027201Y-61754999D01*
X119048302Y-63103900D02*
X117699401Y-61754999D01*
X120588700Y-63103900D02*
X119048302Y-63103900D01*
X115027201Y-61754999D02*
X114135500Y-62646700D01*
X114135500Y-62646700D02*
X114135500Y-62824500D01*
X114135500Y-62824500D02*
X114135500Y-62824500D01*
X115003119Y-72712601D02*
X113977901Y-71687383D01*
X113977901Y-71687383D02*
X113977901Y-67023001D01*
X121065681Y-72712601D02*
X115003119Y-72712601D01*
X121597901Y-72180381D02*
X121065681Y-72712601D01*
X121597901Y-67835299D02*
X121597901Y-72180381D01*
X120588700Y-66826098D02*
X121597901Y-67835299D01*
X120588700Y-65643900D02*
X120588700Y-66826098D01*
X113977901Y-67023001D02*
X113977901Y-67023001D01*
X112968700Y-66798000D02*
X112624200Y-67142500D01*
X112968700Y-65643900D02*
X112968700Y-66798000D01*
X115028801Y-61043799D02*
X118488899Y-61043799D01*
X112968700Y-63103900D02*
X115028801Y-61043799D01*
X118488899Y-61043799D02*
X119380600Y-61935500D01*
X119380600Y-61935500D02*
X119533000Y-61935500D01*
X119533000Y-61935500D02*
X119533000Y-61935500D01*
X74370099Y-72340301D02*
X75315349Y-73285551D01*
X74370099Y-70233301D02*
X74370099Y-72340301D01*
X74395100Y-70208300D02*
X74370099Y-70233301D01*
X112992500Y-71651000D02*
X112954400Y-71689100D01*
X112992500Y-69319580D02*
X112992500Y-71651000D01*
X115532500Y-71651000D02*
X115494400Y-71689100D01*
X115532500Y-69311960D02*
X115532500Y-71651000D01*
X118059800Y-71663700D02*
X118034400Y-71689100D01*
X118059800Y-69311960D02*
X118059800Y-71663700D01*
X120599800Y-71663700D02*
X120574400Y-71689100D01*
X120599800Y-69311960D02*
X120599800Y-71663700D01*
X76395100Y-70208300D02*
X77754550Y-68848850D01*
X75895100Y-70208300D02*
X76395100Y-70208300D01*
X120853800Y-37538800D02*
X120688700Y-37703900D01*
X120853800Y-36192600D02*
X120853800Y-37538800D01*
X120588700Y-37703900D02*
X114999100Y-37703900D01*
X114999100Y-37703900D02*
X114999100Y-37703900D01*
X85320669Y-31675988D02*
X88038563Y-34393882D01*
X88038563Y-34393882D02*
X104383464Y-34393883D01*
X73351279Y-31675988D02*
X85320669Y-31675988D01*
X72421672Y-32605595D02*
X73351279Y-31675988D01*
X64608806Y-44250790D02*
X65863400Y-44250790D01*
X72421672Y-37692518D02*
X72421672Y-32605595D01*
X65863400Y-44250790D02*
X72421672Y-37692518D01*
X64226910Y-44632686D02*
X64608806Y-44250790D01*
X104383464Y-34393883D02*
X106889310Y-36899729D01*
X56322690Y-44632686D02*
X64226910Y-44632686D01*
X55940794Y-44250790D02*
X56322690Y-44632686D01*
X51907510Y-44250790D02*
X55940794Y-44250790D01*
X46299400Y-49858900D02*
X51907510Y-44250790D01*
X112968700Y-53693900D02*
X112968700Y-52943900D01*
X112504699Y-54157901D02*
X112968700Y-53693900D01*
X108693339Y-54157901D02*
X112504699Y-54157901D01*
X106889310Y-52353872D02*
X108693339Y-54157901D01*
X106889310Y-36899729D02*
X106889310Y-52353872D01*
X112968700Y-52943900D02*
X119215500Y-52943900D01*
X119215500Y-52943900D02*
X119482200Y-52943900D01*
X119482200Y-52943900D02*
X119482200Y-52943900D01*
X104197063Y-34843892D02*
X106439300Y-37086129D01*
X87852163Y-34843892D02*
X104197063Y-34843892D01*
X82039902Y-32152999D02*
X85134268Y-32125997D01*
X81914599Y-32152999D02*
X82039902Y-32152999D01*
X81887688Y-32126088D02*
X81914599Y-32152999D01*
X73551640Y-32126088D02*
X81887688Y-32126088D01*
X72871682Y-37878918D02*
X72871682Y-32794272D01*
X85134268Y-32125997D02*
X87852163Y-34843892D01*
X72871682Y-32794272D02*
X73551640Y-32126088D01*
X65374800Y-45375800D02*
X72871682Y-37878918D01*
X112968700Y-56233900D02*
X112968700Y-55483900D01*
X108327341Y-56697901D02*
X112504699Y-56697901D01*
X106439300Y-54809860D02*
X108327341Y-56697901D01*
X112504699Y-56697901D02*
X112968700Y-56233900D01*
X106439300Y-37086129D02*
X106439300Y-54809860D01*
X112968700Y-55483900D02*
X119329800Y-55483900D01*
X119329800Y-55483900D02*
X119520300Y-55483900D01*
X119520300Y-55483900D02*
X119520300Y-55483900D01*
X102734206Y-44250790D02*
X104266194Y-44250790D01*
X104266194Y-44250790D02*
X105880500Y-45865096D01*
X102372296Y-44612700D02*
X102734206Y-44250790D01*
X105880500Y-45865096D02*
X105880500Y-58328652D01*
X97537098Y-44612700D02*
X102372296Y-44612700D01*
X95625199Y-42700801D02*
X97537098Y-44612700D01*
X84480301Y-42700801D02*
X95625199Y-42700801D01*
X84437500Y-42658000D02*
X84480301Y-42700801D01*
X112968700Y-58773900D02*
X112968700Y-58023900D01*
X112504699Y-59237901D02*
X112968700Y-58773900D01*
X106789749Y-59237901D02*
X112504699Y-59237901D01*
X105880500Y-58328652D02*
X106789749Y-59237901D01*
X112968700Y-58023900D02*
X119279000Y-58023900D01*
X119279000Y-58023900D02*
X119545700Y-58023900D01*
X119545700Y-58023900D02*
X119545700Y-58023900D01*
X103500200Y-45375800D02*
X105410600Y-47286200D01*
X112968700Y-61313900D02*
X112968700Y-60563900D01*
X112504699Y-61777901D02*
X112968700Y-61313900D01*
X108693339Y-61777901D02*
X112504699Y-61777901D01*
X105410600Y-58495162D02*
X108693339Y-61777901D01*
X105410600Y-47286200D02*
X105410600Y-58495162D01*
X112968700Y-60563900D02*
X119317100Y-60563900D01*
X119317100Y-60563900D02*
X119545700Y-60563900D01*
X119545700Y-60563900D02*
X119545700Y-60563900D01*
X120588700Y-52943900D02*
X119915600Y-53617000D01*
X119915600Y-53617000D02*
X114592700Y-53617000D01*
X114592700Y-53617000D02*
X114592700Y-53617000D01*
X120588700Y-55483900D02*
X119610800Y-56461800D01*
X119610800Y-56461800D02*
X115253100Y-56461800D01*
X119963699Y-57398899D02*
X114615399Y-57398899D01*
X120588700Y-58023900D02*
X119963699Y-57398899D01*
X114615399Y-57398899D02*
X114615399Y-57398899D01*
X114615399Y-57398899D02*
X114277901Y-57398899D01*
X119963699Y-59938899D02*
X114640799Y-59938899D01*
X120588700Y-60563900D02*
X119963699Y-59938899D01*
X114640799Y-59938899D02*
X114640799Y-59938899D01*
X119963699Y-48488901D02*
X114303301Y-48488901D01*
X120588700Y-47863900D02*
X119963699Y-48488901D01*
X114303301Y-48488901D02*
X114303301Y-48488901D01*
X120588700Y-50403900D02*
X119864800Y-51127800D01*
X119864800Y-51127800D02*
X114414900Y-51127800D01*
X114414900Y-51127800D02*
X114414900Y-51127800D01*
X113692600Y-39520000D02*
X114986400Y-39520000D01*
X112968700Y-40243900D02*
X113692600Y-39520000D01*
X113692600Y-36980000D02*
X114922900Y-36980000D01*
X112968700Y-37703900D02*
X113692600Y-36980000D01*
M02*
