G04 #@! TF.GenerationSoftware,KiCad,Pcbnew,5.1.9*
G04 #@! TF.CreationDate,2021-04-16T07:13:37-05:00*
G04 #@! TF.ProjectId,artboard,61727462-6f61-4726-942e-6b696361645f,2.0*
G04 #@! TF.SameCoordinates,Original*
G04 #@! TF.FileFunction,Copper,L1,Top*
G04 #@! TF.FilePolarity,Positive*
%FSLAX46Y46*%
G04 Gerber Fmt 4.6, Leading zero omitted, Abs format (unit mm)*
G04 Created by KiCad (PCBNEW 5.1.9) date 2021-04-16 07:13:37*
%MOMM*%
%LPD*%
G01*
G04 APERTURE LIST*
G04 #@! TA.AperFunction,NonConductor*
%ADD10C,0.300000*%
G04 #@! TD*
G04 #@! TA.AperFunction,EtchedComponent*
%ADD11C,0.020000*%
G04 #@! TD*
G04 #@! TA.AperFunction,EtchedComponent*
%ADD12C,0.100000*%
G04 #@! TD*
G04 #@! TA.AperFunction,ComponentPad*
%ADD13C,0.750000*%
G04 #@! TD*
G04 #@! TA.AperFunction,ComponentPad*
%ADD14C,2.400000*%
G04 #@! TD*
G04 #@! TA.AperFunction,ComponentPad*
%ADD15O,2.200000X1.600000*%
G04 #@! TD*
G04 #@! TA.AperFunction,ComponentPad*
%ADD16O,2.200000X1.500000*%
G04 #@! TD*
G04 #@! TA.AperFunction,SMDPad,CuDef*
%ADD17C,0.100000*%
G04 #@! TD*
G04 #@! TA.AperFunction,ComponentPad*
%ADD18C,1.524000*%
G04 #@! TD*
G04 #@! TA.AperFunction,SMDPad,CuDef*
%ADD19R,0.900000X1.700000*%
G04 #@! TD*
G04 #@! TA.AperFunction,SMDPad,CuDef*
%ADD20R,0.700000X1.500000*%
G04 #@! TD*
G04 #@! TA.AperFunction,SMDPad,CuDef*
%ADD21R,1.000000X0.800000*%
G04 #@! TD*
G04 #@! TA.AperFunction,SMDPad,CuDef*
%ADD22R,1.143000X0.635000*%
G04 #@! TD*
G04 #@! TA.AperFunction,ComponentPad*
%ADD23C,1.397000*%
G04 #@! TD*
G04 #@! TA.AperFunction,ComponentPad*
%ADD24R,1.350000X1.350000*%
G04 #@! TD*
G04 #@! TA.AperFunction,ComponentPad*
%ADD25O,1.350000X1.350000*%
G04 #@! TD*
G04 #@! TA.AperFunction,ViaPad*
%ADD26C,0.600000*%
G04 #@! TD*
G04 #@! TA.AperFunction,Conductor*
%ADD27C,0.250000*%
G04 #@! TD*
G04 APERTURE END LIST*
D10*
X56519328Y-72091500D02*
X57233614Y-72091500D01*
X56376471Y-72520071D02*
X56876471Y-71020071D01*
X57376471Y-72520071D01*
X57876471Y-72520071D02*
X57876471Y-71520071D01*
X57876471Y-71805785D02*
X57947900Y-71662928D01*
X58019328Y-71591500D01*
X58162185Y-71520071D01*
X58305042Y-71520071D01*
X58590757Y-71520071D02*
X59162185Y-71520071D01*
X58805042Y-71020071D02*
X58805042Y-72305785D01*
X58876471Y-72448642D01*
X59019328Y-72520071D01*
X59162185Y-72520071D01*
X59662185Y-72520071D02*
X59662185Y-71020071D01*
X59662185Y-71591500D02*
X59805042Y-71520071D01*
X60090757Y-71520071D01*
X60233614Y-71591500D01*
X60305042Y-71662928D01*
X60376471Y-71805785D01*
X60376471Y-72234357D01*
X60305042Y-72377214D01*
X60233614Y-72448642D01*
X60090757Y-72520071D01*
X59805042Y-72520071D01*
X59662185Y-72448642D01*
X61233614Y-72520071D02*
X61090757Y-72448642D01*
X61019328Y-72377214D01*
X60947900Y-72234357D01*
X60947900Y-71805785D01*
X61019328Y-71662928D01*
X61090757Y-71591500D01*
X61233614Y-71520071D01*
X61447900Y-71520071D01*
X61590757Y-71591500D01*
X61662185Y-71662928D01*
X61733614Y-71805785D01*
X61733614Y-72234357D01*
X61662185Y-72377214D01*
X61590757Y-72448642D01*
X61447900Y-72520071D01*
X61233614Y-72520071D01*
X63019328Y-72520071D02*
X63019328Y-71734357D01*
X62947900Y-71591500D01*
X62805042Y-71520071D01*
X62519328Y-71520071D01*
X62376471Y-71591500D01*
X63019328Y-72448642D02*
X62876471Y-72520071D01*
X62519328Y-72520071D01*
X62376471Y-72448642D01*
X62305042Y-72305785D01*
X62305042Y-72162928D01*
X62376471Y-72020071D01*
X62519328Y-71948642D01*
X62876471Y-71948642D01*
X63019328Y-71877214D01*
X63733614Y-72520071D02*
X63733614Y-71520071D01*
X63733614Y-71805785D02*
X63805042Y-71662928D01*
X63876471Y-71591500D01*
X64019328Y-71520071D01*
X64162185Y-71520071D01*
X65305042Y-72520071D02*
X65305042Y-71020071D01*
X65305042Y-72448642D02*
X65162185Y-72520071D01*
X64876471Y-72520071D01*
X64733614Y-72448642D01*
X64662185Y-72377214D01*
X64590757Y-72234357D01*
X64590757Y-71805785D01*
X64662185Y-71662928D01*
X64733614Y-71591500D01*
X64876471Y-71520071D01*
X65162185Y-71520071D01*
X65305042Y-71591500D01*
D11*
G36*
X124398700Y-37703900D02*
G01*
X121858700Y-37703900D01*
X121858700Y-37068900D01*
X124398700Y-37068900D01*
X124398700Y-37703900D01*
G37*
X124398700Y-37703900D02*
X121858700Y-37703900D01*
X121858700Y-37068900D01*
X124398700Y-37068900D01*
X124398700Y-37703900D01*
D12*
G36*
X111698700Y-40243900D02*
G01*
X109158700Y-40243900D01*
X109158700Y-39608900D01*
X111698700Y-39608900D01*
X111698700Y-40243900D01*
G37*
X111698700Y-40243900D02*
X109158700Y-40243900D01*
X109158700Y-39608900D01*
X111698700Y-39608900D01*
X111698700Y-40243900D01*
G36*
X111698700Y-42783900D02*
G01*
X109158700Y-42783900D01*
X109158700Y-42148900D01*
X111698700Y-42148900D01*
X111698700Y-42783900D01*
G37*
X111698700Y-42783900D02*
X109158700Y-42783900D01*
X109158700Y-42148900D01*
X111698700Y-42148900D01*
X111698700Y-42783900D01*
G36*
X111698700Y-45323900D02*
G01*
X109158700Y-45323900D01*
X109158700Y-44688900D01*
X111698700Y-44688900D01*
X111698700Y-45323900D01*
G37*
X111698700Y-45323900D02*
X109158700Y-45323900D01*
X109158700Y-44688900D01*
X111698700Y-44688900D01*
X111698700Y-45323900D01*
G36*
X111698700Y-47863900D02*
G01*
X109158700Y-47863900D01*
X109158700Y-47228900D01*
X111698700Y-47228900D01*
X111698700Y-47863900D01*
G37*
X111698700Y-47863900D02*
X109158700Y-47863900D01*
X109158700Y-47228900D01*
X111698700Y-47228900D01*
X111698700Y-47863900D01*
G36*
X111698700Y-50403900D02*
G01*
X109158700Y-50403900D01*
X109158700Y-49768900D01*
X111698700Y-49768900D01*
X111698700Y-50403900D01*
G37*
X111698700Y-50403900D02*
X109158700Y-50403900D01*
X109158700Y-49768900D01*
X111698700Y-49768900D01*
X111698700Y-50403900D01*
G36*
X111698700Y-52943900D02*
G01*
X109158700Y-52943900D01*
X109158700Y-52308900D01*
X111698700Y-52308900D01*
X111698700Y-52943900D01*
G37*
X111698700Y-52943900D02*
X109158700Y-52943900D01*
X109158700Y-52308900D01*
X111698700Y-52308900D01*
X111698700Y-52943900D01*
G36*
X111698700Y-55483900D02*
G01*
X109158700Y-55483900D01*
X109158700Y-54848900D01*
X111698700Y-54848900D01*
X111698700Y-55483900D01*
G37*
X111698700Y-55483900D02*
X109158700Y-55483900D01*
X109158700Y-54848900D01*
X111698700Y-54848900D01*
X111698700Y-55483900D01*
G36*
X111698700Y-58023900D02*
G01*
X109158700Y-58023900D01*
X109158700Y-57388900D01*
X111698700Y-57388900D01*
X111698700Y-58023900D01*
G37*
X111698700Y-58023900D02*
X109158700Y-58023900D01*
X109158700Y-57388900D01*
X111698700Y-57388900D01*
X111698700Y-58023900D01*
G36*
X111698700Y-60563900D02*
G01*
X109158700Y-60563900D01*
X109158700Y-59928900D01*
X111698700Y-59928900D01*
X111698700Y-60563900D01*
G37*
X111698700Y-60563900D02*
X109158700Y-60563900D01*
X109158700Y-59928900D01*
X111698700Y-59928900D01*
X111698700Y-60563900D01*
G36*
X111698700Y-63103900D02*
G01*
X109158700Y-63103900D01*
X109158700Y-62468900D01*
X111698700Y-62468900D01*
X111698700Y-63103900D01*
G37*
X111698700Y-63103900D02*
X109158700Y-63103900D01*
X109158700Y-62468900D01*
X111698700Y-62468900D01*
X111698700Y-63103900D01*
G36*
X111698700Y-65643900D02*
G01*
X109158700Y-65643900D01*
X109158700Y-65008900D01*
X111698700Y-65008900D01*
X111698700Y-65643900D01*
G37*
X111698700Y-65643900D02*
X109158700Y-65643900D01*
X109158700Y-65008900D01*
X111698700Y-65008900D01*
X111698700Y-65643900D01*
G36*
X124398700Y-40243900D02*
G01*
X121858700Y-40243900D01*
X121858700Y-39608900D01*
X124398700Y-39608900D01*
X124398700Y-40243900D01*
G37*
X124398700Y-40243900D02*
X121858700Y-40243900D01*
X121858700Y-39608900D01*
X124398700Y-39608900D01*
X124398700Y-40243900D01*
G36*
X124398700Y-42783900D02*
G01*
X121858700Y-42783900D01*
X121858700Y-42148900D01*
X124398700Y-42148900D01*
X124398700Y-42783900D01*
G37*
X124398700Y-42783900D02*
X121858700Y-42783900D01*
X121858700Y-42148900D01*
X124398700Y-42148900D01*
X124398700Y-42783900D01*
G36*
X124398700Y-45323900D02*
G01*
X121858700Y-45323900D01*
X121858700Y-44688900D01*
X124398700Y-44688900D01*
X124398700Y-45323900D01*
G37*
X124398700Y-45323900D02*
X121858700Y-45323900D01*
X121858700Y-44688900D01*
X124398700Y-44688900D01*
X124398700Y-45323900D01*
G36*
X124398700Y-47863900D02*
G01*
X121858700Y-47863900D01*
X121858700Y-47228900D01*
X124398700Y-47228900D01*
X124398700Y-47863900D01*
G37*
X124398700Y-47863900D02*
X121858700Y-47863900D01*
X121858700Y-47228900D01*
X124398700Y-47228900D01*
X124398700Y-47863900D01*
G36*
X124398700Y-50403900D02*
G01*
X121858700Y-50403900D01*
X121858700Y-49768900D01*
X124398700Y-49768900D01*
X124398700Y-50403900D01*
G37*
X124398700Y-50403900D02*
X121858700Y-50403900D01*
X121858700Y-49768900D01*
X124398700Y-49768900D01*
X124398700Y-50403900D01*
G36*
X124398700Y-52943900D02*
G01*
X121858700Y-52943900D01*
X121858700Y-52308900D01*
X124398700Y-52308900D01*
X124398700Y-52943900D01*
G37*
X124398700Y-52943900D02*
X121858700Y-52943900D01*
X121858700Y-52308900D01*
X124398700Y-52308900D01*
X124398700Y-52943900D01*
G36*
X124398700Y-55483900D02*
G01*
X121858700Y-55483900D01*
X121858700Y-54848900D01*
X124398700Y-54848900D01*
X124398700Y-55483900D01*
G37*
X124398700Y-55483900D02*
X121858700Y-55483900D01*
X121858700Y-54848900D01*
X124398700Y-54848900D01*
X124398700Y-55483900D01*
G36*
X124398700Y-58023900D02*
G01*
X121858700Y-58023900D01*
X121858700Y-57388900D01*
X124398700Y-57388900D01*
X124398700Y-58023900D01*
G37*
X124398700Y-58023900D02*
X121858700Y-58023900D01*
X121858700Y-57388900D01*
X124398700Y-57388900D01*
X124398700Y-58023900D01*
G36*
X124398700Y-60563900D02*
G01*
X121858700Y-60563900D01*
X121858700Y-59928900D01*
X124398700Y-59928900D01*
X124398700Y-60563900D01*
G37*
X124398700Y-60563900D02*
X121858700Y-60563900D01*
X121858700Y-59928900D01*
X124398700Y-59928900D01*
X124398700Y-60563900D01*
G36*
X124398700Y-63103900D02*
G01*
X121858700Y-63103900D01*
X121858700Y-62468900D01*
X124398700Y-62468900D01*
X124398700Y-63103900D01*
G37*
X124398700Y-63103900D02*
X121858700Y-63103900D01*
X121858700Y-62468900D01*
X124398700Y-62468900D01*
X124398700Y-63103900D01*
G36*
X124398700Y-65643900D02*
G01*
X121858700Y-65643900D01*
X121858700Y-65008900D01*
X124398700Y-65008900D01*
X124398700Y-65643900D01*
G37*
X124398700Y-65643900D02*
X121858700Y-65643900D01*
X121858700Y-65008900D01*
X124398700Y-65008900D01*
X124398700Y-65643900D01*
G36*
X111698700Y-37703900D02*
G01*
X109158700Y-37703900D01*
X109158700Y-37068900D01*
X111698700Y-37068900D01*
X111698700Y-37703900D01*
G37*
X111698700Y-37703900D02*
X109158700Y-37703900D01*
X109158700Y-37068900D01*
X111698700Y-37068900D01*
X111698700Y-37703900D01*
D13*
X115900800Y-64031000D03*
X115900800Y-66571000D03*
G04 #@! TA.AperFunction,SMDPad,CuDef*
G36*
G01*
X116138300Y-66701000D02*
X115663300Y-66701000D01*
G75*
G02*
X115425800Y-66463500I0J237500D01*
G01*
X115425800Y-65963500D01*
G75*
G02*
X115663300Y-65726000I237500J0D01*
G01*
X116138300Y-65726000D01*
G75*
G02*
X116375800Y-65963500I0J-237500D01*
G01*
X116375800Y-66463500D01*
G75*
G02*
X116138300Y-66701000I-237500J0D01*
G01*
G37*
G04 #@! TD.AperFunction*
G04 #@! TA.AperFunction,SMDPad,CuDef*
G36*
G01*
X116138300Y-64876000D02*
X115663300Y-64876000D01*
G75*
G02*
X115425800Y-64638500I0J237500D01*
G01*
X115425800Y-64138500D01*
G75*
G02*
X115663300Y-63901000I237500J0D01*
G01*
X116138300Y-63901000D01*
G75*
G02*
X116375800Y-64138500I0J-237500D01*
G01*
X116375800Y-64638500D01*
G75*
G02*
X116138300Y-64876000I-237500J0D01*
G01*
G37*
G04 #@! TD.AperFunction*
X117958200Y-64056400D03*
X117958200Y-66596400D03*
G04 #@! TA.AperFunction,SMDPad,CuDef*
G36*
G01*
X118195700Y-66726400D02*
X117720700Y-66726400D01*
G75*
G02*
X117483200Y-66488900I0J237500D01*
G01*
X117483200Y-65988900D01*
G75*
G02*
X117720700Y-65751400I237500J0D01*
G01*
X118195700Y-65751400D01*
G75*
G02*
X118433200Y-65988900I0J-237500D01*
G01*
X118433200Y-66488900D01*
G75*
G02*
X118195700Y-66726400I-237500J0D01*
G01*
G37*
G04 #@! TD.AperFunction*
G04 #@! TA.AperFunction,SMDPad,CuDef*
G36*
G01*
X118195700Y-64901400D02*
X117720700Y-64901400D01*
G75*
G02*
X117483200Y-64663900I0J237500D01*
G01*
X117483200Y-64163900D01*
G75*
G02*
X117720700Y-63926400I237500J0D01*
G01*
X118195700Y-63926400D01*
G75*
G02*
X118433200Y-64163900I0J-237500D01*
G01*
X118433200Y-64663900D01*
G75*
G02*
X118195700Y-64901400I-237500J0D01*
G01*
G37*
G04 #@! TD.AperFunction*
D14*
X64084800Y-38935800D03*
D15*
X65374800Y-45375800D03*
G04 #@! TA.AperFunction,ComponentPad*
G36*
G01*
X58574674Y-35954597D02*
X58574674Y-35954597D01*
G75*
G02*
X57818158Y-36698023I-749971J6545D01*
G01*
X54918268Y-36672717D01*
G75*
G02*
X54174842Y-35916201I6545J749971D01*
G01*
X54174842Y-35916201D01*
G75*
G02*
X54931358Y-35172775I749971J-6545D01*
G01*
X57831248Y-35198081D01*
G75*
G02*
X58574674Y-35954597I-6545J-749971D01*
G01*
G37*
G04 #@! TD.AperFunction*
D14*
X57734800Y-36395800D03*
X56464800Y-38935800D03*
D16*
X60274800Y-47375800D03*
D15*
X55174800Y-45375800D03*
G04 #@! TA.AperFunction,ComponentPad*
G36*
G01*
X61974926Y-35954597D02*
X61974926Y-35954597D01*
G75*
G02*
X62718352Y-35198081I749971J6545D01*
G01*
X65618242Y-35172775D01*
G75*
G02*
X66374758Y-35916201I6545J-749971D01*
G01*
X66374758Y-35916201D01*
G75*
G02*
X65631332Y-36672717I-749971J-6545D01*
G01*
X62731442Y-36698023D01*
G75*
G02*
X61974926Y-35954597I-6545J749971D01*
G01*
G37*
G04 #@! TD.AperFunction*
D14*
X62814800Y-36395800D03*
X45009400Y-43418900D03*
D15*
X46299400Y-49858900D03*
G04 #@! TA.AperFunction,ComponentPad*
G36*
G01*
X39499274Y-40437697D02*
X39499274Y-40437697D01*
G75*
G02*
X38742758Y-41181123I-749971J6545D01*
G01*
X35842868Y-41155817D01*
G75*
G02*
X35099442Y-40399301I6545J749971D01*
G01*
X35099442Y-40399301D01*
G75*
G02*
X35855958Y-39655875I749971J-6545D01*
G01*
X38755848Y-39681181D01*
G75*
G02*
X39499274Y-40437697I-6545J-749971D01*
G01*
G37*
G04 #@! TD.AperFunction*
D14*
X38659400Y-40878900D03*
X37389400Y-43418900D03*
D16*
X41199400Y-51858900D03*
D15*
X36099400Y-49858900D03*
G04 #@! TA.AperFunction,ComponentPad*
G36*
G01*
X42899526Y-40437697D02*
X42899526Y-40437697D01*
G75*
G02*
X43642952Y-39681181I749971J6545D01*
G01*
X46542842Y-39655875D01*
G75*
G02*
X47299358Y-40399301I6545J-749971D01*
G01*
X47299358Y-40399301D01*
G75*
G02*
X46555932Y-41155817I-749971J-6545D01*
G01*
X43656042Y-41181123D01*
G75*
G02*
X42899526Y-40437697I-6545J749971D01*
G01*
G37*
G04 #@! TD.AperFunction*
D14*
X43739400Y-40878900D03*
X83147500Y-36218000D03*
D15*
X84437500Y-42658000D03*
G04 #@! TA.AperFunction,ComponentPad*
G36*
G01*
X77637374Y-33236797D02*
X77637374Y-33236797D01*
G75*
G02*
X76880858Y-33980223I-749971J6545D01*
G01*
X73980968Y-33954917D01*
G75*
G02*
X73237542Y-33198401I6545J749971D01*
G01*
X73237542Y-33198401D01*
G75*
G02*
X73994058Y-32454975I749971J-6545D01*
G01*
X76893948Y-32480281D01*
G75*
G02*
X77637374Y-33236797I-6545J-749971D01*
G01*
G37*
G04 #@! TD.AperFunction*
D14*
X76797500Y-33678000D03*
X75527500Y-36218000D03*
D16*
X79337500Y-44658000D03*
D15*
X74237500Y-42658000D03*
G04 #@! TA.AperFunction,ComponentPad*
G36*
G01*
X81037626Y-33236797D02*
X81037626Y-33236797D01*
G75*
G02*
X81781052Y-32480281I749971J6545D01*
G01*
X84680942Y-32454975D01*
G75*
G02*
X85437458Y-33198401I6545J-749971D01*
G01*
X85437458Y-33198401D01*
G75*
G02*
X84694032Y-33954917I-749971J-6545D01*
G01*
X81794142Y-33980223D01*
G75*
G02*
X81037626Y-33236797I-6545J749971D01*
G01*
G37*
G04 #@! TD.AperFunction*
D14*
X81877500Y-33678000D03*
X102210200Y-38935800D03*
D15*
X103500200Y-45375800D03*
G04 #@! TA.AperFunction,ComponentPad*
G36*
G01*
X96700074Y-35954597D02*
X96700074Y-35954597D01*
G75*
G02*
X95943558Y-36698023I-749971J6545D01*
G01*
X93043668Y-36672717D01*
G75*
G02*
X92300242Y-35916201I6545J749971D01*
G01*
X92300242Y-35916201D01*
G75*
G02*
X93056758Y-35172775I749971J-6545D01*
G01*
X95956648Y-35198081D01*
G75*
G02*
X96700074Y-35954597I-6545J-749971D01*
G01*
G37*
G04 #@! TD.AperFunction*
D14*
X95860200Y-36395800D03*
X94590200Y-38935800D03*
D16*
X98400200Y-47375800D03*
D15*
X93300200Y-45375800D03*
G04 #@! TA.AperFunction,ComponentPad*
G36*
G01*
X100100326Y-35954597D02*
X100100326Y-35954597D01*
G75*
G02*
X100843752Y-35198081I749971J6545D01*
G01*
X103743642Y-35172775D01*
G75*
G02*
X104500158Y-35916201I6545J-749971D01*
G01*
X104500158Y-35916201D01*
G75*
G02*
X103756732Y-36672717I-749971J-6545D01*
G01*
X100856842Y-36698023D01*
G75*
G02*
X100100326Y-35954597I-6545J749971D01*
G01*
G37*
G04 #@! TD.AperFunction*
D14*
X100940200Y-36395800D03*
X83147500Y-55268000D03*
D15*
X84437500Y-61708000D03*
G04 #@! TA.AperFunction,ComponentPad*
G36*
G01*
X77637374Y-52286797D02*
X77637374Y-52286797D01*
G75*
G02*
X76880858Y-53030223I-749971J6545D01*
G01*
X73980968Y-53004917D01*
G75*
G02*
X73237542Y-52248401I6545J749971D01*
G01*
X73237542Y-52248401D01*
G75*
G02*
X73994058Y-51504975I749971J-6545D01*
G01*
X76893948Y-51530281D01*
G75*
G02*
X77637374Y-52286797I-6545J-749971D01*
G01*
G37*
G04 #@! TD.AperFunction*
D14*
X76797500Y-52728000D03*
X75527500Y-55268000D03*
D16*
X79337500Y-63708000D03*
D15*
X74237500Y-61708000D03*
G04 #@! TA.AperFunction,ComponentPad*
G36*
G01*
X81037626Y-52286797D02*
X81037626Y-52286797D01*
G75*
G02*
X81781052Y-51530281I749971J6545D01*
G01*
X84680942Y-51504975D01*
G75*
G02*
X85437458Y-52248401I6545J-749971D01*
G01*
X85437458Y-52248401D01*
G75*
G02*
X84694032Y-53004917I-749971J-6545D01*
G01*
X81794142Y-53030223D01*
G75*
G02*
X81037626Y-52286797I-6545J749971D01*
G01*
G37*
G04 #@! TD.AperFunction*
D14*
X81877500Y-52728000D03*
X102210200Y-57985800D03*
D15*
X103500200Y-64425800D03*
G04 #@! TA.AperFunction,ComponentPad*
G36*
G01*
X96700074Y-55004597D02*
X96700074Y-55004597D01*
G75*
G02*
X95943558Y-55748023I-749971J6545D01*
G01*
X93043668Y-55722717D01*
G75*
G02*
X92300242Y-54966201I6545J749971D01*
G01*
X92300242Y-54966201D01*
G75*
G02*
X93056758Y-54222775I749971J-6545D01*
G01*
X95956648Y-54248081D01*
G75*
G02*
X96700074Y-55004597I-6545J-749971D01*
G01*
G37*
G04 #@! TD.AperFunction*
D14*
X95860200Y-55445800D03*
X94590200Y-57985800D03*
D16*
X98400200Y-66425800D03*
D15*
X93300200Y-64425800D03*
G04 #@! TA.AperFunction,ComponentPad*
G36*
G01*
X100100326Y-55004597D02*
X100100326Y-55004597D01*
G75*
G02*
X100843752Y-54248081I749971J6545D01*
G01*
X103743642Y-54222775D01*
G75*
G02*
X104500158Y-54966201I6545J-749971D01*
G01*
X104500158Y-54966201D01*
G75*
G02*
X103756732Y-55722717I-749971J-6545D01*
G01*
X100856842Y-55748023D01*
G75*
G02*
X100100326Y-55004597I-6545J749971D01*
G01*
G37*
G04 #@! TD.AperFunction*
D14*
X100940200Y-55445800D03*
X45009400Y-62468900D03*
D15*
X46299400Y-68908900D03*
G04 #@! TA.AperFunction,ComponentPad*
G36*
G01*
X39499274Y-59487697D02*
X39499274Y-59487697D01*
G75*
G02*
X38742758Y-60231123I-749971J6545D01*
G01*
X35842868Y-60205817D01*
G75*
G02*
X35099442Y-59449301I6545J749971D01*
G01*
X35099442Y-59449301D01*
G75*
G02*
X35855958Y-58705875I749971J-6545D01*
G01*
X38755848Y-58731181D01*
G75*
G02*
X39499274Y-59487697I-6545J-749971D01*
G01*
G37*
G04 #@! TD.AperFunction*
D14*
X38659400Y-59928900D03*
X37389400Y-62468900D03*
D16*
X41199400Y-70908900D03*
D15*
X36099400Y-68908900D03*
G04 #@! TA.AperFunction,ComponentPad*
G36*
G01*
X42899526Y-59487697D02*
X42899526Y-59487697D01*
G75*
G02*
X43642952Y-58731181I749971J6545D01*
G01*
X46542842Y-58705875D01*
G75*
G02*
X47299358Y-59449301I6545J-749971D01*
G01*
X47299358Y-59449301D01*
G75*
G02*
X46555932Y-60205817I-749971J-6545D01*
G01*
X43656042Y-60231123D01*
G75*
G02*
X42899526Y-59487697I-6545J749971D01*
G01*
G37*
G04 #@! TD.AperFunction*
D14*
X43739400Y-59928900D03*
X64084800Y-57985800D03*
D15*
X65374800Y-64425800D03*
G04 #@! TA.AperFunction,ComponentPad*
G36*
G01*
X58574674Y-55004597D02*
X58574674Y-55004597D01*
G75*
G02*
X57818158Y-55748023I-749971J6545D01*
G01*
X54918268Y-55722717D01*
G75*
G02*
X54174842Y-54966201I6545J749971D01*
G01*
X54174842Y-54966201D01*
G75*
G02*
X54931358Y-54222775I749971J-6545D01*
G01*
X57831248Y-54248081D01*
G75*
G02*
X58574674Y-55004597I-6545J-749971D01*
G01*
G37*
G04 #@! TD.AperFunction*
D14*
X57734800Y-55445800D03*
X56464800Y-57985800D03*
D16*
X60274800Y-66425800D03*
D15*
X55174800Y-64425800D03*
G04 #@! TA.AperFunction,ComponentPad*
G36*
G01*
X61974926Y-55004597D02*
X61974926Y-55004597D01*
G75*
G02*
X62718352Y-54248081I749971J6545D01*
G01*
X65618242Y-54222775D01*
G75*
G02*
X66374758Y-54966201I6545J-749971D01*
G01*
X66374758Y-54966201D01*
G75*
G02*
X65631332Y-55722717I-749971J-6545D01*
G01*
X62731442Y-55748023D01*
G75*
G02*
X61974926Y-55004597I-6545J749971D01*
G01*
G37*
G04 #@! TD.AperFunction*
D14*
X62814800Y-55445800D03*
G04 #@! TA.AperFunction,SMDPad,CuDef*
D17*
G36*
X121358700Y-53693900D02*
G01*
X121358700Y-52193900D01*
X122358700Y-52193900D01*
X122358700Y-53693900D01*
X121358700Y-53693900D01*
G37*
G04 #@! TD.AperFunction*
G04 #@! TA.AperFunction,SMDPad,CuDef*
G36*
X111198700Y-53693900D02*
G01*
X111198700Y-52193900D01*
X112198700Y-52193900D01*
X112198700Y-53693900D01*
X111198700Y-53693900D01*
G37*
G04 #@! TD.AperFunction*
G04 #@! TA.AperFunction,SMDPad,CuDef*
G36*
X120088700Y-53693900D02*
G01*
X120088700Y-52193900D01*
X121088700Y-52193900D01*
X121088700Y-53693900D01*
X120088700Y-53693900D01*
G37*
G04 #@! TD.AperFunction*
G04 #@! TA.AperFunction,SMDPad,CuDef*
G36*
X112468700Y-53693900D02*
G01*
X112468700Y-52193900D01*
X113468700Y-52193900D01*
X113468700Y-53693900D01*
X112468700Y-53693900D01*
G37*
G04 #@! TD.AperFunction*
G04 #@! TA.AperFunction,SMDPad,CuDef*
G36*
X121358700Y-56233900D02*
G01*
X121358700Y-54733900D01*
X122358700Y-54733900D01*
X122358700Y-56233900D01*
X121358700Y-56233900D01*
G37*
G04 #@! TD.AperFunction*
G04 #@! TA.AperFunction,SMDPad,CuDef*
G36*
X111198700Y-56233900D02*
G01*
X111198700Y-54733900D01*
X112198700Y-54733900D01*
X112198700Y-56233900D01*
X111198700Y-56233900D01*
G37*
G04 #@! TD.AperFunction*
G04 #@! TA.AperFunction,SMDPad,CuDef*
G36*
X120088700Y-56233900D02*
G01*
X120088700Y-54733900D01*
X121088700Y-54733900D01*
X121088700Y-56233900D01*
X120088700Y-56233900D01*
G37*
G04 #@! TD.AperFunction*
G04 #@! TA.AperFunction,SMDPad,CuDef*
G36*
X112468700Y-56233900D02*
G01*
X112468700Y-54733900D01*
X113468700Y-54733900D01*
X113468700Y-56233900D01*
X112468700Y-56233900D01*
G37*
G04 #@! TD.AperFunction*
G04 #@! TA.AperFunction,SMDPad,CuDef*
G36*
X121358700Y-58773900D02*
G01*
X121358700Y-57273900D01*
X122358700Y-57273900D01*
X122358700Y-58773900D01*
X121358700Y-58773900D01*
G37*
G04 #@! TD.AperFunction*
G04 #@! TA.AperFunction,SMDPad,CuDef*
G36*
X111198700Y-58773900D02*
G01*
X111198700Y-57273900D01*
X112198700Y-57273900D01*
X112198700Y-58773900D01*
X111198700Y-58773900D01*
G37*
G04 #@! TD.AperFunction*
G04 #@! TA.AperFunction,SMDPad,CuDef*
G36*
X120088700Y-58773900D02*
G01*
X120088700Y-57273900D01*
X121088700Y-57273900D01*
X121088700Y-58773900D01*
X120088700Y-58773900D01*
G37*
G04 #@! TD.AperFunction*
G04 #@! TA.AperFunction,SMDPad,CuDef*
G36*
X112468700Y-58773900D02*
G01*
X112468700Y-57273900D01*
X113468700Y-57273900D01*
X113468700Y-58773900D01*
X112468700Y-58773900D01*
G37*
G04 #@! TD.AperFunction*
G04 #@! TA.AperFunction,SMDPad,CuDef*
G36*
X121358700Y-61313900D02*
G01*
X121358700Y-59813900D01*
X122358700Y-59813900D01*
X122358700Y-61313900D01*
X121358700Y-61313900D01*
G37*
G04 #@! TD.AperFunction*
G04 #@! TA.AperFunction,SMDPad,CuDef*
G36*
X111198700Y-61313900D02*
G01*
X111198700Y-59813900D01*
X112198700Y-59813900D01*
X112198700Y-61313900D01*
X111198700Y-61313900D01*
G37*
G04 #@! TD.AperFunction*
G04 #@! TA.AperFunction,SMDPad,CuDef*
G36*
X120088700Y-61313900D02*
G01*
X120088700Y-59813900D01*
X121088700Y-59813900D01*
X121088700Y-61313900D01*
X120088700Y-61313900D01*
G37*
G04 #@! TD.AperFunction*
G04 #@! TA.AperFunction,SMDPad,CuDef*
G36*
X112468700Y-61313900D02*
G01*
X112468700Y-59813900D01*
X113468700Y-59813900D01*
X113468700Y-61313900D01*
X112468700Y-61313900D01*
G37*
G04 #@! TD.AperFunction*
G04 #@! TA.AperFunction,SMDPad,CuDef*
G36*
X121358700Y-63853900D02*
G01*
X121358700Y-62353900D01*
X122358700Y-62353900D01*
X122358700Y-63853900D01*
X121358700Y-63853900D01*
G37*
G04 #@! TD.AperFunction*
G04 #@! TA.AperFunction,SMDPad,CuDef*
G36*
X111198700Y-63853900D02*
G01*
X111198700Y-62353900D01*
X112198700Y-62353900D01*
X112198700Y-63853900D01*
X111198700Y-63853900D01*
G37*
G04 #@! TD.AperFunction*
G04 #@! TA.AperFunction,SMDPad,CuDef*
G36*
X120088700Y-63853900D02*
G01*
X120088700Y-62353900D01*
X121088700Y-62353900D01*
X121088700Y-63853900D01*
X120088700Y-63853900D01*
G37*
G04 #@! TD.AperFunction*
G04 #@! TA.AperFunction,SMDPad,CuDef*
G36*
X112468700Y-63853900D02*
G01*
X112468700Y-62353900D01*
X113468700Y-62353900D01*
X113468700Y-63853900D01*
X112468700Y-63853900D01*
G37*
G04 #@! TD.AperFunction*
G04 #@! TA.AperFunction,SMDPad,CuDef*
G36*
X121358700Y-66393900D02*
G01*
X121358700Y-64893900D01*
X122358700Y-64893900D01*
X122358700Y-66393900D01*
X121358700Y-66393900D01*
G37*
G04 #@! TD.AperFunction*
G04 #@! TA.AperFunction,SMDPad,CuDef*
G36*
X111198700Y-66393900D02*
G01*
X111198700Y-64893900D01*
X112198700Y-64893900D01*
X112198700Y-66393900D01*
X111198700Y-66393900D01*
G37*
G04 #@! TD.AperFunction*
G04 #@! TA.AperFunction,SMDPad,CuDef*
G36*
X120088700Y-66393900D02*
G01*
X120088700Y-64893900D01*
X121088700Y-64893900D01*
X121088700Y-66393900D01*
X120088700Y-66393900D01*
G37*
G04 #@! TD.AperFunction*
G04 #@! TA.AperFunction,SMDPad,CuDef*
G36*
X112468700Y-66393900D02*
G01*
X112468700Y-64893900D01*
X113468700Y-64893900D01*
X113468700Y-66393900D01*
X112468700Y-66393900D01*
G37*
G04 #@! TD.AperFunction*
G04 #@! TA.AperFunction,SMDPad,CuDef*
G36*
X121358700Y-51153900D02*
G01*
X121358700Y-49653900D01*
X122358700Y-49653900D01*
X122358700Y-51153900D01*
X121358700Y-51153900D01*
G37*
G04 #@! TD.AperFunction*
G04 #@! TA.AperFunction,SMDPad,CuDef*
G36*
X111198700Y-51153900D02*
G01*
X111198700Y-49653900D01*
X112198700Y-49653900D01*
X112198700Y-51153900D01*
X111198700Y-51153900D01*
G37*
G04 #@! TD.AperFunction*
G04 #@! TA.AperFunction,SMDPad,CuDef*
G36*
X120088700Y-51153900D02*
G01*
X120088700Y-49653900D01*
X121088700Y-49653900D01*
X121088700Y-51153900D01*
X120088700Y-51153900D01*
G37*
G04 #@! TD.AperFunction*
G04 #@! TA.AperFunction,SMDPad,CuDef*
G36*
X112468700Y-51153900D02*
G01*
X112468700Y-49653900D01*
X113468700Y-49653900D01*
X113468700Y-51153900D01*
X112468700Y-51153900D01*
G37*
G04 #@! TD.AperFunction*
G04 #@! TA.AperFunction,SMDPad,CuDef*
G36*
X121358700Y-48613900D02*
G01*
X121358700Y-47113900D01*
X122358700Y-47113900D01*
X122358700Y-48613900D01*
X121358700Y-48613900D01*
G37*
G04 #@! TD.AperFunction*
G04 #@! TA.AperFunction,SMDPad,CuDef*
G36*
X111198700Y-48613900D02*
G01*
X111198700Y-47113900D01*
X112198700Y-47113900D01*
X112198700Y-48613900D01*
X111198700Y-48613900D01*
G37*
G04 #@! TD.AperFunction*
G04 #@! TA.AperFunction,SMDPad,CuDef*
G36*
X120088700Y-48613900D02*
G01*
X120088700Y-47113900D01*
X121088700Y-47113900D01*
X121088700Y-48613900D01*
X120088700Y-48613900D01*
G37*
G04 #@! TD.AperFunction*
G04 #@! TA.AperFunction,SMDPad,CuDef*
G36*
X112468700Y-48613900D02*
G01*
X112468700Y-47113900D01*
X113468700Y-47113900D01*
X113468700Y-48613900D01*
X112468700Y-48613900D01*
G37*
G04 #@! TD.AperFunction*
G04 #@! TA.AperFunction,SMDPad,CuDef*
G36*
X121358700Y-46073900D02*
G01*
X121358700Y-44573900D01*
X122358700Y-44573900D01*
X122358700Y-46073900D01*
X121358700Y-46073900D01*
G37*
G04 #@! TD.AperFunction*
G04 #@! TA.AperFunction,SMDPad,CuDef*
G36*
X111198700Y-46073900D02*
G01*
X111198700Y-44573900D01*
X112198700Y-44573900D01*
X112198700Y-46073900D01*
X111198700Y-46073900D01*
G37*
G04 #@! TD.AperFunction*
G04 #@! TA.AperFunction,SMDPad,CuDef*
G36*
X120088700Y-46073900D02*
G01*
X120088700Y-44573900D01*
X121088700Y-44573900D01*
X121088700Y-46073900D01*
X120088700Y-46073900D01*
G37*
G04 #@! TD.AperFunction*
G04 #@! TA.AperFunction,SMDPad,CuDef*
G36*
X112468700Y-46073900D02*
G01*
X112468700Y-44573900D01*
X113468700Y-44573900D01*
X113468700Y-46073900D01*
X112468700Y-46073900D01*
G37*
G04 #@! TD.AperFunction*
G04 #@! TA.AperFunction,SMDPad,CuDef*
G36*
X121358700Y-43533900D02*
G01*
X121358700Y-42033900D01*
X122358700Y-42033900D01*
X122358700Y-43533900D01*
X121358700Y-43533900D01*
G37*
G04 #@! TD.AperFunction*
G04 #@! TA.AperFunction,SMDPad,CuDef*
G36*
X111198700Y-43533900D02*
G01*
X111198700Y-42033900D01*
X112198700Y-42033900D01*
X112198700Y-43533900D01*
X111198700Y-43533900D01*
G37*
G04 #@! TD.AperFunction*
G04 #@! TA.AperFunction,SMDPad,CuDef*
G36*
X120088700Y-43533900D02*
G01*
X120088700Y-42033900D01*
X121088700Y-42033900D01*
X121088700Y-43533900D01*
X120088700Y-43533900D01*
G37*
G04 #@! TD.AperFunction*
G04 #@! TA.AperFunction,SMDPad,CuDef*
G36*
X112468700Y-43533900D02*
G01*
X112468700Y-42033900D01*
X113468700Y-42033900D01*
X113468700Y-43533900D01*
X112468700Y-43533900D01*
G37*
G04 #@! TD.AperFunction*
G04 #@! TA.AperFunction,SMDPad,CuDef*
G36*
X121358700Y-40993900D02*
G01*
X121358700Y-39493900D01*
X122358700Y-39493900D01*
X122358700Y-40993900D01*
X121358700Y-40993900D01*
G37*
G04 #@! TD.AperFunction*
G04 #@! TA.AperFunction,SMDPad,CuDef*
G36*
X111198700Y-40993900D02*
G01*
X111198700Y-39493900D01*
X112198700Y-39493900D01*
X112198700Y-40993900D01*
X111198700Y-40993900D01*
G37*
G04 #@! TD.AperFunction*
G04 #@! TA.AperFunction,SMDPad,CuDef*
G36*
X120088700Y-40993900D02*
G01*
X120088700Y-39493900D01*
X121088700Y-39493900D01*
X121088700Y-40993900D01*
X120088700Y-40993900D01*
G37*
G04 #@! TD.AperFunction*
G04 #@! TA.AperFunction,SMDPad,CuDef*
G36*
X112468700Y-40993900D02*
G01*
X112468700Y-39493900D01*
X113468700Y-39493900D01*
X113468700Y-40993900D01*
X112468700Y-40993900D01*
G37*
G04 #@! TD.AperFunction*
G04 #@! TA.AperFunction,SMDPad,CuDef*
G36*
X120088700Y-38453900D02*
G01*
X120088700Y-36953900D01*
X121088700Y-36953900D01*
X121088700Y-38453900D01*
X120088700Y-38453900D01*
G37*
G04 #@! TD.AperFunction*
G04 #@! TA.AperFunction,SMDPad,CuDef*
G36*
X121358700Y-38453900D02*
G01*
X121358700Y-36953900D01*
X122358700Y-36953900D01*
X122358700Y-38453900D01*
X121358700Y-38453900D01*
G37*
G04 #@! TD.AperFunction*
G04 #@! TA.AperFunction,SMDPad,CuDef*
G36*
X112468700Y-38453900D02*
G01*
X112468700Y-36953900D01*
X113468700Y-36953900D01*
X113468700Y-38453900D01*
X112468700Y-38453900D01*
G37*
G04 #@! TD.AperFunction*
G04 #@! TA.AperFunction,SMDPad,CuDef*
G36*
X111198700Y-38453900D02*
G01*
X111198700Y-36953900D01*
X112198700Y-36953900D01*
X112198700Y-38453900D01*
X111198700Y-38453900D01*
G37*
G04 #@! TD.AperFunction*
D18*
X124435100Y-37830900D03*
X124435100Y-40370900D03*
X124435100Y-42910900D03*
X124435100Y-45450900D03*
X124435100Y-47990900D03*
X124435100Y-50530900D03*
X124435100Y-53070900D03*
X124435100Y-55610900D03*
X124435100Y-58150900D03*
X124435100Y-60690900D03*
X124435100Y-63230900D03*
X124435100Y-65770900D03*
X109215100Y-65770900D03*
X109215100Y-63230900D03*
X109215100Y-60690900D03*
X109215100Y-58150900D03*
X109215100Y-55610900D03*
X109215100Y-53070900D03*
X109215100Y-50530900D03*
X109215100Y-47990900D03*
X109215100Y-45450900D03*
X109215100Y-42910900D03*
X109215100Y-40370900D03*
X109215100Y-37830900D03*
D19*
X82412700Y-72527300D03*
X85812700Y-72527300D03*
D20*
X74395100Y-70208300D03*
X77395100Y-70208300D03*
X78895100Y-70208300D03*
D21*
X72995100Y-73068300D03*
X80295100Y-73068300D03*
X80295100Y-70858300D03*
X72995100Y-70858300D03*
D22*
X120599800Y-68318820D03*
X120599800Y-69319580D03*
X118059800Y-68318820D03*
X118059800Y-69319580D03*
X115532500Y-68318820D03*
X115532500Y-69319580D03*
X112992500Y-68318820D03*
X112992500Y-69319580D03*
D23*
X112954400Y-71689100D03*
X115494400Y-71689100D03*
X118034400Y-71689100D03*
X120574400Y-71689100D03*
D24*
X109665100Y-71054100D03*
D25*
X109665100Y-69054100D03*
D26*
X83465000Y-72565400D03*
X115024500Y-40243900D03*
X114897500Y-44561900D03*
X114872100Y-45323900D03*
X86982900Y-72527300D03*
X115024500Y-42783900D03*
X119215500Y-50403900D03*
X114834000Y-50403900D03*
X116866000Y-62380000D03*
X116846950Y-63745250D03*
X117932800Y-62913400D03*
X119126600Y-47863900D03*
X114707000Y-47863900D03*
X114135500Y-62824500D03*
X113977901Y-67023001D03*
X112624200Y-67142500D03*
X119533000Y-61935500D03*
X75315349Y-73285551D03*
X77754550Y-68848850D03*
X120853800Y-36192600D03*
X114999100Y-37703900D03*
X119482200Y-52943900D03*
X119520300Y-55483900D03*
X119545700Y-58023900D03*
X119545700Y-60563900D03*
X114592700Y-53617000D03*
X115253100Y-56461800D03*
X114277901Y-57398899D03*
X114640799Y-59938899D03*
X114303301Y-48488901D03*
X114414900Y-51127800D03*
X114986400Y-39520000D03*
X114922900Y-36980000D03*
D27*
X38659400Y-40878900D02*
X43739400Y-40878900D01*
X50791700Y-40408900D02*
X55274800Y-35925800D01*
X46199400Y-40408900D02*
X50791700Y-40408900D01*
X57734800Y-36395800D02*
X62814800Y-36395800D01*
X71619700Y-35925800D02*
X74337500Y-33208000D01*
X65274800Y-35925800D02*
X71619700Y-35925800D01*
X76797500Y-33678000D02*
X81877500Y-33678000D01*
X90999900Y-33208000D02*
X93400200Y-35608300D01*
X84337500Y-33208000D02*
X90999900Y-33208000D01*
X102930200Y-36078300D02*
X103400200Y-35608300D01*
X95860200Y-36078300D02*
X102930200Y-36078300D01*
X38659400Y-54398900D02*
X41199400Y-51858900D01*
X38659400Y-59928900D02*
X38659400Y-54398900D01*
X34474399Y-42133901D02*
X36199400Y-40408900D01*
X34474399Y-50124903D02*
X34474399Y-42133901D01*
X36208396Y-51858900D02*
X34474399Y-50124903D01*
X41199400Y-51858900D02*
X36208396Y-51858900D01*
X38659400Y-59928900D02*
X43739400Y-59928900D01*
X50842500Y-59458900D02*
X55325600Y-54975800D01*
X46199400Y-59458900D02*
X50842500Y-59458900D01*
X57315600Y-54975800D02*
X57785600Y-55445800D01*
X55325600Y-54975800D02*
X57315600Y-54975800D01*
X57785600Y-55445800D02*
X62865600Y-55445800D01*
X71619700Y-54975800D02*
X74324800Y-52270700D01*
X65325600Y-54975800D02*
X71619700Y-54975800D01*
X76784800Y-52740700D02*
X81864800Y-52740700D01*
X84324800Y-52270700D02*
X90987200Y-52270700D01*
X34474399Y-61183901D02*
X36199400Y-59458900D01*
X34474399Y-69174903D02*
X34474399Y-61183901D01*
X36208396Y-70908900D02*
X34474399Y-69174903D01*
X41199400Y-70908900D02*
X36208396Y-70908900D01*
X57785600Y-49865000D02*
X60274800Y-47375800D01*
X57785600Y-55445800D02*
X57785600Y-49865000D01*
X53600599Y-56700801D02*
X55325600Y-54975800D01*
X53600599Y-64691803D02*
X53600599Y-56700801D01*
X55334596Y-66425800D02*
X53600599Y-64691803D01*
X60325600Y-66425800D02*
X55334596Y-66425800D01*
X72599799Y-53995701D02*
X74324800Y-52270700D01*
X72599799Y-61986703D02*
X72599799Y-53995701D01*
X74333796Y-63720700D02*
X72599799Y-61986703D01*
X79324800Y-63720700D02*
X74333796Y-63720700D01*
X76784800Y-47210700D02*
X79337500Y-44658000D01*
X76784800Y-52740700D02*
X76784800Y-47210700D01*
X98400200Y-53045500D02*
X98400200Y-47058300D01*
X53549799Y-37650801D02*
X55274800Y-35925800D01*
X53549799Y-45641803D02*
X53549799Y-37650801D01*
X55283796Y-47375800D02*
X53549799Y-45641803D01*
X60274800Y-47375800D02*
X55283796Y-47375800D01*
X72612499Y-34933001D02*
X74337500Y-33208000D01*
X72612499Y-42924003D02*
X72612499Y-34933001D01*
X74346496Y-44658000D02*
X72612499Y-42924003D01*
X79337500Y-44658000D02*
X74346496Y-44658000D01*
X91675199Y-37333301D02*
X93400200Y-35608300D01*
X91675199Y-45324303D02*
X91675199Y-37333301D01*
X93409196Y-47058300D02*
X91675199Y-45324303D01*
X98400200Y-47058300D02*
X93409196Y-47058300D01*
X98374800Y-66108300D02*
X93383796Y-66108300D01*
X93383796Y-66108300D02*
X91649799Y-64374303D01*
X91649799Y-64374303D02*
X91649799Y-56383301D01*
X91649799Y-56383301D02*
X93374800Y-54658300D01*
X90987200Y-52270700D02*
X93374800Y-54658300D01*
X95834800Y-55610900D02*
X98400200Y-53045500D01*
X95834800Y-55128300D02*
X95834800Y-55610900D01*
X95834800Y-55128300D02*
X100914800Y-55128300D01*
X120688700Y-42783900D02*
X120688700Y-45323900D01*
X83426900Y-72527300D02*
X83465000Y-72565400D01*
X82412700Y-72527300D02*
X83426900Y-72527300D01*
X112968700Y-40243900D02*
X115024500Y-40243900D01*
X120588700Y-45323900D02*
X119826700Y-44561900D01*
X119826700Y-44561900D02*
X114897500Y-44561900D01*
X114897500Y-44561900D02*
X114897500Y-44561900D01*
X112968700Y-39493900D02*
X112968700Y-40243900D01*
X112643690Y-39168890D02*
X112968700Y-39493900D01*
X106643290Y-39168890D02*
X112643690Y-39168890D01*
X103400200Y-35925800D02*
X106643290Y-39168890D01*
X119513690Y-41708890D02*
X120588700Y-42783900D01*
X114433690Y-41708890D02*
X119513690Y-41708890D01*
X112968700Y-40243900D02*
X114433690Y-41708890D01*
X121597901Y-68843679D02*
X121073042Y-68318820D01*
X121073042Y-68318820D02*
X120599800Y-68318820D01*
X120501682Y-73276600D02*
X121597901Y-72180381D01*
X112141600Y-73276600D02*
X120501682Y-73276600D01*
X110938150Y-72073150D02*
X112141600Y-73276600D01*
X110938150Y-70327150D02*
X110938150Y-72073150D01*
X121597901Y-72180381D02*
X121597901Y-68843679D01*
X109665100Y-69054100D02*
X110938150Y-70327150D01*
X118059800Y-66340500D02*
X117958200Y-66238900D01*
X118059800Y-68318820D02*
X118059800Y-66340500D01*
X115926200Y-66238900D02*
X115900800Y-66213500D01*
X118758210Y-51013410D02*
X113068700Y-45323900D01*
X112968700Y-45323900D02*
X114872100Y-45323900D01*
X117958200Y-66238900D02*
X118604950Y-65592150D01*
X118604950Y-65592150D02*
X118604950Y-65581350D01*
X118604950Y-65581350D02*
X119164700Y-65021600D01*
X119164700Y-62646700D02*
X118758210Y-62240210D01*
X119164700Y-65021600D02*
X119164700Y-62646700D01*
X118758210Y-62240210D02*
X118758210Y-51013410D01*
X85812700Y-72527300D02*
X86982900Y-72527300D01*
X112968700Y-42783900D02*
X115024500Y-42783900D01*
X115532500Y-68318820D02*
X115100790Y-67887110D01*
X119215500Y-50403900D02*
X120588700Y-50403900D01*
X116866000Y-52435900D02*
X114834000Y-50403900D01*
X116866000Y-61516400D02*
X116866000Y-52435900D01*
X115128090Y-65161210D02*
X115900800Y-64388500D01*
X115100790Y-65161210D02*
X115128090Y-65161210D01*
X115100790Y-67887110D02*
X115100790Y-65161210D01*
X116866000Y-61948200D02*
X116866000Y-62380000D01*
X116866000Y-61516400D02*
X116866000Y-61948200D01*
X116866000Y-61948200D02*
X116866000Y-62100600D01*
X115900800Y-64031000D02*
X116561200Y-64031000D01*
X116561200Y-64031000D02*
X116846950Y-63745250D01*
X116846950Y-63745250D02*
X116942200Y-63650000D01*
X117958200Y-62938800D02*
X117958200Y-64413900D01*
X117932800Y-62913400D02*
X117958200Y-62938800D01*
X119126600Y-47863900D02*
X120588700Y-47863900D01*
X117932800Y-51089700D02*
X114707000Y-47863900D01*
X117932800Y-62913400D02*
X117932800Y-51089700D01*
X117932800Y-62913400D02*
X117577200Y-62913400D01*
X117577200Y-62913400D02*
X117232202Y-62913400D01*
X117257602Y-62913400D02*
X117577200Y-62913400D01*
X117132353Y-63038649D02*
X117257602Y-62913400D01*
X115857149Y-63038649D02*
X117132353Y-63038649D01*
X114650780Y-67482040D02*
X114650780Y-64245018D01*
X113814000Y-68318820D02*
X114650780Y-67482040D01*
X114650780Y-64245018D02*
X115857149Y-63038649D01*
X112992500Y-68318820D02*
X113814000Y-68318820D01*
X113248100Y-62824500D02*
X112968700Y-63103900D01*
X114135500Y-62824500D02*
X113248100Y-62824500D01*
X113977901Y-66653101D02*
X112968700Y-65643900D01*
X113977901Y-67023001D02*
X113977901Y-66653101D01*
X111930899Y-72180381D02*
X111930899Y-67835801D01*
X112463119Y-72712601D02*
X111930899Y-72180381D01*
X118525681Y-72712601D02*
X112463119Y-72712601D01*
X119057901Y-72180381D02*
X118525681Y-72712601D01*
X119057901Y-67174699D02*
X119057901Y-72180381D01*
X120588700Y-65643900D02*
X119057901Y-67174699D01*
X111930899Y-67835801D02*
X112624200Y-67142500D01*
X112624200Y-67142500D02*
X112624200Y-67142500D01*
X119533000Y-62048200D02*
X120588700Y-63103900D01*
X119533000Y-61935500D02*
X119533000Y-62048200D01*
X74370099Y-72340301D02*
X75315349Y-73285551D01*
X74370099Y-70233301D02*
X74370099Y-72340301D01*
X74395100Y-70208300D02*
X74370099Y-70233301D01*
X76379551Y-68223849D02*
X74395100Y-70208300D01*
X80431549Y-68223849D02*
X76379551Y-68223849D01*
X83261800Y-71054100D02*
X80431549Y-68223849D01*
X109665100Y-71054100D02*
X83261800Y-71054100D01*
X112992500Y-71651000D02*
X112954400Y-71689100D01*
X112992500Y-69319580D02*
X112992500Y-71651000D01*
X115532500Y-71651000D02*
X115494400Y-71689100D01*
X115532500Y-69319580D02*
X115532500Y-71651000D01*
X118059800Y-71663700D02*
X118034400Y-71689100D01*
X118059800Y-69319580D02*
X118059800Y-71663700D01*
X120599800Y-71663700D02*
X120574400Y-71689100D01*
X120599800Y-69319580D02*
X120599800Y-71663700D01*
X113068700Y-37264264D02*
X113068700Y-37703900D01*
X77395100Y-69208300D02*
X77754550Y-68848850D01*
X77395100Y-70208300D02*
X77395100Y-69208300D01*
X120853800Y-36192600D02*
X120853800Y-36192600D01*
X112968700Y-37703900D02*
X114999100Y-37703900D01*
X125622101Y-69778299D02*
X125622101Y-37309139D01*
X121501502Y-73898898D02*
X125622101Y-69778299D01*
X78928696Y-73898898D02*
X121501502Y-73898898D01*
X125622101Y-37309139D02*
X124505562Y-36192600D01*
X77370099Y-72340301D02*
X78928696Y-73898898D01*
X124505562Y-36192600D02*
X120853800Y-36192600D01*
X77370099Y-70233301D02*
X77370099Y-72340301D01*
X77395100Y-70208300D02*
X77370099Y-70233301D01*
X37294401Y-43513899D02*
X37389400Y-43418900D01*
X37294401Y-48663899D02*
X37294401Y-43513899D01*
X36099400Y-49858900D02*
X37294401Y-48663899D01*
X44774399Y-43183899D02*
X45009400Y-43418900D01*
X39867399Y-43183899D02*
X44774399Y-43183899D01*
X39632398Y-43418900D02*
X39867399Y-43183899D01*
X37389400Y-43418900D02*
X39632398Y-43418900D01*
X45009400Y-48568900D02*
X46299400Y-49858900D01*
X45009400Y-43418900D02*
X45009400Y-48568900D01*
X119482200Y-52943900D02*
X120588700Y-52943900D01*
X56464800Y-44085800D02*
X56464800Y-38935800D01*
X55174800Y-45375800D02*
X56464800Y-44085800D01*
X63849799Y-38700799D02*
X64084800Y-38935800D01*
X58942799Y-38700799D02*
X63849799Y-38700799D01*
X58707798Y-38935800D02*
X58942799Y-38700799D01*
X56464800Y-38935800D02*
X58707798Y-38935800D01*
X64084800Y-44085800D02*
X65374800Y-45375800D01*
X64084800Y-38935800D02*
X64084800Y-44085800D01*
X119520300Y-55483900D02*
X120588700Y-55483900D01*
X75432501Y-36312999D02*
X75527500Y-36218000D01*
X75432501Y-41462999D02*
X75432501Y-36312999D01*
X74237500Y-42658000D02*
X75432501Y-41462999D01*
X82912499Y-35982999D02*
X83147500Y-36218000D01*
X78005499Y-35982999D02*
X82912499Y-35982999D01*
X77770498Y-36218000D02*
X78005499Y-35982999D01*
X75527500Y-36218000D02*
X77770498Y-36218000D01*
X83147500Y-41368000D02*
X84437500Y-42658000D01*
X83147500Y-36218000D02*
X83147500Y-41368000D01*
X119545700Y-58023900D02*
X120588700Y-58023900D01*
X94590200Y-43768300D02*
X94590200Y-38618300D01*
X93300200Y-45058300D02*
X94590200Y-43768300D01*
X97068199Y-38383299D02*
X101975199Y-38383299D01*
X96833198Y-38618300D02*
X97068199Y-38383299D01*
X101975199Y-38383299D02*
X102210200Y-38618300D01*
X94590200Y-38618300D02*
X96833198Y-38618300D01*
X102210200Y-43768300D02*
X103500200Y-45058300D01*
X102210200Y-38618300D02*
X102210200Y-43768300D01*
X119545700Y-60563900D02*
X120588700Y-60563900D01*
X37389400Y-67618900D02*
X37389400Y-62468900D01*
X36099400Y-68908900D02*
X37389400Y-67618900D01*
X44774399Y-62233899D02*
X45009400Y-62468900D01*
X39867399Y-62233899D02*
X44774399Y-62233899D01*
X39632398Y-62468900D02*
X39867399Y-62233899D01*
X37389400Y-62468900D02*
X39632398Y-62468900D01*
X45009400Y-67618900D02*
X46299400Y-68908900D01*
X45009400Y-62468900D02*
X45009400Y-67618900D01*
X105603398Y-67773840D02*
X109059337Y-64317901D01*
X97371500Y-68806200D02*
X99213000Y-68806200D01*
X99213000Y-68806200D02*
X100245360Y-67773840D01*
X96339140Y-67773840D02*
X97371500Y-68806200D01*
X100245360Y-67773840D02*
X105603398Y-67773840D01*
X47434460Y-67773840D02*
X96339140Y-67773840D01*
X46299400Y-68908900D02*
X47434460Y-67773840D01*
X113919600Y-52943900D02*
X114592700Y-53617000D01*
X112968700Y-52943900D02*
X113919600Y-52943900D01*
X113567101Y-64317901D02*
X112974601Y-64317901D01*
X112968700Y-52943900D02*
X116115290Y-56090490D01*
X116115290Y-56090490D02*
X116115290Y-61769712D01*
X116115290Y-61769712D02*
X113567101Y-64317901D01*
X109059337Y-64317901D02*
X112974601Y-64317901D01*
X56515600Y-63135800D02*
X56515600Y-57985800D01*
X55225600Y-64425800D02*
X56515600Y-63135800D01*
X63900599Y-57750799D02*
X64135600Y-57985800D01*
X58993599Y-57750799D02*
X63900599Y-57750799D01*
X58758598Y-57985800D02*
X58993599Y-57750799D01*
X56515600Y-57985800D02*
X58758598Y-57985800D01*
X64135600Y-63135800D02*
X65425600Y-64425800D01*
X64135600Y-57985800D02*
X64135600Y-63135800D01*
X114275200Y-55483900D02*
X112968700Y-55483900D01*
X65374800Y-64425800D02*
X68243900Y-67294900D01*
X68243900Y-67294900D02*
X96444400Y-67294900D01*
X96444400Y-67294900D02*
X96473330Y-67323830D01*
X96473330Y-67323830D02*
X96536830Y-67323830D01*
X96536830Y-67323830D02*
X97536600Y-68323600D01*
X115456300Y-56665000D02*
X115253100Y-56461800D01*
X115456300Y-60932200D02*
X115456300Y-56665000D01*
X114453000Y-61935500D02*
X115456300Y-60932200D01*
X97536600Y-68323600D02*
X97562000Y-68323600D01*
X103542338Y-67294900D02*
X108901738Y-61935500D01*
X99026600Y-68356190D02*
X100087890Y-67294900D01*
X97594590Y-68356190D02*
X99026600Y-68356190D01*
X100087890Y-67294900D02*
X103542338Y-67294900D01*
X97562000Y-68323600D02*
X97594590Y-68356190D01*
X108901738Y-61935500D02*
X114453000Y-61935500D01*
X115253100Y-56461800D02*
X114275200Y-55483900D01*
X75514800Y-60430700D02*
X75514800Y-55280700D01*
X74224800Y-61720700D02*
X75514800Y-60430700D01*
X82899799Y-55045699D02*
X83134800Y-55280700D01*
X77992799Y-55045699D02*
X82899799Y-55045699D01*
X77757798Y-55280700D02*
X77992799Y-55045699D01*
X75514800Y-55280700D02*
X77757798Y-55280700D01*
X83134800Y-60430700D02*
X84424800Y-61720700D01*
X83134800Y-55280700D02*
X83134800Y-60430700D01*
X112968700Y-58773900D02*
X112968700Y-58023900D01*
X109059337Y-59237901D02*
X112504699Y-59237901D01*
X108128099Y-60169139D02*
X109059337Y-59237901D01*
X112504699Y-59237901D02*
X112968700Y-58773900D01*
X104266194Y-65550810D02*
X108128099Y-61688905D01*
X101145483Y-65550810D02*
X104266194Y-65550810D01*
X99195483Y-67500810D02*
X101145483Y-65550810D01*
X108128099Y-61688905D02*
X108128099Y-60169139D01*
X97604917Y-67500810D02*
X99195483Y-67500810D01*
X96662417Y-66558310D02*
X97604917Y-67500810D01*
X89287810Y-66558310D02*
X96662417Y-66558310D01*
X84437500Y-61708000D02*
X89287810Y-66558310D01*
X113593701Y-57398899D02*
X112968700Y-58023900D01*
X114277901Y-57398899D02*
X113593701Y-57398899D01*
X93274800Y-64108300D02*
X94564800Y-62818300D01*
X96807798Y-57668300D02*
X97042799Y-57433299D01*
X94564800Y-57668300D02*
X96807798Y-57668300D01*
X94564800Y-62818300D02*
X94564800Y-57668300D01*
X101949799Y-57433299D02*
X102184800Y-57668300D01*
X97042799Y-57433299D02*
X101949799Y-57433299D01*
X102184800Y-57668300D02*
X102184800Y-62818300D01*
X102184800Y-62818300D02*
X103474800Y-64108300D01*
X114577902Y-56773898D02*
X114902902Y-57098898D01*
X113802908Y-56948890D02*
X113977900Y-56773898D01*
X108808348Y-56948890D02*
X113802908Y-56948890D01*
X113977900Y-56773898D02*
X114577902Y-56773898D01*
X108128099Y-58672661D02*
X108128099Y-57629139D01*
X103500200Y-63300560D02*
X108128099Y-58672661D01*
X108128099Y-57629139D02*
X108808348Y-56948890D01*
X103500200Y-64425800D02*
X103500200Y-63300560D01*
X113593701Y-59938899D02*
X112968700Y-60563900D01*
X114640799Y-59938899D02*
X113593701Y-59938899D01*
X114902902Y-59676796D02*
X114640799Y-59938899D01*
X114902902Y-58412198D02*
X114902902Y-59676796D01*
X114902902Y-57098898D02*
X114902902Y-58412198D01*
X114902902Y-58412198D02*
X114902902Y-58629698D01*
X113678300Y-47863900D02*
X114303301Y-48488901D01*
X112968700Y-47863900D02*
X113678300Y-47863900D01*
X113691000Y-50403900D02*
X114414900Y-51127800D01*
X112968700Y-50403900D02*
X113691000Y-50403900D01*
X120588700Y-40243900D02*
X119864800Y-39520000D01*
X119864800Y-39520000D02*
X114986400Y-39520000D01*
X114986400Y-39520000D02*
X114986400Y-39520000D01*
X120588700Y-37703900D02*
X119864800Y-36980000D01*
X119864800Y-36980000D02*
X114922900Y-36980000D01*
X114922900Y-36980000D02*
X114922900Y-36980000D01*
M02*
